<mxfile host="Electron" modified="2024-02-09T01:49:33.971Z" agent="Mozilla/5.0 (Macintosh; Intel Mac OS X 10_15_7) AppleWebKit/537.36 (KHTML, like Gecko) draw.io/23.0.2 Chrome/120.0.6099.109 Electron/28.1.0 Safari/537.36" etag="rgfsBHsmU4wpi7Hl5lL6" version="23.0.2" type="device">
  <diagram name="Page-1" id="4ybeOwxGk_2Oms44eabE">
    <mxGraphModel dx="1193" dy="909" grid="1" gridSize="10" guides="1" tooltips="1" connect="1" arrows="1" fold="1" page="1" pageScale="1" pageWidth="850" pageHeight="1100" math="0" shadow="0">
      <root>
        <mxCell id="0" />
        <mxCell id="1" parent="0" />
        <mxCell id="ZF0MTzcJXiSA46bS5pOD-1" value="Assistant Agent - Identity of the persona&lt;br&gt;- System message:&lt;br&gt;Preferences&lt;br&gt;Occupation&lt;br&gt;Believes&lt;br&gt;Constrains&lt;br&gt;Relationships and any reference to that relationship (activity, preference, facts)&lt;br&gt;History" style="whiteSpace=wrap;html=1;aspect=fixed;" vertex="1" parent="1">
          <mxGeometry x="900" y="80" width="220" height="220" as="geometry" />
        </mxCell>
        <mxCell id="ZF0MTzcJXiSA46bS5pOD-2" value="Assistant Agent - Task Decomposer&lt;br&gt;- System message:&lt;br&gt;You generate single intermediate subgoals to achieve the goals&lt;br&gt;- Inputs:&lt;br&gt;Goals&lt;br&gt;Current state of emotions&lt;br&gt;Context&lt;br&gt;" style="whiteSpace=wrap;html=1;aspect=fixed;" vertex="1" parent="1">
          <mxGeometry x="470" y="380" width="220" height="220" as="geometry" />
        </mxCell>
        <mxCell id="ZF0MTzcJXiSA46bS5pOD-3" value="Assistant Agent - Actor&lt;br&gt;- System message:&lt;br&gt;You generate potential actions and discuss feedback with Monitor Agent&lt;br&gt;Long context readability enabled&lt;br&gt;- Inputs:&amp;nbsp;&lt;br&gt;SubGoals&lt;br&gt;Current state of emotions&lt;br&gt;Context" style="whiteSpace=wrap;html=1;aspect=fixed;" vertex="1" parent="1">
          <mxGeometry x="750" y="380" width="220" height="220" as="geometry" />
        </mxCell>
        <mxCell id="ZF0MTzcJXiSA46bS5pOD-15" value="" style="edgeStyle=orthogonalEdgeStyle;rounded=0;orthogonalLoop=1;jettySize=auto;html=1;" edge="1" parent="1" source="ZF0MTzcJXiSA46bS5pOD-4" target="ZF0MTzcJXiSA46bS5pOD-2">
          <mxGeometry relative="1" as="geometry" />
        </mxCell>
        <mxCell id="ZF0MTzcJXiSA46bS5pOD-4" value="UserProxy&lt;br&gt;- System message:&lt;br&gt;You are an admin that reciveves and tramits the goals and also the final results of all the actions discussed with the other agents." style="whiteSpace=wrap;html=1;aspect=fixed;" vertex="1" parent="1">
          <mxGeometry x="140" y="380" width="220" height="220" as="geometry" />
        </mxCell>
        <mxCell id="ZF0MTzcJXiSA46bS5pOD-5" value="Assistant Agent - Monitor&lt;br&gt;- System message:&lt;br&gt;You assess the actions proposed by the Actor to determine whether they are valid accordingly to your identity&lt;br&gt;- Inputs:&lt;br&gt;Proposed Actions" style="whiteSpace=wrap;html=1;aspect=fixed;" vertex="1" parent="1">
          <mxGeometry x="1040" y="380" width="220" height="220" as="geometry" />
        </mxCell>
        <mxCell id="ZF0MTzcJXiSA46bS5pOD-6" value="Assistant Agent - Predictor&lt;br&gt;- System message:&lt;br&gt;You predict the next state of the emotion and which task to complete next o stop in sudden case. You can also update the relationships that you have with the others.&lt;br&gt;- Inputs:&lt;br&gt;Proposed Actions" style="whiteSpace=wrap;html=1;aspect=fixed;" vertex="1" parent="1">
          <mxGeometry x="1330" y="380" width="220" height="220" as="geometry" />
        </mxCell>
        <mxCell id="ZF0MTzcJXiSA46bS5pOD-7" value="Assistant Agent - Evaluator&lt;br&gt;- System message:&lt;br&gt;You evaluate the minimum steps of the current state of the emotions and actions to accomplish the goal /subgoal&lt;br&gt;- Inputs:&lt;br&gt;Subgoal&lt;br&gt;Previous emotion state&lt;br&gt;Previous action states&lt;br&gt;Context" style="whiteSpace=wrap;html=1;aspect=fixed;" vertex="1" parent="1">
          <mxGeometry x="1620" y="380" width="220" height="220" as="geometry" />
        </mxCell>
        <mxCell id="ZF0MTzcJXiSA46bS5pOD-8" value="Retriever Agent - MemGPT&lt;br&gt;- System message:&lt;br&gt;Retrieves from previous messages&lt;br&gt;Retrieves preferences and facts from chats&lt;br&gt;Retrieves story&lt;br&gt;Can also retrieve from docs" style="whiteSpace=wrap;html=1;aspect=fixed;" vertex="1" parent="1">
          <mxGeometry x="1170" y="90" width="220" height="220" as="geometry" />
        </mxCell>
        <mxCell id="ZF0MTzcJXiSA46bS5pOD-9" value="Retriever Agent - Qdrant&lt;br&gt;- System message:&lt;br&gt;Retrieves docs" style="whiteSpace=wrap;html=1;aspect=fixed;" vertex="1" parent="1">
          <mxGeometry x="1460" y="90" width="220" height="220" as="geometry" />
        </mxCell>
        <mxCell id="ZF0MTzcJXiSA46bS5pOD-11" value="" style="strokeWidth=2;html=1;shape=mxgraph.flowchart.annotation_2;align=left;labelPosition=right;pointerEvents=1;rotation=90;" vertex="1" parent="1">
          <mxGeometry x="1280" y="-460" width="50" height="1580" as="geometry" />
        </mxCell>
        <mxCell id="ZF0MTzcJXiSA46bS5pOD-16" value="" style="edgeStyle=orthogonalEdgeStyle;rounded=0;orthogonalLoop=1;jettySize=auto;html=1;" edge="1" parent="1" source="ZF0MTzcJXiSA46bS5pOD-12" target="ZF0MTzcJXiSA46bS5pOD-13">
          <mxGeometry relative="1" as="geometry" />
        </mxCell>
        <mxCell id="ZF0MTzcJXiSA46bS5pOD-12" value="Assistant Agent - Task coordinator&lt;br&gt;- System message:&lt;br&gt;You emit the assessment of wether the subgoal has been achieved. You emit the plan as a series of actions.&lt;br&gt;- Inputs:&lt;br&gt;Current state of emotion&lt;br&gt;Current state of actions&lt;br&gt;Subgoal" style="whiteSpace=wrap;html=1;aspect=fixed;" vertex="1" parent="1">
          <mxGeometry x="1890" y="380" width="220" height="220" as="geometry" />
        </mxCell>
        <mxCell id="ZF0MTzcJXiSA46bS5pOD-13" value="AutoBuild Agents - Multiple agents&lt;br&gt;- System message:&lt;br&gt;According to the current planed actions, subgoals, and goal(s), please perform accordingly, give the actions and create agents and their roles accordingly." style="whiteSpace=wrap;html=1;aspect=fixed;" vertex="1" parent="1">
          <mxGeometry x="2180" y="380" width="220" height="220" as="geometry" />
        </mxCell>
        <mxCell id="ZF0MTzcJXiSA46bS5pOD-14" value="" style="shape=image;verticalLabelPosition=bottom;labelBackgroundColor=default;verticalAlign=top;aspect=fixed;imageAspect=0;image=data:image/png,iVBORw0KGgoAAAANSUhEUgAAAoAAAAExCAYAAADssxNuAAABWWlDQ1BJQ0MgUHJvZmlsZQAAGJVjYGBiSCwoyGFhYGDIzSspCnJ3UoiIjFJgfwGU4GAQYBBnEE1MLi5wDAjwASphgNGo4Ns1BkYQfVkXZJaH+bN7u1d+uhv8vGFh6yKLJZjqUQBXSmpxMpD+A8QayQVFJQwMjCpAdkB5SQGIDcQMIkVARwHZHSB2OoQ9B8ROgrA3gNWEBDkD2UeAbIHkjMQUIPsKkK2ThCSejsTOzSlNhroB5Hqe1LzQYBANxDIMPgzODC4MCgwhDGE41JmA1Tkz5DMUMFQyFDFkMqQzZDCUAPU4AkUKGHIYUoFsT4Y8hmQGPQYdINuIwQCITUDhix5uCLGqCgYGu04GBqZFCLGwQwwMq3sZGMTdEWKqQP+LvmRg2OlSkFiUCA9Nxm8sxWnGRhC2hBADA6fr///PVjEwcKcwMDLp/v//ffL//7+FGRg4zBgYGl8BAMkeYLWOYFzFAAAAVmVYSWZNTQAqAAAACAABh2kABAAAAAEAAAAaAAAAAAADkoYABwAAABIAAABEoAIABAAAAAEAAAKAoAMABAAAAAEAAAExAAAAAEFTQ0lJAAAAU2NyZWVuc2hvdIOREDEAAAHWaVRYdFhNTDpjb20uYWRvYmUueG1wAAAAAAA8eDp4bXBtZXRhIHhtbG5zOng9ImFkb2JlOm5zOm1ldGEvIiB4OnhtcHRrPSJYTVAgQ29yZSA2LjAuMCI+CiAgIDxyZGY6UkRGIHhtbG5zOnJkZj0iaHR0cDovL3d3dy53My5vcmcvMTk5OS8wMi8yMi1yZGYtc3ludGF4LW5zIyI+CiAgICAgIDxyZGY6RGVzY3JpcHRpb24gcmRmOmFib3V0PSIiCiAgICAgICAgICAgIHhtbG5zOmV4aWY9Imh0dHA6Ly9ucy5hZG9iZS5jb20vZXhpZi8xLjAvIj4KICAgICAgICAgPGV4aWY6UGl4ZWxZRGltZW5zaW9uPjMwNTwvZXhpZjpQaXhlbFlEaW1lbnNpb24+CiAgICAgICAgIDxleGlmOlBpeGVsWERpbWVuc2lvbj42NDA8L2V4aWY6UGl4ZWxYRGltZW5zaW9uPgogICAgICAgICA8ZXhpZjpVc2VyQ29tbWVudD5TY3JlZW5zaG90PC9leGlmOlVzZXJDb21tZW50PgogICAgICA8L3JkZjpEZXNjcmlwdGlvbj4KICAgPC9yZGY6UkRGPgo8L3g6eG1wbWV0YT4KtQRbOgAAQABJREFUeAHs3QeAF8X1wPGRpoKiAtaooFFRsfcu2GOLNfZeE81fbLElij3RxK6x927svWOLBXs3NtTYxU4REP/zmXMuP847OODuuDIDe/v7zc7OzL7d3+5333vzZoqfYgolFQkUCRQJFAkUCRQJFAkUCbQZCbRrM0daDrRIoEigSKBIoEigSKBIoEggSaAAYLkQigSKBIoEigSKBIoEigTamAQKALaxE14Ot0igSKBIoEigSKBIoEigAGC5BooEigSKBIoEigSKBIoE2pgECgC2sRNeDrdIoEigSKBIoEigSKBIoABguQaKBIoEigSKBIoEigSKBNqYBAoAtrETXg63SKBIoEigSKBIoEigSKAAYLkGigSKBIoEigSKBIoEigTamAQKALaxE14Ot0igSKBIoEigSKBIoEigAGC5BooEigSKBIoEigSKBIoE2pgECgC2sRNeDrdIoEigSKBIoEigSKBIoEMRQeuTQJneuXHO6RRTTNE4FZdaiwSKBIoEigSKBJpYAgUAm1jgbbU5UGqphCifM6xW5rdVGZXjLhIoEigSKBIoEmgqCRQAbCpJt9F2gN2YMWPCDz/8EEaPHp0+Z1F07NgxfZxyyilzVlrbpxIOx9pYvhQJFAkUCRQJFAkUCUyyBAoATrIISwUkAPJ+/PHHai1fBr/vvvsu/Pe//w3vvPNO+Oyzz8LIkSPDFO3ahZ9ieQDYLn6ec845w8wzz5z27dipY+jRvUeYfvrpQ/v27dN265wyGFqXVCRQJFAkUCRQJFAkMHESmCKa4H6auF3LXs1VAg19SnN9Gbryd8A3atSoBHhvvfVW+OKLL8KwYcNChw4dwtRTT52A8KuvvkrQB/ammWaapNlTD/D7+OOPExiOGDEizDbbbGm7Om3P5WeaaaYEiCBx1llnTfvZDjhzf5wHfar83hjnprHrb4w+lzqLBIoEigSKBIoEapNAAcDapNLC8zKgNdRh5PoqAYhJ94033gjPPvtsGDJkSIIv4Cd988034fvvv09ave7du4epppoqAEHrbt26JXMwreCHH36Y8mn4pp122tC1a9e0XT3q+PrrrwMNYgbKddddN8w999ypbJcuXVJ+7ls+1so+5ryGWjdm3Q3Vx1JPkUCRQJFAkUCRQH0kUACwPlJqYWVqQtGkdj/XRztnGTx4cHjyySeTBg+4AbtspgVJtHM0fLZ17tw5wdzLL7+cYI8WkBl4xhlnTIAIDGkA7UN7KPXs2TPMMMMM4dNPP02Q+OWXX6b6QJ/6rOedd96w6qqrJlOxtiyNnQoANraES/1FAkUCRQJFAk0lgQKATSXpJmwnA9ukNqmeDHTvv/9+eOmll8IHH3yQwI9mb7rppgtTR/gbGsENrEkAr0ePKh8+QPfRRx+lRV0WZmLwtvrqqyfwe/311xNUqkv5Tz75JBgUsthiiyXQ1N63336bTMT6AhZpF5meZ5lllrD00kuHJZZYIvVlUo93fPu3RQA87bTT0nk5+OCDxxJPXflnnnlmuPrqq8Opp56azkveaa+99krn/pprrslZaf3MM8+E/v37V+eB+379+oU//elP6dpbe+21q18McqFjjjkmwf+///3v8M9//jM8//zzYaGFFgo77rhjUL6kIoEigSKBIoHxS6AMAhm/jNpUCZBmtK7kMxPsoEGD0kOWlg2AyaeJo+Gj+Xs7DvAAgJ06dQqff/55gkRlARPtIG2f8jR/wG2eeeZJPn6vvfZaMh976P/qV79Kddh/6ljWfsrax4CQueaaK9Wt/WwStu3+++8P6gGUv/71r1O/m0ojmBpr5X/efPPNZIqveZjjyn/00UfDJZdcUg2AQ74cEs4666zQq1evmtUE2l0vAWeffXa6rrwwHHvssUmje+CBB6Zr74ADDgi9e/eu3tcLxGOPPRY23HDDsOeee4Zdd901aPN3v/tdAIV9+vSpLls+FAkUCRQJFAnULoECgLXLpU3nMvO++uqrgXaGnx4YM0oXcPHTM8AD1Ml/8cUXk0Zw9tlnD3PMMUfS9hkQAg49qMGiBADBmzVtH79Bo4ItiyyySNLw8QtU5/RxO/DUD7BnzSQ8dOjQZEamIQSN+kEbKN1www1JC0QjSDvZFCbh1HD58wsJLLroouGWW25JWkAbr7zyqjD//POn8/+LwjHDi8Omm25avem5555LLgY5A9wvu+yy+Wtab7/99mHbbbdNsCiDO4AXl6eeeqoA4FiSKl+KBIoEigRql0ABwNrl0uZyadto7DxE77zzzvDKK68k7Z6BGAsuuGACPzCoDBOv/HfffTcwDYMzYGjELqCTDPZgDn7vvffSA952+4I/iVkX5GWT7jNPP520QR0jDAA9g0xoF0EeWKQpUod9gKgFMNI8Akjtgg6+iTSMK6+ySugZRw4DyJKaVgJM8vfdd1944oknwnLLLReujWZfgHfFFVfU2pHsVzo6gv6geP7se+SRR1aXPeecc8Ktt96avhsNvvvuu6cXj0MOOaS6jA9HHHHEWN/LlyKBIoEigSKBuiVQno51y6ZNbQFnw4cPD9dff31g3ls4+lSNido7gzNo5cAX4AN0NHz89WjZbKOF49sH7gAc8ANe4E4+7aHUIYaCUR78ATp1aJOfH6CjHZRoDQFprt93WiEjgPUDHFqYhmn7mP9oiOabb760v/Ay10Q/tA023CAs1GehBJ5pQ/nTJBJwLW2wwQZR83dlGtDjmqGhA4BA/bbbbkv9cF3Q/oH45Zar0vBNP/0MwWjvrbfeurqvRoS7biQvG64H14t9SyoSKBIoEigSmDgJFACcOLm1mr1o/ICWhyqQeuGFF5Ipd1gEM3m0fR66yoE28Aa8wBgtn20GbnjIAy+mWTH9powP7Fx+7uib1y5CQYeo0ZNAIV+//GBnHlQPOKDxA4XalmgB1QkSmZWNENZf+WIFgk7bQIe8kREcAShAvOP2O8LoUaMDk6R9lMn1psrLn0aTwDbbbBMs3ALWW2+9JH+NffLpJ+HSSy9N7S6wwAJhk002SdcL7XJdyYCQmiZgsM83deWVV67e7e9//3u6po4++ujqvPKhSKBIoEigSKB2CRQArF0ubSqXRo+5bnAM70LjB/ZoWACWkba0bg8//HDS9Hnggj8gCOKs20XworFjDqaRo/2TDwqtf4z1SSBM3fLAojbAGbMe+AOMQJC2h/Yww5pytEVGejIza1f4GKZi5ZijrTPIgj9wyrR43XXXpXIrrbRSdX1t6uQ2wMGSo3OQk+tCqivfthVWWMEqnHzyyeFf//pXgnrfF1l4kTBw4EAfU7r33nvzxwlaG/hx2GGHheWXXz4trs/jjjsuXPIzXE5QZaVwkUCRQJFAG5RA4wdPa4NCbQmHDPQsT0ffO6E5ABVNHLMaQLM20MPDnl+d7WuuuWYabWsbWAN9gI5mDygCMHBmJCeY9Jn/nhiAH8Y8dTD35W1Za8eEnIM+Mz/z7QN0FtpCbQE68Ac6LBlUmaVpAXfZZZekJeoVR5qaMUTdeQDJHXfckdrU13zcGS5bwrma3H286qqrUmgeg28sRvhKteWTe06//e1vE8xnGMz5NdeV+9Tc5rvrqmbiB7jHHnuELbfcMmmkd4whYPbee++wwfrr1yxavhcJFAkUCRQJ1CKBEgewFqG09Kz6wA0Qevvtt8O1116b4I3pFUwxp9LA0fp52PPTU58RvbQttHrm9TUYg6mVxg8kZu1bAq/4vWPUAjLlMtMZKQwWmXJp57JZ13fAZgSx7TR6zMnAEWSqVx+YnJl/mZZBobaVZzb8z3/+kyCAdlA4kY+iZvG7CLAZ9JQFlzSLRgg7hjyl3ISe5/GByoTWV8o3jARoj70clFQkUCRQJFAkUH8JFBNw/WXVKkpmOKQNe+ihhxLEOTC+f6CJj51tYAz8WTO/Ajzx9jxs5QMrGjbba4KR7z2i9tDoYQM7QB//QtpA5l5BnoGjdoAeIASdgI+pMWsXgZq2bdPO4KhVtI9jUEZgamCnHPOzvn0bBwzQYKqHplDbyssbGE2PRjdvtdVWKa6c463Z91ZxktvYQRT4a2MnvBxukUCRQINIoEkBkGnQQ5fGp67kYV2fhzKzIq1PfRIYoIWSwIYwITRKAtS++8671VV0mrJT8lGSAShou5iv7NMaEtkCKJq5Bx54IMmEHGj9mHudFxo2oKUMDR0oM1jDubOvc2OAB7hiqqWxy9o2QAgUrbU1YxxAoh7bgZ4BAWZ5AJkAUr1S0h7GMsoCPdCmbaZdWkYDSIbFJWvz1O2zbfoL6oCmMCLOlf3UxXysLuXUByTBK5P3XnvvFeMNTp/ar8/1lgqWP0UCRQJFAkUCRQKtRAJNagI2gMADWbDWutJqq62W4KSu7Tmff9HNN9+cv45zTXPVt2/fNGKQ6ZDfG/8l5sMTTjghxZFTAW3TGWeckTRE4M9gB/5vwlbwj2spCSDVTDkPMAmanMKzRLPZexF0QRPNHHAzGIRPnrAdZtagtSMnkEgeNG7KM9O+8cYbCeL4580Vt80a/QBHRdgWPgbkgS1aOrM2qJP5dcUVV0ztfBrB8dsIcUBS30A6qAOU8gAp0y9TNPO07YCRJg+I0vpZO5e2g/oMnmCQ6dgUdZ9HrSDAkwd2Hb9z+5vf/GaCpw0roFjzqirfiwSKBIoEigRaqgTaD4ipKTrPuZ+/GU1QnvnBPJ4e4scff3zS0hgZag5RGhvavQsuuCAFgGVKlHfiiSemUZ0+gwYjO5n1TjrppKRl4qd2zz33JGADOQYtSGDnwQcfDEYcMv+B0McffzxBBFAQlsI0UsJVXHbZZQlQ1St4LdAARcJQCE5Lg9XSElll7d1dd92VfOWAHDm0j9BHYwZ+gTLt31JLLRWE6ABcgAn48LcDWDSCQAqYyQdtQsWsEWdroOGj7VM3oDSbiDoBl6ncACCw45OXR/HanznX4jy5PsAjsx5oA5vq1A9rx6KMPvgM6NUHMJUBijSKjk0bjsE2ZfW9EzCMWkag6RhdS/VNBQDrK6lSrkigSKBIoEiguUugyUzAovlvvvnm6cFtInnQdfnllycQ23jjjcNOO+2UwIs2Z604ofsf/vCHBBTgz3ZzfIoH9o9//CNBxPnnn58A7Y9//GMCQxDI/+u5ODE8f7P99ttvLNkDAUGOQYYAtWAOIAgfoW1J3DLtbLTRRtX76rNEK0Uj1VJT0u49+GwY9NBLoXu37gmAwFXXCH8AbkiUi3AwveKgDOeAyRyUASTABRBBpDwgBMCYVW0HVAaUgC7bwSHgojU0sITcAPT8C8wfB2h8l7R42UQL3tQLxAGkOYHVDfbGRJkPj1AH4Jw/7QA8x5JhTF8Bo2MBkzSENI/qBIT6l03C+uO7vnnZOP3008Nmm22WQFD78qVcd0s916XfRQJFAkUCRQJFAuOTQJMAoIc5vyvO/7Qw999/f3pQ69wBBx6Q/O5M+A5EPIjniaZHmirBXh955JFkavTw5qNWCXYgkpZunXXWScBw4YUXJjPlVnEWAQ/2ygQewB7tFC3f4osvHkAk0yHwk5h5QQ2QyAnU8H+jwapsO29v7usMNa/e8lV4ZONfh85hhxAj/IWIZ2GKI+8P0/0Ma8/HQSBAj8ydLwMqQB2tKpkxBzs/oApEk1HSIEbwAnM0hCA5w5rzZVSubUbfmh5s6qmmjtrA99N+ymlDcg60m5351W0BcoCOGRoAql8fnSPAB9SYn312nK4tQGnRTyZrLxD6qS3nUX3KqUNIGlrmteP1s+Yaa6R8/SkAWDUbi3NUUpFAkUCRQGuQQLYotYZjaahjaBIANI+nh/yxxx2b+u1hfd5556XP03Wtmhu25kOXCfHiiy9O4MVEnOGw8sBBRfYDZGIGKlLnqBWqmYQQYV6umeSvER/+OTEbm2N0n332STCqbWFP8uwFuVxLW9+3cfR9W/Lf4adfxbAuEfCm+vecYeYjNg/fHv9gnPrt6aQN5Z9HA2iAjQEeZOpcgT9m1ZwAIsACUzRytG0AEKSBLWVto2F1HsE2zR6t2zc/w5ltAI+pf/VoPgb39gGX6vAZtIE/n10froFZokm+UwS4XFZbzjuo0w+QqH/WtjERAxn9BX0+Zw0izaByd8W5j9vHstlloPJY8zG3tbXzPnLU/4I/t7XjL8dbJFAk0LokMOWPUyZlQes6qkk7miYBQJo5gXrNAiAx2+79x71Dtxm6VWtbMgDStNHeMffy1/NgX3jhhZNZMpfJh8xnjxbPSF1aH35/2qpZLpevua6tHG0iEzK41DZIMJMBgOjdu3fyZ6tZT3P97iHuGF+47ovwTYhm0Zm/DSFOyjFy1A9h+BKvh5/eigMvDpknfLzjY8kMCsaAH+B1vKCMlow2DigztTK5gj4aVRAG+mj5wJw8SZtAi+mXVpX52HYDR9QL8HxnjiVTQaR91xbgA4Fg0aJ8Ng/zx6QB1A5wc3wA81exnx/GfgM/EGi0rz44FvUqpzzTMh9EUKic8rm/A6PPZ68Ivy1psE/qfPlTJFAkUCRQJFAkMBESaNJRwPXpn4c1QPAQ9xlcUN2OK30/9PswTZf6O/OPq668TdsgBjS0tKTvkjUQOrXdp+GNZR4Ko7p/k+CHBqxTx+jzNmaKMMftq4fvDz4zDfwARwZtACzwJ1YfCDNqmzkXBAIu5wcUgjNARgMH5mjOtAesDACxzlpF5So1eoPjYBPt9Y2jswFiHgQC5JlqaRTVz8QLzMCk+l0P+gcWQdzSccDK9LF9vobymYNzuBcmbAAI5EEkDaJjAq0W9fFXtA+NJHO3KcbqSo6trSTn7quvv2orh1uOs0igSKCVS2DaaaZNz6tWfpgTdHhNogGckB55yHqASz6PD/6Ua2j4y223RPjT98r08oXDw9fhyzC6Rwy5MrrKLNqhfdVcru06TBFiqOTQ7uuuCcDAF8ACS7R8IMCI4D59+iQtKM0oUHJ+ABkYBIXTRvj7MZYFhqAKeGbtILiSD+YswBHsqR8Ufhk1fkAObGcIzPBHM9grwh9oU17/AKk+6BuQfSwO2nGNaBfoATrfZ4j9A3m0iZXHQxOY+0Kb6RoDjtoHnpUvH5VyLJ+LBIoEigSKBIoEWpMEmh0AtibhTu5jAUUP7/pj+HDFpyMwVfnGgSSABoSEtx4+/Rdh1Mvdwvs93k/5NGY0cyBP+BYgZyDFkksumXwDmXF95tcHzIZFeMojdUGafUEVOFOHkb00b+BKAoTaVoYp9pOoyRsWoRPQaRu0WdtnzmhypolUXp7yEo0hv0Sw93wc9U37p70MdLSGYhHqj2NVR647+wtqH3Dark9gFCwKKm2wEtmVVCRQJFAkUCRQJNBaJdCsAbDmTB1OgpGiNE/jSgIU8yX0UK8rMSGCgDzytK5yTZmfZzcBJfpWn+MYX/94uf3YZVjS/inbboo4Yjb+A4TaGL7Ap2H2R1cP7y9+WtLO8bc0YCNr7UDSW9GUSkMG6IAZPzlQyF/v0zhQwzbaOdvJnYYNrBl0Ab6maDdFqk/7ytCsZqCjcQR/4I0mMEMeUJv551iAX0ToBGTAzv7AUx/ICTDSKvL3sy9tn/bVpW4QaAGI8vVTW0BYP3zWPsi0vvHGGxNYGrRUUsNL4L577wuHHnrYOH+bDd9qy61x9KjRYd/9+octttyi5R5E6fk4JfDKy6+EbbfdNnTp3LBuTONstBlvdJ/ep///he22364Z97J1dK1ZA6AfhpiBpmXz4BZAeq211gq77777OKVvwIkYg72i+bCudNFFFyUoEH6muaTDDjssjWo2KtZUbQJfH3300SkY9cT2scscP4UO300TRnf+Oh2ven76qWqwBAAc0X1INANPHeafZvkwZMa30mhtMATq/BClN6L/X9aWMf0CMD5//AWBl3NDU2gQCe0cjRzoAmzqAYrMrIANlIM4bWfgA2dMyABMnpQ1lfYfGcGOtg8Eak8d/AmBH5AEmvrjezYx5/1BoX2yGZhW02AS221Tv/ZpAZXx/c44Kni33XZLcKjPJTWcBATgXm+tTcIeu/RvuEpbcU3X3Xh5+OjDKu15Kz7MNn1o7p9LL7FCOOrPJ7VpOeSDv/aGy9MzI38v68aTQJMB4ODo9G9gQN/o9F8fvz6HvMoqq6TFyF6zcZx77rkJLkAbqPDWBJYujuFixPjjr/b73/++Wlr33XdfCkacAz3bcN1116U4hH50ynvA33b77eHBCFw77rRjGqlsm8DSIEZ9tFimjnvmmWfCDjvskEyEZjEBIvL23nvvoC1aM307++yzE8wYOLHHHnskMDKdmuOgIdt+++0TdBx33HEJTnIsQzNlmKHE9GlnnXVWMrXSUPF5E68OnKgPwAhpY+24jZiuTSvq2H74oF0Y3atKA9a+fdXplp9hy+ePFns29Dx3yTDL8VWwJk9bZAzIHBfgsnbuMkwBMvCkf7YxywJE+0vklgFMnv2An8/WQBLY+S4MS9baaZuvH/naDhgBnj7k0DTqtR9Tb4ZKefoBMrQlATtaQmXkqYv2FzT67Bjk2w4mJW2DWFrO3Ne0ofwpEigSKBIoEigSaCUSaBJHJ7Nr0A4J2yJki4fqxKb/+7//Sw9mcwHT9Ak4DKSAGq0ZHy7p7rvvDgceeGAKEp3bAkvHHnts2HDDDdNMF/IFhT4vguXacfaRbbbeJmmztttuu2QSNPhhzz33TPAFHMWJM2UcgLDfs88+myDHMfF1M2ewgRK2AVZwqi1gsskmm6TQMkDQMSjDfw2cmo8YkAlpYyQq6DMbyhVXXJH6Y1YUmi1mSXPYSkATqDCVAsDa0udPTxFiNL4YGDECYBz4MUX8V2X+HZPAR5v69u1M/w0jh3QNY4ZX+eeBKNCUB2VYM6cCs1Q+avv0R9sgid8fEDRoA1ApB66EeFGeBo5/HeiT1O8Ymd9BoM+uiVw38FaWBlIfbVOnFwgDRNSnT0mDGMuqTzkgB4r1q9LXUN/0i3YyA2XWFmb/P/CnHtpPiTleu5NyraaKyp8igSKBIoEigSKBZiiBJtEACtbMBCi9EGecoMUx88PEJLBjWjmmPFACOjz0adXE8BOrTtp///3DwQcfnLbldgCiaeXWXXfdpGmTf9NNN4XBUTv517/+NZkx+YABO7H/AAUYXHXVVRM4mnvYLCbXRhgEKOIZdoimRMenXvAnhp5tgkmDo2OOOSZpD8EOeASE5qAFcNo0u4h4hwBF4mOnXbOhSABEv8GgMkzifANBl2DV5FkXAD53WtSGzftahKGfNX8R/6QOHapgcMxPPyaISlq+8F0Y+VWErh++Spo/QETrRuNHOwawQBjgBmBASj+BnjWTqrVzYl8QBrwM/qCRE08RJIM8+TSW6lZeHthTPzDTrlk81KddGkbHbHo6cgTm9gWK9rEvcMu+gb7rJ0hUtz5m0NO27aBTPw1qoQ1UTh3OnTb0mSaYRrOkIoHmIoFRI0elF0f3BYOVOk1Zu5/zO2+/k35jHTpO+i3+9ddeT9M4NhcZlH4UCRQJNIwEmkQDSPuVAQcUTSz8OeQtttgizRMs6DNwoY1jlqXxAwnMxBI/LiZXsJkTWGTak/Ko1F7RTxDIPfjggwnyzFkLImnXAAJfML6HYspJ9u8RfdskENEuAgNQqZkAiJu0egAk86Vk/6k7T536zVR85plnJqh78aUXa1aRvgMSplRAItGAAR0AJAGb2rRU9vv8+ZFhRLcvYx+rTnPVSOAqDZftHTt0itOzdU5AFlEwvPXau6l/zhU5gFpzIdO29uvXL03pBr4cC/MwWAP21mSgzqxFA7K0iACLfyDwAliALsOjOmxXn+PyGZwBNtvIDlADP+Z01415mjPkg0flrbVPw+czYHTuQF2C26jZ075+gFmf9dVaGBvy1aa61ANU7aee2mSbBF/+FAk0sQR+GvNT8oHmnnLKKackC4O5tWtLe+21V/U9o7bt9c3TppfgkooEigRanwQm/fWwHjIBE29E0+djUUNGCzahycM6J4GFDz/88PSA9tAGU3wAachA0pprrZm0eh7iRx55ZNhxxx3DY489lnbfdrtt05RuNHkAgSaOT51BJVdeeWWCEyBJe7jlllumfWgWAZxyYM3I0d9GCDkz+uhV9iv3L+eBSpAGTgHL+uuvH5ZbbrkENrSCs8WRtpvFeYyBEm3efPP+TyPKT9BsKLkuGj7gA27Izz45KZPL5by8HvpyCKP6DQ8dYhkgA4ho6piCx8SBIO3bVQ1+mPb9OJ9uBMDvu3wYevfqnWZe0Qf10rCBOvICRbRj1mCKBg4k+Uxrp7xyIEt7tLQgDiQqOzhqWtWlH9Z5sU0ZbYFEddK+gUUL7aGwM+QHTsE7WSirDu3S4snTvsU214d+qCOvbQPN6pGnDBCUn+EPYDPVy8vlskzLumVJ4NAB+4QPP/rgF53ec5d9w/LLrvyL/Noy9j90z7D37geGuXpVaeVrK9MUeX4/fiMGuLXv0D4cf9zx6cWUpts1u+hii4YrLr+iekpDlgP+xO6BfRbqE5579rk0JzvXFL/L7XfYPjz6yKPh9ugDvdpqq6UpMQ248+KsTi9/K6/8PxldfdXVgTsPzSPXFaP7SyoSKBJouRJoEgAkHibNbNacUHG52eSBHHzxaJZAQU58+4SMyVPLPfLII2lTr6jdq3x7FTDaDcyDPWvQFHzooYdC5WwiBmXQfgEVUCAx71aW8T0n7Uv/+Mc/0pqJGkjOONOM1UGqmXsBivpAhcQHsPJY3nrrrZRvX2ADTiTH4WYsj9ZRymVp5JSvLU09/0+h47DoX9dleNoMlHIQ6NGjRyUQ/GnkFKHnC8uEb/e4MMzba94UAgYQgWkg5kEA0ECd/SWaNrKxzYPEQ4mplCbQMUp8/iweWuTNbAzKbAeQIEx9FvIAac4JQNWWtXMsJA3fR2Z+sgN/2lMHgLOvsr6DSG3or/qzb6HvymlLOcfnu8Vx2Ee+h6gXB8euv9riu1pSy5XAButuHq+Xb8PzLz4d7rn/1vCnfY9MB9Or1zz1PqhXXn0+fP3t5J8VZa6550rX4yKLLBz69u2X7gmLLb5YOOLwI0LvGBYJAN5yyy1h0UUXTcfmXsctZuutt05uJGa5Oeqoo9LLrt82uOOq4kXZoDO/X64vfLW5cHAx4Q4j0dDTPLJanH766cGAtQUWXCBtK3+KBIoEWqYEmgwAG1I8lfCX6+3erXv+ON51JfzlwjVnEwEHGf7qKpPza67dHGnEataZ4a2yfG3HAlQy/OWy+lPb/nl7bevZVu0Qpry7Wxja/f0IOKMSFCmnLvA0+sdRodtTfULH1V4Nv1p4uqRFA0IjImgCMqAF4gCc/mjfmrYt+8Z5kOivBJo8RKxBFJMuKJN8Bl5kyuwK7IAkjao87Um5jDa0Z5v+6gsgA52gTf8zAAI8+2eYkw8iLeBO/7LscltAFCTqn7XFQ482k8lZEuaG9lc9JbVMCSy/zEqp467rR/79QFhztXXT9/sH3h3++o8/x+tpSFhg/oXCvnsdGq+RzuGcC04NTwx6OLopTB+233qPsORiy1QfuGvjryf9Jay79kZhpeX7Vec31YcfRvyQ3EX8Fu66667k+3vEEUeM1bxrPyeWjHnnmzdFDBClgF/teuuvl16mgODVV18dNthgg7Da6qul3w8rigFqF0eLCheW/DKnvplnmjn5WzMt0yB6USqp5Ujg+L//Jdx5z80x3FbVHOod2sfpQDtNGe67bdB4D+Kyq86LAfs/Dgf2P3y8ZUuBliWBFgmAzV3Ef//735tFF+dcu12Y6ZyFw6cj4mjg+d8N7TtHTVs0/Yb4H1SN+mF06PbVPGG27R8MU3WdLWkYwd4P0ReuY4Q10KQcqANK4CwPDKGRA4G0kky91jkuICj08ABeyjNxK8+s3KtXr2RGBn4Z4rKwfB/9Y9TsRb8jD2za0S+iL6D+8M/TN/l5P216KPMDlfQ1wyk/Q2BoP8dBS+j7DNF/c0iEWsCXZPCzBlBfweHgqLFUJzi1dix8RysfrLm/Zd0yJfBxfJgdfPje4ZD9jwrdu/UIx57459BzjrnD3HPNF6694bJw7IBTw7PPPRkOPeL/wt03P5EOkhZx1722CL3nXSCsuFzfyXLgBqCdd9554frrrw877bxTgjR+z67l7+K1Kn38ycfVffO7oD33GwBtBpCN+XFMeD3uI/Ft5ist8bX1exZZAQCCRS4XOXmB43/thcgAtksvvTT8Ya8/5M1l3cwlcMgBRwfLrXdcH2676/pwzmlXph6PGjU6vPfBO/E+3TXMMtMsKW/48Gix+eiDMPtsc6SXImVGjR6Ztnn54PfeOb6gl9TyJdDsAVA4DmbOrGViNuWDkmfNaMhT4GYKUio1PhPSjhA0+jqpCWzk462rLuboIV8MqR4QUVu5bivHGTp2Ozf0GLR8mGPgJmFo+Dx8NdcHYYqhHUP7z+JUbSH6/i31ZhjTYWTUnsWYgRGoaNH434EtwCR5wGRNGRi0uBFkvztlaObsl/OBnpG+fAZp+3zOWkN1AyuLz/l4Aaa2tKs97YyOGjwxAiXBon+KC20fwDRQhGlKu7R3IFPoGfV4YAFIGsCsRbR9eGxP3RIA1J4HZP6uPA2xxTnQBgAsqfVIoPsMPcJl590UZ7H5OLz+n1fSy8GXXw0JSy3ZPbp5fBduuPnKsOrKa4R/XXFf9UEffvT+YcYes4SjD598wXoFwRdxYJlllkkDqdynhJPiryoWqdBTXp5y8iI6YMCAFGWgx4w9kv+wOvxu/SZ85k/4m3V+k34rl1xySXrpOf7446t/N16C/A78jmkMmYgN2urbt29upqxbqARefe2l0P+gXcPsv+oZ3nn3P2HHbX8f+q2yVtht7y1Dzznninlvhb8dfUb10T0TX4oOOeKP4a9HnxmWWHTp6vzyoeVKoNkDIH8UmqVsthUHjykwz5rRkKLfeeedk39MHmWq7vq2A2IM1KgcdTyxffO2zoF7XOmRhx9J4WW8ideV3Og7zjgyfLz8TWHGDR4LXT/sE6Z8ecYwuuc34YclvgkfD7s3DJn3q/Ddm90T9AIi8OTB4niYe0ETbV0GKlDGLAyMlAVr8oAc066p5ASE5k+nPpo3GkDnTzk+g86f+nxXhzLWynvYZG0fGPWg0h/bbcvwZ3/1eEAZzCNGI60fqGS+AoVAz77adgzqBYW0iPIBLwBUr2S7PHJjmnds6impdUngk08/DHv23ybMHX1e+yy4aDzXMdRPvN57z7NAOPf0q8LNt18XTjvrb+HUuNx8ddXvcOklVwiPPfFgXAZONg2gkC7nnHtOGPlDVezLabtOm04MX+Mnn3wy/X5y2Jc776rS7DEbTznVlGkfvwsDPsyCJKpBx04dw1VXXxWGfj80dJmmSqNzwYUXhG+/+TZ0na5r9Ul/atBT6fOtt90af18xNFL8bZQBINXiabEfhnz1eThgn8PDKiuuFi689J/h8aceiqb+eL+fZtqwzx8OiS/ZXH+qfM69KD0Q3SZO+dv5YaE+VT6mLfbAS8erJdBkAMi0NqEzgVT3spYP/OwkQGFWDlomI25Bwa233preivv37x+uvfbadLNjzjDal7MzLZWRtPIM2BAGxBu0NHDgwHQz3WabbYIRx7kdfa8sy8fNqGAgZEaS1eIoupoJPNRnRhEaTW/yTCzAJM8Eor7cVyOXK2cSqdlWze8Z4MymYoQzYGrX7vXQecHOySwL7jpFQCK/Dz97L4EW8AFLlmzqtWZCpRlV59cRoN6L59JoQdAH0oAbOS299NJJ0wfEgNbnERTtQ6tGa+D7R1FjlweY2F/d2gVhGcQAGviyr3UGQMcI0mgbQSj4cx6Fh1HWA8429WsfzAFH+6hTX63l6VMGQfkZ9hwL+NOmutQj5b6lLw38h5b5jDPOSNcdGHYtccwHvxOaBkSNj1BLEzPafkLbaqnln3z60TDdtNOHC/95XbqG7nvg9mjiGhUefOiecNnV54cLzromvZyssvbC4cOP/5sOc6vf7RQWnH+RcOTxB4cbombQ72JyJbH/asb/q/k99w38SbabP9s9hnsDLV9OGf7y90r4y3l5PcMMJS5mlkVLX3eOcw+fdPqx4cxzTowvyNOlF/7V+/4mvPjKs2H/Q/ZI98i/HHRcOsz33n8nvSz/MLLKWtLSj730v0oCVba1RpaG0WiTMhOIOHRm6rB46EtmzZCMcgNQ/NCES6GBc3MzEu6aa65JgEOzZxTuW/Gtl5lDGSZJ2kVgBWZOPvnkVJ836b7RvAEmJe0AhJpla85IkgrX+FOfGUWYYAAsDZaRzpUzgeS+9orm1JozidRoqtavoGiNNdYI++67b4rrR3sGkB2/gQ5ACewBMNtoz/L2QYMGBaOpxUckE3H4lOf/4QECkMCvfWksaT9BIBDP5tlvIgD7TNMHAMFf1gAaKGKRr17+Sj5b5+/WuTxTr/PkRUIf1UuzSLPnO2hWX9YsOmcgjxbQAvbApn1ykGpCk58HuJCBz7SXrjP7q6cxE/Oda1i7RlcCOKO6K0evT0j7YDLHupyQ/Vp72UqAX7Pf+ulw19t0pbDFDuuEmWacNXzw38FhpRVWiy8SP4bV1l0irL/5ymGNfuuGeeaer1o0O2yze/QZ7B5OOHnsgRfVBZr5h1132zXcdPNNSYvYrXu3Zt7b0r3GlsClV54T1lljw3DztQPDcsusnJ4BTz79SOg2fffk+7rRBluE6268InVj7TU2CPv/8c/h8GP2Ty/Wjd23Un/TSKBJNICTOhMIXxYPb4lWLiemYVofD04Pa7CQQY22DzD87W9/S2ZcmrSvI+DQ8HBiphXi2yW8ikViHhH6gB+ZWURyov2rWRYcVc5IkstWruszo4jyBxx4QJqDWL9otGh+hMzJfQVCfHAqZxIBhPVNYJjDt3iIZj4BHTRegA8wMYMmjWCEuqwZ88AEeeCJJox/pH4pR3MHkIApDaO6aeHsy7QExOwD0mgDyZomzXGANdt9d3z6kc2wgFWSB8xst83akh/ioI+pmaz0L/sSAjhaV2saGvDmvGtfPRYaNtcSiKUJzBDruPQV0Pqsr7SeyjRmOvTQQ5MvlsC+OXkJMI2h43Dcd9xxR7g4OuYD17323itdK46ZlpBPrPNiRhkvSDmBbuDvvDHJiz1J092U6fPPPk/mRjA762yzNmXTv2hrnTU3CBaJL6qH3pAvv4iho7pXX1e2XXT29eGrr78KU3aMrgPxWpDuuqlqIIjPV110u1VJRQITLYEDDzgwWY2E7WnqlO+h2l1r9fXDGWefmEbHTzllnCM9+sQuutBS4eQzjgt33Xtz+C4OfDpk/2PC4Kj9k9ZbZ5Nw+903hX+cfnQ49IBjUl7507Il0LhPt59lA1ZAnAfaxMwE4oFIUyVVPpBpm4AZLRXt0VVXXZXKeIBLQhYAlBNPPDHNQZy1OeoSxiCb9zhP52DReV8P3py0X7OsmH8com1jWqkt5RlFwBuwzDOK0DrS0iy15JJpt+m6TpfWlT/OXJ++2s/xSXkmkbx9XOtcXwYrcb+WWmqpIG4hcADIgIw5FbABPoAEKMiVjOxrG9DWhwxTjhmMgwrQBJiUAVRkBRKTj1+sz3dwrj1tAUUABtL00XWRzw2564fzrG35gFBybvgZapsm79tYr/4opz3Aqax91cGUq3512GZRNrcBBJUBiRn8aP/URQbTxOOyluyX5ZkyGujPM888k34bldW5poC6RKO3YwzkK2wHOa6y8irh7XfeDh4iroUBAwak65CWm5Y0J/Njg3FrbgiAMv8+chlr2l3nqWZyvOSSj9m6+nM8RzTBOa86v7JM/Oza4nLBdYGf2i4775LOfc22Jtd3I4BrSzNMP0Nt2ZMt75NPP0lBnOvqgHM1OdOktt/W9ueWxE3J/UfAfy+zTZXW/80mwSKtt/bGgTZ85MgfxnJpuOHK+2L0hc/DDFET2L79/56D9jnr5EutGj0V3+tGF3FqoEkAcFJnAqkURX7oyKOxEbQZiPD3yn58+YHEl4r/G5MaUPBAyvsDK/uusMIKCRD4YJkHOO+b19qprSxorJyRxMO5ch/7TeiMInl/mqc8E4g8mp+aM4moP5f3ua5UWcaNFtAY/WdqNz8yUCaoNE0RiAM/krLM6pI6gCGoAmsATDgIZnSaOnJVF2AAd2QBxDLsMesqI8+xAMtuMRyLGyDZqhuUacda28qOjOA2Kq47xna7xHLON2ADcuoDleDUuZUH9MAfTZ869EV9+aVB32sutIlgVxl9kezjuL6LxzN/HGDSmAl8kYMEBgF6Ti+8+EI45eRTkol4zz33TNm0gWZ7OPbYY9N5o80ldxrBymSmGZprDxv7cjGoLYkPl89z3k52+RxYSzmv8nPOq62Mcvrl3HopoKnVZ+d+1RX+p6lUrqRxS+Dpp59O13ldpSp/43WVGVf+pO4/rrrrs21S229p+7vX+E3QRHvmsKak8Fz1EVYDl+kUBwJZaqYe3WesmdWk393n3IOPObZoGhtT8FPEm/fkfX1sgKPLzv4e/DUToPEQstSWgAPNUn1uIjXLAh1AMq6UtVtZk6Rs5Ywite3rlDimrI3MZbSvHoAyrjSuU6o/kjpqHrM2yQuUMNM+9dRTScvkQQ6u3LTst1Y0NfaJAw30j2/g0LiPWH1+sKDL/mRDI+g7mKNZA7Y0eLRtboK26Y/PyTwb11P83C99y8dhO0hSD9CkiVS/z/qrDttyUj/ABB352qiEzCwDebSQziEw1R4ZaxtUkjXwpsm1raa8cnuTsuY/afAMH1WJnCUaTjPUyAdNJ5xwQsr3YqA/jtd82F5ygDiNtD7brr6DDjoowR8ttRHltM5Zq5gqGs8fMmIKnZR07z33phAkzp2+uQYMzPr0v9+EPXbpPylVt5l9r7vx8jhJ47dh3/33bTPH3NoPtM+CfZK7hulFe8/fO06R+li45MIrw1F/nnwhhpqTzK+94fIwpv136QWWgmbHnXZskO4Z3UyJUdL/JNAkGsD/Ndc4nyrhqmYLWatTMz9/z9qX/H1c65plxwd/6gJMNftXc4aQmm0CjZrwp0zN9mvuV5/vlfCYASvvp58WMAQqjJIGfxmuAMRzzz0X/aZmSLAHEkEYDZ8floc8qLO2DYABGT5ooEW9ku1gktZK3Y43A1qGQUBoyf0FRvYDaBk0rSV9dp6BnwQKM7QCGfXnNvIxakef837qogElExpB/oX2BZKNmbgpMN8y+5qySz+MCHcMEqAz24NwRPJMQbhpdKk4NH4HhUarc6/I4Jj7yofVuaABBIpZO563N8Ua3PKnpaUkT77AXio+DVUjq5uiD6WNIoHmJgFuHZMaRseLrXtZa05cV/g1s9TlkEet+Xgnx7G1CgCcHIJrjW1WAmH+zEQKniRw4juTBcACGL4rC56y5s92mjW+LbR+IKpTvFmNjhBHc8d8a+YBmjx1grzKJQObvKzVzdu1Bd4y9GWolA8i8zb9y2WzryEgBVFA2gKaACVYBaKOhYbStk9j35aO5lj7qqexEv9Y/TBIg5+ofpDZBRdckEayi3F42223Jd9ZAGy09ZZbbRUGR/M8vz77gXX9ZMbPyYhy2ksASBZ/+ctf8qYmW3th4Kfr2jBgar7e8yUAHF8H/nXTFWnGAuWc/xl7zBy223K3En9sfIIr21uEBCYF/gRjPv4ff4kuAZ+HqafqEn636XZhh232aJDjPuWM46M1ZIZ4D20/wVO/Pf7Uo/GFfkicJvG3DdIXlUwz7TTpBdi9sP++xWLQYIKtqKgAYIUwysf/SSBDnxwA5DtYAhP87gAYULKNb55Em8bvD0gJ+wNMaNkAALABcRLNmv0AmXwpt5G+/PwnA2Al2AE8i7a0rw5aSP2RDyjVr1376wsTqnz9zj6D4BWMglbQR+vnGMGpwRTq22rLLROcab8xk9hsFuAsZXn67DgE7gWujidrhg855JA0ypcmoFITzeSbk3A/4FYw7wzSeVtjr4cPG57M0rR+P0QncyBY3/TBf99L52vHbfeM7gXfh6eefizs9PvNwuUX3pKCNde3nlKuSKA1SeC/H74f9j1493D0n/8eZ6pZM/i+7S4bxqgAS4bFF6nyHf7ok4/CrDPPWv3S7viNdu/SWXSDKl9j970fx4iH2il0jffH4THgszmxR8bp3kaPHhU2XG+z+Jv1+ccwfMTwJELAaXaQnNT5xZDPwlw9540v3h3C3ffdEnp0nyneL0en7yPifkOHDU1TLdqHP3X7eH/9Ns60k6ecy3WNa71jfJHdcMMNCgCOS0iTsK0A4CQIr63tysTKbAsmfAZMYIsGC8CBLGAFpmikJMGf34mjUYGafYCb/WkFgRtgzGCY5ZkhzxoAWXy2X4ZCIJoHgWQzLYDSvrLaYWbWJ9Ck377bDkztozxABEhAioYtwybNG7NlTdNq7mNjrCvBr2b9jqdmclwZCGtuy9+bOvRLbvfss88OG2+8cTAF2cSkmaLWb83V1k27brT+79JD6oyzTwin//2i9PnGW68JDz92f1hrtfXCer/ZNEwZrxEPtjPOPSG8O/itsPQSK4Rddtg7XZ83335NeOChu8MifZYIm228TdQozhSO/tshYd655w/3P3RnmHOOucLGG2wZzrnwlPhA7Bp+v+v+cXqsOVOZX806Z5r9Y55f9w5/3ONPVZrWt14L/4q+eZ9//mnYdKOtw0rL90u/hXMuODU8MejhCPDTh+233iMsudgydfb1qBhQmmZT0N3DDzkhPbQnRk5ln7YjgUf//WBYfNGlEvw5atfoJefeGGaM4GUqw93jFG7t2wt8PzzsF2P2mc5w34N2C+8MjtN9xvv0Br/ZLOy+8/+F326xarpvzDF7r/C7TXYIx5xwcAqHNCRC4HZb7hpuvu268MlnH4aN1tsi7H3ADlHTWDUt5nzzLhhOOv6ccOiAfcKrr78Y86eO7X6Z5hV+ctAjCShXXXGN8NQzj4V/3XR5fEHvEnrOPlc4+YTzwoGH7pH6EYcUhpuveTBu++X9rLYzKfD4XL3mCk89+VRYZtllaitS8iZBAgUAJ0F4bW1XDrmPP/54Ai/aNzCW4Q1ogTIQwywLnAAe4OL8T9NHu6Y8WHRDUpZ/IA0WTVylj5/y9gWZ9gF1eT9yt00fAByQo7Gzj3LC7sinAQOYRrnaLg/UaZdGTV4Oag1OLdpSzkAXSX0lTZgERo0clULT3HPPPRO24zhKL7vUSuHya6qCv/8lzsvrIbflZtuHS644J7z7/tspSG3/g3ZJWg4msdP++bd4fqcKHeJLw/W3XBn23GW/GO/svvD7/tuGf11+T/Awfe2Nl8JO2+4VTjz1yDDw4XvCvnsfljQZF19xdvjzn45LZbp0mSbs8/uDw6VXnRcOP3b/8Lejzgx79d8+rB9joi3Sd4lw9F8PDgf2PzKC4bTh2hsuC8cOODU8+9yT4dAj/i8F062rr48+/kB86PaIc6+uHcxNXFKRwPgk8Pbg/4TZZp1jrGJZK3f+JWeERaMW8C8HHR8eeuS+cNHlZ4WpImR9EAOc33zNwKSB22CzleKLyW5p1ptTj74wLLrwEmGjLfuFIw87MfRdea2w3a4bjVW3L+7ht9z9cHqRXnfTFZJWsNv0PcLVF9+RQsXstOem8d79bYTNtRKIztVrngSNN1/9UBrlvNVO60Ug/Heqd9PfbhMHf+3zizbGl8HthTtJAcDxSWrCt5en24TLrE3tAbokaw79Bh2cd955SaNHKwXQgBsgY2oFWMysAMs2CUSBK2ugSDtIA5djAdLwZU0iTZx9LerNC6C0r3ym6Lxdu/KttcGcS+slRp669AHQzT333AlE9QdsglUAaQGsjo+WUL1mnhGIOx+7fUqqvwSuvvrqNDq55hRj9a/hlyVp1cQrGxnh0pylHibvvf9u+PXcvRO8/WHX/QL/qBvj3L2/nmveeP4WCGPidbFnBL6dt/9DWHuN9UPfONF9v98sFjWEb6cGdtn+j2H1vmuH+x68PUwVYVF8tNE/jg433nJ1dQd22vb3SZMydbzWaVMEyJ2y05Sh/96HpDKC5N5x1w1hz933i6P7vws33HxlKv+vOF1cXX01o4K0x879Q79V10qfy58igfFJoNecvw6mMaxMpi+cfoZu4eXXno8vJZumTUssvlzY75A9w/MvDAoLzL9Qyps23XN7hJdeeT59n3++Pmn9WdRiL7Tg4unzgvP/Mh7h3L1+XW3NGRPvseICfvf9N2HDLfpFrfVs6UV/dDQn5/T2u/+JWvTpEvzJM33ik4MeS5vn+XXt8XLzvnWthS079dRT69pc8idBAuOOJzIJFZddW4cEAFReAJz4f0x7EnOpWFZMqDR5NG/KMEuCQGFg+NMNHlw1d7BZR2jraOUsBoGIQ/jKK6+kqelMT2eEHM2dQSIgLtdhrSyzL1MukzJA0xboBJ/zzDNP6gtTIOgTBHyZZZZJgyp811/lgSKtI/AEk3wULUDScRiEAUhLmjgJiL256667TtzOdexFWzfrLLNHM2/V/MxA7esYpmbaLl3DGn3XTaGVuAjM2GOWVMP0Mbi6+U1B40wzzpzymIk7R7MUrYiUA0Fzeu8RzbFSh2hCq0yzxIecNP103eLLSHw5if5S00//v5Hh4qV98vlHyTfx3NOvig/LruG0s/4WNt1mjehI/2EyS9fsK98qiQm4pCKB+kpglRVXDy+89Ey1Ro0P4IDjD4xB2duFFZbtGwY9WwVajz3+YJh9ttnjC8+a4cWXn4uQNjr5AQ6OLz6//nlqw3btqkKmzT5bz/D4kw+nLrzy2ou/6Eq7dmP/Ht5+983w4CP3hluvezi6Y1wcYsTQkMAw1uclfKEFF4sv0UOjCdn99MfwwotPBxApdagRVPoXjdWRYTCI+/fHH31cR4mSPbESGPvsTmwtZb82IwGAt+GGGyZtGXMwGGM29fBlLqDdoxkEUcr6LA9sSbRv4BAIWgMtWj7aOjcQizwLk6410NNGBjhtATn1q5spV7gZ5cEqbR8zb9YAajfXof78OZuW7aM+UGgf9ZQ0cRJ468230vno2avnxFXw817xCojnYVR6mAx69vFwfdSsHbzfUfE8zxwW7rNo0j5st9VuUeN2VbjjnpuSXx9tw5133xi2iKbhv550hJMeVl5xtXDbnTeEZZdaOQ0mMd1VnwUXrXff7r7/1rD0ksvHOq4P880zX1h79Q3CyafH6bHeezsB6b0P3B7zFww0MZddfX644Kxr0jW+ytoLx0DmI2vtK+AsqUhgQiUwx+w9o2vC8cntIN+jjI5nyuUPeNiA/mHD3/WNL8ffh6P/clLoHX32llxsufQy8v3Qb1PszZpTHx6034Dwpz//Ibo4nBu986osNu6HdSXa9Tl+1TPsuPtG8V49JkzfdYbwwYfvhfnmXSCceMqR0V9vnqTZ3iP6I474YURYoPdCccq5DeOo/htilXXXW1d7OV9IsgcHDoyhsrbKWWXdABIoANgAQmxrVYA6seuYce+///6k5cjQBghpBcEU3z9wZuGLNSpq2MbEh7KyEu2bheaNiTffeKyZZmnqfLYASABoLd/nbEr2WZ2gUh4NoHrl53I0huBTWxlYM1zqG5NwDkuz5M9T9LW189oQx8v8OyHzVNfV5v0P3hWWWLFXOn8zzzRL2Hm7P6TRicr/cc+D02CPiy8/O15bU6WHovy9dj8gnHLm8XEwx8lR6zdrOPXvF4bh0aT/15MOD2tusFQy7/KRovnzjMvXm33rSg8/en9Y+b6Fk+bw9H9cnK7t3aPpli+hgO7McvvudVi8JqeJD9FzwmrrLhFHWI4Ja/RbN8wTtS119TU9DCf+eVhXd0t+K5eAgVEW9zj32Jxc02efdnn4Nt7jjOzN6fBD/hpfsIfHF3T3wqrH/aP3vpw3hyUXXzbcd9vTqUxtAzOuvezO6rJPDKwKM+7a3LAAAEAASURBVHVFHI3vZV/7lb+hNaMmnquEvM032TZZadyPJX2blGQaUxEOCgBOihR/uW+rmAnkl4fVtnNouBo7+ZEDqHeimfbhOGPFs88+m24KtHMZrMAaWJQHvLy1WmctXGU/QZnyluybR4sH9uwvXxl5zAEjoqbu+wh81tpTpz6p0/5uPLR6QBCUArysOQSFyiunXvEJv4+AyP8P1NJw2l97lanyZleZ3xo/k+nEzATSr2+/FPC563RVoYFqyubyyy4Pb7/+YYPMBFLzYZfbEnKCz1Nl8nLgupmQc7j2b5cLfzv6zDhKuFcaJVlZn+vMC4XrsTKR2ZQd43Ufr9vKVFdfK8vU9rnMBFKbVFpXXpkJZOzzmWcCqYz9N/T7oem+fP8D949deAK+lZlAfimsogH8pUxKTj0k4AHoYWqwxK+jydUbmllC+Oh52NK45RAq1nkQh/2AlYUJVx2ADKxl8PNmKZRMr1690n7eNpP2MEKbBPpMPfdBjHEngTUgR9PoIW9wiQEdfAj1A/gBPmUkEJqXvC2DKj9G5SYEFFKl5U8M9/NOGlBTF/w1tIgqNR2VddeEP9tqglpl+fF9ZjarmVwftdU5w/Qz1CyavtfV11oLl8wigSKBsSRgQJl7+MgfRsZJBaru42MVKF8mSgIFACdKbGWnLAFAZzGVGd87mrbk5xfjQ33+2edJK8hcIZ+GDQiCLg9QEGhtfxoTD0kAB8aMzO0YJylX3naOxlmzqG372qY8/z9tAkkQaeCJAMi5HL8+UEmbSCMI8CoHkWQA1RcBi9WRNYqpkvKnXhIQ9HmdddapV9mWUOjS828KQl6UVCRQJDD5JWCAnkGCSyy5xOTvTCvpQQHAVnIiJ+dhJECLJkNQBrQsOQCxbSLCDxs6LPmtgEEaQokG0AAQcEgDCAx9ZioGZVIGsez0DOL4WIE/voYZ5owwVsZ2wAfkvontgDp12CdDnxHIympTe4DTer755ksjifXZfiVNmAQeeOCBcPY5Z0/YTs249MwzVo0obsZdLF0rEmgzEhCcvwBgw57uAoANK882WRtYysAEnmom0xBNE53kmVclQJaTz8zGzLyg76233kom3a4RIkdGkJPUnTV8IBMojooA57P9BZgGk8y6edAJsGQKpDU0GMV32yXgpy0ayVwHmOzTp0/aX5l8PD6XNH4JfP9dlYa3PlO+PRFnDRg2Yuj4K23CEq4N125+8WjCpsfZ1H/efC2s2m/FcZYpG1u2BNzPxOc75oSq2JKT82iaw8vvO3Emn7XXWf0XYlhwwQXDI4888ov8kjHxEigAOPGyK3v+LIH6wFIlGIIuSR5w69mzZ5qejXbw7Rj/D7BNF53rDd5QtyX75YHCKUBg3C879YM+GkGaRWsL4LOPQR2Sm+zwmNc+7su8bMSvfuSRyksssUTKB4z1OZ5UaflTLYH77rsvLL/88tXf6/qw3vrrJ8Cva/vkyvdg+T66EawbR+82p7T8SkvUS67Nqc+lLxMmgaWWWioc/9dj08vqhO3ZsKXdb59++umw9s+zIDVs7RNW2+Lxflwz0QBecsklNbPL90mQQAHASRBe2XXSJJBBK8Phj2NipPmf4VDNeTsoky+EDPijrcn+fFlzA/AAHfDjw8esSzsIMJmEtfGj/SJYct73PYMlH0KDTirbTF/Kn3pLAABuvvnm4y1vbs+NNv7llFPj3bGRC3h54BrQHPvWyIdeqp/MEugQw7P07dd3MvcihKOPOjo8FCM6/O2Ev032vtTWAYoC1qKSGk4CY8e5aLh6S01FAhMsAaZiGjvmYCZfCdSBOODHPPfTzzBoO4ADfhafmXH5Hs4UgQ7k5ZHFtnWJQDhzNEHTFnrTpR203dRx888/f8rPIDrBHS87xIj/L4QVVyymynIpFAm0VAlcf/316d747jvvNstDaBdnEin36IY9NQUAG1aepbZJkAAoM9KLFo+Jlo8e7Z8E4vz4e4C76B+Y/fmyJi/7FYLFdhEI1cXU6zvo+zKGhQGRPoNDoEnrx6xgXW4sE3/izP4x6yyzBpqMkooEigRangSefebZFCGBG86FF17YbA/AS/4Xn3/RbPvX0jpWALClnbFW2l8AZuGTR9VvmrhKAEzav7hdmmPOOQKfPT6AwE/gX+FdjOw10ldiBgZ7ANC+YgNay1c/rd/SSy+dILHAXxLZRP+555570hzRE1LBa6++FgY+ODDGa/y6zt0++fiTcW6vc8daNnz6yacNVlct1ZesIoEWLYGLLroovXi7p956663N9lhYbAbHueVLahgJlFf2hpFjqWUSJUDDl7V8AE1YF1q7zhHYABqYy2lUnCN28cUXD7POOmsK9sykyz/w2/j2ynysHjcyg0GYefkDGoEMLrNpONdX4C9LdeLX/IaOOuqoeldw8EEHh0GDBqW4kfvvv38477zzao3tdc4556Qy222/Xb3rrqvgWWedFXpH6K9rKinXTElFAm1VAqeeempYd911g1BOxx13XLMVA2uNqA8lNYwECgA2jBxLLQ0kAUBGayew9L///e8wIj6Yae7kWZh2mSlo+3r06JGWr7/5Ok7nNjppDAEgE7LI8Z3ilFxMvWDPbCEZMPO6gbrcpqv5cfSPKeh27/l711sOd955Z7j99tvD7HPMHm684cbw+htvJE3siy++GH670W/jeX88tPsZyN5+++0AGM00s97664XPPv0s/POf/0xgaODGXnvvlWYgufzyy9NI8i222CLORzp1uOLyK8JTTz2VNL/77rtvdd+eevKpcOWVV6b8vffeO0zb9X/zplYXKh+KBNqYBPjXuS+61wrA31yT+7nBWiU1jASKCbhh5FhqaSAJ5EEfNHZiyuXgzTR5/D+y2dfIXmUt3bt1Tw/0ueaaK2kGhSPps2CfZOZVj8DUyrnB5XUDdbfNV/PYY4+FRRZZZILksPvuu4d+/fqFrbbcKsH8VltuGd6J4X/uvvvuVM+gCG7CUUjCs6yxxhphwIAB4aUXXwq77bZbgnouAieccEKcIWZM2H777VMf1HHooYeGpwc9Ha677rqwww47hOeffz5cddVVqS5/QN8mm2yStMM33XRTdX75UCTQ1iXA39r9sTknL/1++yU1jASa99lumGMstbRACbgRATprAz5o8aj/DeygJeTzB+gk32su9qvMa4EiaBFdvvfee8Oaa65Z774Ctq222irNG01bB8IOO+ywsfZ33nLaMsLhGmuuEVZfffXw+OOPx0DhbyaI+7//+79kzpfnoSB8i3oGDhyYYHC55ZYLxx9/fALLPPOMOk1V98c//jFNF1ifuIW5H2VdJNDaJeB3l++pzfVYZ4y/9aIBbLizUwCw4WRZampACXgbpbkDfcy9Uh7Y4TMzcEmTXwLM9DR09U2m3FtttdXSOQVt/fv3D//5z39SKB/bpDyPs898QaX3338/Ddrp0WPG8NHHH4VPPvkkaYcXjLO35AfCe++9l/w9+RS++eab4eyzz06axjxCXD1eIB5++OE0EOiII46QVVKRQJFAlEBLAEBRIIoGsOEu1+ID2HCyLDU1oAS8ifL3M9o3zdIQ4eDbGPuvU/RR4c/nod+7d/39zhqwa6WqnyVww/U3pFkquk7Xtd4yUXaPPfZIYEZzx8TPAd2o7Ndeey2ZhWl3e/XqlbQR999/fwpOK77j4kssHv785z+HXXbepXowj8DSa621Vlhn7XVSDDMm4DnmmCP5+TH3AkjXkJcHfoXCC9Eqgs3f/+EP9e53KVgk0Nol0BIAUJiwDz74oLWfiiY7viniSf+fvaXJmi0NNaYEWtspfffdd9MADxpBvoDfROf/ERESxPBrSp+V5m4eachrigb2q6+/GmeVu+6ya9h5l13CCiuMfwq4mhX9NOanGJblq9Cte9VUfbbLA3+du3Qeq/gPI34IU05VNQp8wBEDwm677xa++vKrsM8++4T7H7g/lR0+bHhyE+DMLhmckgcDpYyKP999+126jiqd3S+79LIEh/sfsH9FyfKxSKDtSGDo90PTb6Z7j+7N8qBvuvGmcOCBByZNJbegx/79WPITr29np51m2qRUqG/5tlCuaADbwllu4cdIG5TNeIDPSDA3gLYEZM3tFAKsV199NSwffe0mJk3Rboqx4E8d8mrCn/wMfz737ds37L/f/gn8TzzxRFkpGflbmdp3aJ9Gglfm5c+1jfwt11KWTlm3VQmInGBprskcxQcffHCy/sw999wTBH/N9Zgmd78KAE7uM1DaH68EPJyFJ6jUbBoUUvl9vJWUAg0qgQcffDAsueSSCdoatOLxVGbO1OYwb+p4ulk2FwkUCTSwBLzkLbvssilawO9+97sGrr1tVlcGgbTC8w6YJtdCnJXalNyPLOb8veY6b7euDezkVe6jXOX3pviszZKqJHDttdeGzTbbrIijSKBIoEigySTA7YM1aJtttmmyNltzQw0KgB7SZWl4GbSkCxCISRnIct9rfs/5eZ23WzPzVn7Pn3PZsp68EuArxPy7yiqrTN6OlNaLBIoE6iWBDdbfIKy/3vpp2XijjcOhhxwavhxSFU9vh+13CIPfHVyveiZ3IX7f4niKCdtU6ZRTTknho7Ib0rjaFeB+yJdDkj8xk3VzTw0KgM3xYDmz8xezzgtI9dm6pCKBIoEJk4CZNEwbxWevNaVyP2hNZ7McS6UEnnjiibDhhhumEfhGwQvgbpS89Nxzz7WIsFrHH3d8CjklrqfQU743dnJPOOmkk4JZiv71r3+Nt7ntttsu5EFmK6200njLT+4CrdYH0IkzCvC7GDrEyMLRUW0sDIQ5Y4USoVUSToQv2ZifYgT0KdpVTYNTw9dscp+g0n6RQHOTwBVXXBGYgFtTcj8oqUigNUvA7DvzzjdvOkTX+zHHHDPW4X711dfh73Fg1csvv5xGy/7+978Pq62+Wjjv3POSskQ4LjMwAcdVVm087f9FF16UpnpkYcgvmeefd354I04ZKdC70fvmg991113DBedfEHbZdZexjqO+X8wcJMzUVltvFabpMk2tu91xxx0pRqnQVeKKCl6fEyC85JJLUrzavfbaKzz55JMprJXP5jEX31T69NNPw7nnnpuge9NNNw0gUTSLP8QwVAsttFAKhi8+qUFtc845ZzovAuwb7Giu9MYEyRYNgAIEDxs2LAWVHTVqVDpR7du3TxerQMEEb+Jon22XXPg/Ru3fyHghzxiDSs4666zV+3Xt2jWdTPHnLDnwsDlo7Qcqy4MiibH8aaMSuPmmm9NNa6aZZ2qjEiiHXSTQMiXw4YcfJoXHW2+9FS6++OKw4oorjnUgRxx+eAq4LtTKrbfemsIsvfTyS2HQoEEpFudRRx0VXnrppTSTzgsvvjDWvr68/NLL1dEafrFxAjIuvfTS1A+QxIwKvq655ppwbZzeMYdusj4lxg/dZOONw1JLLVVdew4L5jldc+nSpUsCr/wMf/aZZ8IBBxyQZhBaeOGFw3777Rd+85vfjBVa7Pzzzw+gbaeddgpHH310grr55psvgSNAliemKDAkM30GeHjDd2nPPfdMVkjHAfJeeOGFcMYZZwRzogukLyC97/pimkygCSwBt7qEQWus1KwBMJtk8gnL34cNHxa+jm8rAE/0/6+//jq9mRASWAOBQyMYjolaP/uYP9aJkZiDP/744yRU84QCQJrAfOFYG3EKBm2bbbbZwrzzzptgMI9Ezf1RX4FCUiipLUhA6Bf+MB4eJRUJFAm0LAmYR9vzkWJD4HUhVSqTqRTBBkAUoL1yxg2z92yx5RbJ7xcU1ZbOPPPM6lmbatte3zzPc0obz1ZaNoBlEfS9Mvmu7GmnnVaZnT7bt+aCC6Scb195gsXT3pkiEoyZQ1ziywfS/vGPfyTwFYT69NNPT8stt9wSVl555QR3yq666qpJpuozDWVmBLMaqYNMBbOn1dt2221THfYzpeXGEWLFRL3ooouCF2tWSzLecIMNEiwq11ipWQNgzYNG1U6aaZ6oV10kgC1r6PgGuFBmmmmmJGjmXRrAYdEE3C0CII0hQTMJZy0fX0D1Aj4gaJs2TD3lbccJdXJ79uyZtjuBHFDzxaSPLqh8wmv2uXwvEhifBLzEUPW/+tqroUf3HmmEm7dFiVPxcssvF7p3qzs4a33KjK8P9dnuRuum17NXz/oUb1Flpoj3Eb/jkooEWqsEmDOzCbi2Yzz55JPT/YbJEaxU/h7mmWeetItnal2DIf559j9rq3aC8zbfbPPQvXv3pA3baKONQqcpO4U9dt8j3HjDjWHjTTaurs/3ZZZZJpxz7jnVeeP6UDMQNA0b+Np+++3TlJSLL774WLtfeMGFqR/mK5cokmgi//73vyf3splnnrm6vNmHKIhqJgonrGDWI4lSieKKKV0yqEVKrmiRRRZZeJEU5oYG8NAI5IfEmY0MuOvceezg+GmnBvjT7AEQnDHzAjMPSsIAcdS5oA3ASSBQXn7DsVYO3QNFApbY2PssuGD4LOarE0CqX9mp4ptRrxh0mIbQRW7aKJpDDrS0hU6kH4ZJ5J1I7dV20lND5U+RQD0lsN5664UF4zV58kknpzdFb+ZmPeGszQTw7LPPjhMA61Omnl2ps9hTTz4VbrvttvQ2W2ehsqFIoEigxUrg7rvvDgMGDAibbrZpOPOMM6vdppr6gK666qrQoePYaKJfwk5hABo2z+Trokm4PgMz6uo/ePSMz9a/muUuu+yyZBb2ci5RIAG9yy+/PI1EFpKG0glfLLbYYmkwDUbAE9hAwhMsiOqigb3wwgvDPPPOU22RTIUq/tx8881paky+ieqlzBo8eHB6PlQUa7CPzWoUcH7jsAZ2BPDKK68ke7sTzaZOPYqm82wQNHx8G5xIJ8gJUIaW0KIuGrshQ4ak/VZYYYWoZp05gRuqdoJo94DesKj2Vi/tII2ekyjiONIHlIARgN5www3hgQceCO/HOQkzyTfYGSkVtSkJeNFgduHQzN+FA/Fxxx2XXkCYW5li5BnQ5E3UGyvfHeYKN5qaZZgcDjnkkHSDckOX/B7UT3u34447BmUmJD326GNh3333TWYJb+MlFQkUCbQ8CYzPSsX0eXj0A1x+ueXDwDjYwvPvrTffqvaly0c8vnpyuYld14Q/9cw626yBBtPzHIBZ+y5/YhOlUF3w90z0D2RlpB3MCRcIQWNAx5prrpkGZ3hxxxT89yiXFllkkbD00ksnUM37HXvsseGf//xngjkaxEsuviRtIsdKWfosuoJnAtczvobu99porNSgcwE7KROb7EtdCrI82JhhX3/99WCkjuQBSBuIwKmHlWWi9XBzoebtNHJgzskCeMy6tqnHg5Mq27B3E0obeeMtwAORjX6aqOJdNJ5Ao6CYgMEkB1NwmdW22XSsn/ph+/wLzB+6dK7SBtZ1QU2sXOxXeZHker744ov0ZuA71XTv3r3zpkleG20FfGvTbjpPtfVnfI3SqoKHbMoE64bWS+TsvDgObzuOLSew3ytCuuSceAP0g7NPa0mcjzn+inK/+uqrh8033zydT+chmTjiiDJa5z59+qS3Qy8we0co9GYKGnMZ0fGdt6222iqaEhYOh/35z+nG42bujZkTt5AGfh/esnMib87IlclvxmhfMvd7PDU6XC+9zNKVRVrV56uvujod658O+lOrOq5yMEUCEyIB825TanSdruuE7NYiytY0ATdEp90nPfNxQU4UVyw4NROfwvz8q7mt5nf35KmmnqrO0ck1y0/s97H1rBNbyyTsVwmNoI+GzYMPlIE3KlAXJMdV37P/HTik1QOEc801Vyr/2muvJcHT6HlogQQQ6LO1k8Kx1X4EzIwLOsCct4FpY/1MwUYJgx/tgksLDaCkH064feTdc889qb9UwOrLGsRJEEm9dvVwBg3eDsAsjenAhwY2yAXjrefGG29MbyGVnXEB77brbkkDWplfn88caQGM0VTS22+/HZg+aaWA/dNPP52gxPB5GjFvQJLQBYbLgxrwB3DUwRzJkbk1JFBmFBkNHxPA8ccfH84/77wYnmDrdA0zebi2Hn300aTt9gLjeuXeAPxd59ks4jcEmj+KwM30cPXVV4cl4pRtfldCtxiR5u21MvlNMDlUJte30X+udeeHg7jrglm6tjf0yn3L5yKBIoGWKQHzblfOvd0yj6Lpeu1lumaqDf6UqS/8KZt9Bn1uzDTZAZAmTwJkD0VNxX+jOZeGCVn/6le/StD2YTTzDo2DO8DXJ598kh6C1hnMCNx3+/msHIC07ha1fPKBI9j0gKQ1VL/PHqbWHSPBy/NQbR8feoARyasHJNrfdv1VhkYLdMnjowVOPKQXXXTRFCYDrDZ2oi4GVtKO0bQnMCYtD+0OFTaVPjA966yz0uAYFxVgMNpIXw33J8Oa5XO/aY5yvDdl77rrrgRqTItU3dTazpF2mOKZ6KnN/xw1T0Y+CTaqHfBQWwLq2YeD2ZN6XOrfv3+onOtRWABg/vjjj6ftfD+AkvNp9JZjb6lJSAAjvowuowEEfwMGDAgnR/MvAMyJu8E666yTnIaZGGivK1+elOPyAAy94Ejm6uWzCqBnji9SZG0KJU7e2bFZOaYGGr7K5Nr+6uuvqrOYglw3/VbrFw7600Fh/Q3Wr97WGj64R9SUZ2s4rnIMRQItSQLDhw1Pzy73tz4L9Rln138aE61RrSwY/TgPuBE2TjYfwHyzpb2ggTCS8fWo+eNvZ2FeBSdA7IcIWQALaBmMAdhsd9MGBmCMNg78IXLaC0CZU/u4DZDZT76RwkyQAM/++iA4tIcebQethwepOpkpmYD1w6ATfeoVTZJAzzZwKJijPnMIFcBRP4cOG5qbb5L1b3/72/TDueCCC5JzLC0PiGK6NqIIHBjGTntGm+Y4wV1t5XWY9tMQdWXB70EHHZRgkoYTVIIRa+flT3/6U6ofvJALCOSnIaYRzd7FdYQNIf/rr78+Bc00u4RQAxKw1E8LsGSeNBosJyZS/QHtTQHaud3GWM8+x+zhvKjtE0LBOSF32m1gLbk2abAfiBo6sn/wwQfDoXFkmJcQ5SvL8BexP20ioHbd8o81qIQ2z/nmv/LUU0+l/SbkD8flY487Nvzrun8FQL7P/+0TRo+qenmbkHpK2SKBIoEigdokcMP1N6SIG54JlAZGA9eVKDseeuihujaX/HpKYLJpAAEg7RltnAc8sy+I8gADdrRVHnhgDSAqD/Dk0ex5Q/g8wtxbEWw85IAAczHTLegBF0xgwjt0jCBnf7BHU2gbcDMEG9Al/7QIEx6oeYi7By/oowH0AK7sm/5NF2EQhIJN++QBKOrLEdNpdEBjU2gXHJ9jZxrmdErLw6wneCag5aRK+7dBjC0ErGy3Bmk1y7t2ADBNHPMkPzBBs0GJ43M+mJ1prRw7+THnqlN9zqHPHIr5VgLv2pIBDg8//HA6l0ZJGYZvgA2zcJ5nFnxq03WSk/qB4TwRaC0tOTELMNMa1EHLKtGuZs1rdirONzvaOjJ3LpjRc3lawRfiC8mAqD0EyK7ZWWaZJZnKXe/rr79+qtPv6S9/+Uvab2L+zDzLzPGaujaceMKJ6QUD6Hfu0jghCiamf2WfIoEigZYnAdOnuXc9lJ4HVfH++u/TP7z7zrvpue7FlWsQq4Z7mQEg7n9CtN0b3bAeie4xlBUL9mm8ARMtT6rj7/FkA0APIpoio3xpKjzUPNitafG6TjdDGPhq1/Dq4OmiT966oUOnqcOIqK+cs/uH4acRHydtW4cIaUANgIBDn9UBTkAKwAB14Aig0dApqwz484AEhMrKA4W0gICNqdf+wIfvGvAEnPI9XJnZbAeA2sj5gA888Q1UjpkWmDVmIjOaPBq0wXEQhR8GAPODWSr+YCQwK4FWmkuxjAAHwKitvPNywgknpB8ajSbfvAyy4IPsaKOcuzygIPtDAEP+mOBAYE2yqS3x86tpelSORtVcjznRZhrZatg92dI0GtRDE9UaEu2mxYuL8+Q6zCmHA3B98+Mjb9ekc5FTZRnQbgF99pGcKxpgLzNM8n4nk5oO/NOBQZwsIWiY7lu6X2C+tidVLmX/IoGWLIH333s/zNlzziY/BK48nrMzzDB9VNR8nRQ73FXcCz3bPKd9N/sGf2euLQZ1ZnegXXbZJc0Ywjd8uul/OQCjyQ+ohTTY5CZggAWamAYBBIiiufNQAoVg5vMR04dLH5ot/OeDOG/vFF+G2WfpEH49ZwxAGfe95elZwvMfzpLEC6wMAvGgy+bbrIkDfSDGg8/FAwoBEdijEZMAofYBiocjeKJpkg/w9JMGinYRzI34WdtHc0mzRSvI3JZNwJV+WY7H8fHFY3bWL33Ur4ZKAAvI0nRqm8mWkz+TopGhIOC3ESw83DIwkAUo5UPHZFhbef2bKw62AFvqNNiEydF5IkcwaHocP0B1ZdDIbcgHKztG3zymR21KeXv6Usef2sowN9MwLrHEEsnsTK58H7kNiA3VWpLrqRL+8nFl+fruHNQmo8oyytX8Ls9NsyHgT13SzrvsnEYnu0ZKKhIoEmjZEnjk4UeSxWdyHIVnjWes9F58DtP4eZH1nBJ6xXOTpUoZC0WLwZ+eAe9/8H6aDcSz+/aoGWxOicLprZ8tNc2pX7kvTR4GBgQJ30JDRqsmMeeBpA4dOoUPflwhDB0V4/SF6JvX4ado/psmaQNHjIjBoOOJp20bOqp72HSpd0PXLu3Gehh6uDEPWxvcwdcJBAFFD02mRA9GQ7ZpsWigMpDSvjAl8/tTTj0uMlqtmaLGZUTUEAJC8MckSgNF+wG+aDIdA4AFk+p0kTJ9qsubDdU1WFPvhKbaHvjjq+P7od/XOSIY4DquyqHrdZWv1CRpE8jqD5nSmpJXbVAB5IePGF5nH8bX/9q2uwmQcW2QVFv5kjfxEnANVw4CGVdNO+6wYzLF7LRz1QjvcZVtrtuuu/a69FJ3yKGHNNculn4VCTSqBLbeauv0zPQ8a9e+aXVDws9QWhiwuOJKKwYDPMyGxI2KhUPor5133jnN1evl38A5yhfxeD2Dt99h++SfbE7f3vP3rlVOjREGptaGKjJZqSihzBncHFOTmYA9UCygyGhOEAGSaIdAxEyzzhkGfbR4GP3jFFHr93nUBMYpVMKUifyHDf2u2pQrv2O7YeHfb04TlvzVe9UatQxJNCSAy3favoFxJKvPBkAYtAAegAv4ycBIIyjfdwBHm8ZUpgwN4QdRO2gfSf/9QLyxgEnQyLcwm4MBorJASVKfuIKD41sNbZl4bvqT+5sKNcKfaSI415WAbc1UV/mamqRKaCSDuhJZ1lVnXfuML5/MCvyNT0pNv90AFpOo8900WKSkIoEigZYlgZE/jEyDF/Wacmad36zTpAcg9AyLFmsC5YHnKZ91/aD0EcEA7Hmu0qrxhTYQkHnYgBG+4/iCSbik+kugSQCQ5sZJpWVj62duBV1OLH+mabvNHm57rmek/u/DlO2HRn8i4NcpjjI0KnJEOhoPf1Bhv9EjvwofDpkpjPnu9TDjVJ8mbZZ8ZcANSKPlApg0VSJ0C7BrbZtFcsEkjWK82Gi6gBtzr8V+YCcDHchzHMqDTHXwpQOL9gOxYIkPF/B0odL+WeTRHlJX6wPto9TYEJgaKX+KBBpZAl2m6RJOPPHEdPO+487mZYKZkEP3+y6pSKAtSkBYKM8o4MXlp6kBkMwXXmTh8ODA6Bb2/dCkYMl+xXv+fs8Ug9TzOOcpz33JALRbbr0l7eM+VNKESaDRARBkAR3AhOC/jXZ6AXzBIGibfsae4ZZn5gw/jf4itJ/ih+jA2T1GwO6cNGfDohnT0qFDx3RBGNGrrjERJkeP+ih8PHK50KvXx2Hp+asAC2TyCwBgRhaLSwcCzZYAvOzrIgdxo6Jm7se4ADW+A3z+aJcAqQeBfOWTJisCoeOgzaMZtJ1vHx/DyhkzgCMQdKHaN5uDnRL1CJlixKcRrhkmU19+7s+o2KZ9tG1tW+Waz57jm5SkbuAqmZmj93y9k2zrWydtJp/Hmqmu/JrlJuU7bXHHTh2rA2o6twZF9OrVa1KqLfs2gASWXW7Z9Ls2MIRvYEtLfq8lFQm0VQl4ZtKqUZx4Bk7OVBvI1RZpoDKvtn0m5zG0lLYbFQBBDnCiRRsYTbHMpbRkLjKQ1LFzt3Drc3OFKX6K2rUfvw9dpo/z8E45VQSgH9J+YMqNedSokQkWO0WToyXDWGj/ffjsh7nC7HN0DP/9oMpMC/r4B2jD2wwoA4OAjf8YaKCxs4ArC3CUcnvqz4ttPjsWCchJ4My2du08OKpMullDmcvqewZCa/voB58GmsMkg6hptI3GMa/z58rv8gDzpCYjfvMMHKDcd+pzIVjqk6jbOebWTHXl1yw3Kd+NGAbAQs1IBpp4cz3mmGMmpdoWva8R2q5DYWAmdxowYEAyBRuY0xqnkprc8i3tFwk0lgRo2ZhcjaL9x0lVkws0Vlul3uYjgUYFwHyYgjeL80fDVjXYo0MaXfv6Fz3jrBvRZ27YV0nrB6C+/+7bBHy0foAH8GWQZBIGRfKtR46OAw0i0L3wfNX8sUyt/NKyGTibcTfccMMEfNoGhd52gKB6AKI3njwCU572gKGyTMO0hjRn2hSfENjZX9JnsKmMfTNU5vh1oBNsMgUDSaZkbeZRrcpVAmOWWeW6Lu2EkdT6SKNYV5nKevLnyhk4BInmdyF2Id+Kytk9DBQxo8ctt9ySwsoYhs+HEcgKNMyUbzSwUbryJf6RF154YQI1U4eZxeW5CCkGzegrUMy+g0ZH3X/ffUmTai7gtdZaK40wzjOYqKe22UQGR39K/d46zpRBG6memm04V5yFnSfHK0SOdWtLp8QZQ1xzAmlP7gT6nHMhho46+qjJ3Z0Jat/vJ/8OJ2jHUrhIoEigSKCFSmDSVUp1HHi+mYIKgz5Alhh0zK22TR3NvO983Dn8OCKaftubqWPaBDG0f999+021FlC56aJmsEvcngEraeziDTsEwaSHphG4oM5IXLBFmwVIgB/ndGBBc9Qrmgr1ARwALyOMAIxZNIxAEiYDqOmffgLGDI1AD1hmQFROHfKsje4FOACPj6BRv4ADWAJRIAicQLDPnFr5BNLCaS8dUx2yrC3bQ5bWp2/fvmmqr9rK1CfPEHszT0g1Z/cAmPsfsH8ahm9Y/hNPPJG0q4I2g3qBpMUKBLa0rtbqE64FCALLdyP4mYoMqNWcFcQ2cQLBsNFfppBbaqmlwr777puuGU7BNWcTAZ3Ol+NmUqeNrK2NI488MmlbxTlUn/A1rS2RN4ftBx64f4Kvn8aShXhcKT7kp581VhOl3iKBIoEigSKBBpBAowGgvoEa0AB8aM7AGY0auHr9vxF6Rn8Xy4yOgDdDnIB66qTJGB6nUBsRl6FREzgihhGxz8g4EOTH0VUBndU5On7mB2io+LChwxLAMGXSMvFv4yvG588wcaBEQ2dhitY+rRDfPVHEwSJzLAiTb7v9gQb40x5oVF5AXZoCkKc+yXfHZ5HU48GctYfWNJPJgTWCpzUIpAV7NEYvN68u7SKwnJDEbJsTkJzYZC7F9nHIv8DNIEkQZ/2i+WO2X3+99YNAzGaiEIBTEueP/+N+++2XYCz3nRYR/JqCTsym+6J2TwLjIM9AHDKtTOriownUwINo7lwFQGSeTcQweqAsmZkEVDt3lalmG/quf4AU6LfGJOaVa2fkyFHJ37U5HCMn7d122y2cfPLJzaE7pQ9FAkUC9ZSAZ9eEWJLqWW0p1owl0Cgm4HwheZALmNz153ApvjN/Mlm9+d92IWJS6Nw1jpSN2j2wZ2nXrn3oMm3XNAIYBP4Q8zp3MSq3UwQr8JcHb0QzbYjauh/+G4Z8OSQBFBChCQRYYgNljaMBJ+APpAEy2jvbQSkYBXwGgVj00XcPVuXyrBe0hgAxm3hpFEEmUPSj0TZtIMDL7clTXj4NaILZWC9tooVm0KhoIWpoDCck0W7SrEoAamLTaaeeFrWfy1YfZ9Le/Dy7h7iFF110Uapa8Gf9lByfkWL8OcFev9X6pXwQZ1CGJOj21J2rYh465xI5uTYqUzYH21YZI7Gu2UT4+914441pFhBxHHOq2QaNI0ilJdWX1pjOPOOM9LLh2GhQK+dLnpzHy1Wgb9TQfjnky9Cte1Wsz5r9ef2119PLlnwvDXPNPVd6oaucp1hML47en3z8SdL2Kuu3nad7ev6559NvSj4Xgu49uodvvv6mWqPt97XEkkvYHN54/Y3qlwjzL/tdiz1Gky15gcxaeLMhsFxI7iE5tM2gpwZVy1uoqWmmnSZ8/tnn6cVTWfeLhRauGiD18ksvp3uNfC+PM840Y7RsfJf8VuW5Nyy9TJXf5pv/eTPdt+QbZGYmBvMs8xfOyYuqQVt8nd2jJJaHHPPsmaefSfca+QbZmQ1hyBdD0v1Xnt/ZYosv5mN49ZVX033PZ1aKWWadJb1Ii8+aE4uIl0NTceXfdGOdJ/fWJZequv9VnifnyLkSokRc15zcK71oVJ4nMWXnnW/eVKTyPC244IJh2q7TTtB5+v6779O9Q2WV5+mtN99Kzwj5dZ0nocaENHGOnCup8jw9+8yz1cqC5naeKFAE/H/yiSdr/T019XmiODEyWKr8PXn2zjTzTNFdrOo8VfYrFS5/6i2BRgFArXvQ5x/t0Gjy9IOguQFeTtjb94v3J3Bz1YjfkVHT16kT/73p4kjPKeOPJE7d9k0M5/L1V2m0LgikWRsdx2uM/ilOlRUBap7pXgs9u30bwWKlBBcgwkMf7AECcMdfjNaJ2dUC4tzI+LfJp81z0dP86SMzMlB043dzBDmOJWsulQWHAE47fP/UpT0PAJAHeoGo4/QQklzM6lVevgeZtfoMUmH6nJB08MEHp+CYNGPm952QxB/TjdFxOCdGJoPUPLuHY9h7773TdGxnRMgQ3026864703q2eGPe7P/Zuw84PYr68eMDCQmEhIQa9E8JSC9C6J2EHqr0DqEFEBWlKdUA0kUpghSBIAgIhBKqIL2odBAEG4TyU5DeWxL+857LHJsnz12uPHf3XLLfe+3tPrvTdnZ39rPf73dmoukcQAPbRRZeJO2nSTVPI00hmAZrrkkW25W/87HiWhiaQfA5fPjw9ALyQlJG9XhR9A1cN/r08fEjlWn6bRR58+tKw3m6RlOb0G6PGjUqgUs9DcLco2ePNEi68QGPPqb6vMNe7p4xUrw2YCmLjyniuuf9PSc+T/abBUibQPIHgI+IHLZ4X9De54Hn3UPE85fD6lDkY44Ilz9G8geK/YOiC0mWvF++OQ1tQhYfJxkoc9mcZw6bw1l7BkECyfkCj2LYnLZnLOed60c8bVX+uMppFMsmvSzfiGWbM7ZFRJtFpFXMD/wRz3ix/PY5Vgyby9FR18m5F/PL59KS65TvrWJd5Lp0LtWuk/ot5icc8d7wPiC5jiuvk3uKDOg/IPSKSguS68c2pUEtr5M0SS2uk7bce8m552vuPHNdTOl56qrrxE+cxSjfsw01Uv5vSQ10yEwgbnCwxYmfBszXtIdAAzpLvMFmiw3/JbfHMYe+mCn0m3ni2H7jvoxfWw1aMQA4YzQJu+HeeP3/wltvvB4v7vShR+/ZwnQ9ZgkLz/HvsMygCREGZkqNLGDx4HkYwQ2wA1QaffmDJForsOVr1hcEEPUwAzLH7WcClZavO2X1ggJ5jjsHEOgm10CACnn6DfI0fhpyDaovaWXIQOiYh8s+aQmvIZdG1ljqHCFcbhyKF6/44BX3d8R2rstiIwma80uzmKf6yA1icb86VUe5oS4ea822F2hbZxNx77n+QJIW0JR01cramvLUY1g9o9UTc3ctBVi1dCaQavnSrul4ww0ga4KrhauXfdeNvi5p5446+qh6KVJZjrIGOrUG7r7r7uT6c9rPT+vUfNub2Qfvf9CiUQfKmUAmr+mvPwsnP9bmPV78wIYGDggyuwIeMPZO1LgBhyXmjWPdje8d59eNc/vFsf4+j6DFH9CLh9n3448+SDDUN5qD9QTmBzhdz1nD9qu+GjZYeY4Ef+AMVNE2ARaLvH310Q7o1JHhKX+ZOU4Tl2FQGQELnz5lVU5fafPE+OJ4uSqTbWDIL2299dZL22BOOrSI0nF+wgI72wAEFDp/+zMUCWuRtn3yBijgq6tFeYrwpzzV4M/+poDKV2N74U/6ytHW2UTAh2l4+ACC66bKKp9Sal8DzGD8PvXWribMt/Um1T6+6q2MZXnKGihrYNIaKIecmrQ+WvOrQ03AoIdmjcZrpmh2yRovMLXMt+YOT73WK4z/fIZo4o3zu84yIIGbOMCowV8vQlWENRDXe8a+8fh04dtLLRb+G330aOSAFdCkaeNPAaDk4TdYIxmqgA31NtjKplgNPrjxG7DJByjQ1vWOGsuPYlgQwtTgmDXNIWHCkjezkbg0nDRl0gSm0vRbfGVQD9IWTlrZLOC4+tEZBHzyIXG8lPbVwKCowWXaLqXrasBcnt/Z8jtpTs9K84znJvukKSF/QR9yhPnpG99seH75oHm+iGeOTyDfH88/8RzNP2j+tM2FQ6cwksx10Q+O/5je4ln4CioL3z0fcCSbX23zx8vCrMrvjl+h55fIXznIy2NfTu2Nbe0Nn0D5KwfRzvFtJP/9z3/TB6ZtlgW+kfz8iv6pTG3M52+92eCaImyyLMw90GZ48d8vprbRto9bmlXaD9YNkj5855s3bb/6yqupHfLDR6iX5KeffNpo5tbGZN/GN15/o7FTmzZojjnniJ3sJiS/yJRY/Od5Mgh7S64Ts6qBeVtyneaIbe2ssw5o0XXSfvL9IlO6Tq4pv8tSWl4D3l3d8d0z9qWxYdACg1p+omXIxhroMADUiIMxIKTB6xE1b5/E3zRmGirLBsv0Crc8Pnvo0zs2XlFrRDIA2v4yagbNjuHGnL7XnGGped+LcLdgeDeCl44aNG8W0KSR09CDLQ0QOJQXrR4BWVkDJz35WI+fuFZO4OkBUG4aus/jWqPD78iwJtKQr7RpDZ0j2BRWPl5gtF/S9dLiT+gFJV3b9tGMeTGIn+HPGjTeeeedCTCBqjQ6QsZO9Ikspq1zh4a/LcLnkkN8V4v6mlLj9VG8nzjGe7GX0vE1oFPGMt9eJg13tOlmmzaboecxg15ei5CfS9vCkPx82S5ec0CV43rmSDFs2jHxn+OVYR3K+2znZ7AYVh5ZlC2Hr1a2HF944ZoLm9O0nqQuolUki3Ypp1lc53TzWvhifto4Ik4OM0m9xTzy/mrnkSJP/DdJ2SaCuUPF61StbJPkV7hORnMgxbKlHRP/Fes+l82hXF7bOb8c1m/tcQmAamfqF7NQadMrPzKn/jNv/xl2CAB6AAEO8aUKojQA9oEnvnYNnTHeC7P3XSp8+Fm/1NEjNwLGAvwqNloeaHMBfzkhdpiYPo7vN//nCZQAE0h65ZVXUnoZYHS+kIavVXEd12gANeBl23EOs74QNYzAVFjlUTZf+iAOEIE3cX1hS5toePgjEuUAshpmaYPRInACQ9AIEkEfjWGGX79tZxiUl7yBpl5uyllsNFOGNfh3axw6xJR8ZpAAzbQZxsnjK9cW0fPUMC1dKXqB77P3PmlGk+bK8cD9D4Qrr7wymYabC1ceq10N6Ex02GGHhUoA9IwWRSM+ZOiQ4q60vciiDR2Migf06lx8icWLu9J21gQWDzBFVwur56ulUqqFpa2r1ps5a9CKadB8VUtj3omauWJYGrVqYWm5sqarGH6xxRcr/kzbevtaKiVrHov7aS+r5acNyFrNHJ4mslpY2kFLpdTzdaosa/m7eg101Dunem7l3nqogQ4BQOACZDJIga9xEbLAE/gCWjRiYGnRaE158NXVYl3EoVTCF+GzL3rEcLRoEdi+6hm+mj5+IX7yVOj/6aMRsIYk/0Hwtkg0xWYNH187Il1QxUwLtphigBVYJLSDtnMvYNDny9V+fonKJ751hkVmImMLyosJGMxZhBEPPNIsKgOYkyZtnocJ/Dl3JmX7iOOAEWA6pszSEZ452ouQRpNMCQDbMhOIQZktu+66a/LR2mGHHdK10qtY55g8e4dxAF+IYwOaH/LAAw9M5cn/aEGNxwfsnT9xvYszgBgs2lA16vF3v/tdOPTQQ8NNcZqh+aJv5b333ptMZvfff3+CAz6XWfTGNOSMDwfwoN4uuuiidK8wKTK16fhgneMbB1FdMKO7Vq676chc52KZch7luvNqALT4UDKMQx4iRe7Fbb/zh5PtUsoaaE8NMF9rU7tD56P2nGet43oHdUfRqbSUttVAh3QC8fB5kfNfATGAhykXCIEzQ5AAJv54b73xSlhj3odD/xlei2GiWXX618JCs/0jrDroubDpUk+HjZd4MgxdMs4T3KdX0hxmPyEdQ7xYAJ4FKHiJgDRjRPERAiryAFpfRNADZMBCeNpIcbLmj7YOsOo80j8CpjLrYGKcPj2L7WfqdA40gOJKAwCBWv47NGrycAxYytfvrLG0BnnSVi55AkBlkBZTuTzBq7jNSa1mAgFo1WbvOHbkyDSkC7P0WWedNUlRTMGmrCDYOVRLg8bUeH2j44DVZvhgfj0pTh8n3iGHHJKuDwimHcqiznQc0NGG9tZgwmBVHny3zOpCKuMDZtfdWnqAUj6V55XzKdedWwNmczEkTFHGG8+pzqS7vgDrrBq7vDja3zxGapcXppsVYEpKh3o8ndVWW7U0/7bxwtRcA+gGykDjBe+lDmiAEO0bLRn4GxRNQLQ2zMEgqG+vf4f555w9GHx4/vkXTfAILIAS7Rs4AwUAyVAy/PMcA3PAykOfYYyjMnOq48AAcBlnkHZP+Zh0MwCCRmmKLyxwzOcgvnPRwcRQIsquLNLK8Wn/AKDftIjORTmUPX2FxnJLRxh14Bi4A4s0mZzhHVdX/BgMSMuUDGCaexhrNRNIcfYOGjv1b3BnY/8BLtdPT06DhAJhvWv/9rfn0vAezoWGrVoaOmCcdNJJSbNpirlrrr4mASMAB9G0ik8//fQkAOijwb2x7bbbpsUL2W8aRHUGRJWhMj7zFa2sOpW+IVHMXEID6FzyeQHCUjq/Blx/90JxYGga5qJZePBygzu/YIUcm3vWCsHKzbIGptoa4HZVPgdT7eWtemI1B0C50Ax5eYM2azDGTw8sMakCH4ADuEATMFogatAWimG8tEEH2KO10wsYSAlPgBbIAkm0gaASiNgnfXn/NZpRaaBojixAQ7ykiYzpCS+cxT7wR5QFhCgPTR0zIxMoABSf2Vo+4ikj8JQnSASSwgA/MOJBEi5rFcQDkOIQ4OqYeMLLw1oeWQOY46YIFf9qNRNIU7N30J4S9QjC9t9//3TuroNZJxx3Lq5NtTRMvwZmQbdhWAzMvPvuu6c01S0Rv3iOtMOuATGFoAE+AZ28dOxh2pV/ZXx1ndNxPUi1MqUD5b9OrwHO2ab4M5/0Tw7/SdX8K33Qqgbq5jv1GvZsE21gNT+9zjhFPaA9M9V8+Toj/zKP+qyBCfF91B3l3nvuTVODlp1AWn/1OgQAgQ4QAkCAD9gwBwNCL3FwB3wcp7XR0aJ/PE6AnYVWDliJAxQstGRe9BpRoAA+7AOCIE542j3ACaTso2EUB/QpF2C0AAWgp5wWQGaRn/LQMimbsoM9eXwc0xeWKI9GFEA6F+kLZx/oEU75pEmUwbZ94mZYFE5eA6I/nfl41RfoSlMxxbSakvbMBCJN5STqr3L2DvuVgdZTneo4Uuw5e8wxxyRNoH1grKk0DMbtvNdbf70EcbRxRVGGXA77pWU2ktVWWy3VpVlIAKCOJupLfJrULDm+jwbX+bTTTmtMr6kyFfPL6ZTrjq8BvqUbbLBBMt9z0agUQ59M7UDiudGOeN61ge7bK6+6srIqOvz3FVdckdrCA753QIfn1RUZaMPz7EVdkX93zrM7to/ev6W0rQYmb4nbls4kscAV+GI2pIGjtQECPSP4gDBw1jtCkk4EwgIiAAWOmPqEzVo+4YETEPPy13gCOECQx9CSDyhkTrVmUgVjQMwiH3E1uLRZftsvbXmRVL74GxTm38qUy+EmM2SBcPaD1wx+GQaVEzx6iDIMOj/byqxOnJ/wtqVBaAPemNgDGAQZzkba4jQna621VnOHmz1mkOQsJ598cqpPZVU+fn/rr79+6oxRrQx77LFH0ug4X+FJZRr25XmEbTvfLOCS8KnUcaMoxx9/fDjiiCPS9VGPNIlMwu4NDTupFp+2UXidTbJUK1P2I8xhynXn1IDesUOHDk29sHfdbdcwZMiQSTKm8S2ahCc5OBX9oAn3QUQWXmjhNC/vgw8+mO7pgw8+OPWo16mJq4UB583NPTYO3WS4Jab09TdYP34gvxeuiG4R2iZade0rf1ntqmkh11l3nTiD0hvp+dPe0b7qDX3jDTemjlPax9zRbCqq2sZToQnSw7qU1tWAd1t3BMDWnWUZulgDHQKAgAfc0B4Br2zqpbWzTwNEgE/WinnBa9BoxMR3M4IG26AsAVg8RpOYNIYT4REIMtvS/AkvbIY8a6al7HcGrtzgwskv3/D22c5aO+X7NJZTz2X5J9NxPB9hMhTSUPIXzFpF5mJgKS3QK6xzA3vAypLP2z7HpQughEu+hfG3MisfTYFzFa4zJMOVvICyF0Q1+MtlAdCVUkyj8lhrflemo44q91Wmpw6ryZTiVYtT7uuYGjjggAPCLrvsEgCgQZOnRXnkkUdSO2fmH24N3BvOOOOM8OMf/zh9vB5++OHh2GOPTW4W2hGjAoDAkSNHpg8jcfSC51JjoRXXycb0k+a+PuGEExJc+2jSIeqpp55KcTeL/r167h999NGBJrIWAGhg6ccffzxZAJZcqumxQL+aEMEiQllnyZdffJmgeeFFGgbt76x8y3y6pgb4D3fm/dU1Z9kxuXYIACqqlzbo0aMWlAEnDRq4AW1vR4CiEfTiBovgyxpwEZAHHJmDwRoAFB9E0QaCSWHtA5XyAnoaSNAJnsCUfWBFnrSDwI2ZVV7KCNgAGZDLECo9otwZDoFYzg9s+toWh+8e+FNWeYDCDLLOAYDIX7mduzg5T7+la5G38wJd6kpZDcvSFbLMMssESyllDdSyBszuobf8nXfcme7t4jh6veKzNi0INw/tw+DBgxP0AUFa7t2H7x57yZ/UqMHTHur8pA0wVNPaQ9ZOYMcv1vBH5513Xpi+x/TJr1L788ILLyS409GJhlz79Jvf/Ca1JSAzu0TQPsqzvWLuZBp244eyxGgrr7n2mqrJbrnlluGGG2+oeqwjdmqnuYSUANi62vUe8m7qbjIt+A931DXpEAAEPcDL1y5AA0LAh9DCOc5kp2GyDQJBEojL0CSc37SE4A/wgcFs6gNPGlLApKOGr2FDtYjzaTw2fbyRQaCGNPsEgjMAqEwaLHmDv3zTazhAHDh0XFoZAjPASku5pbvUUkuFVVZZJTbEPdLsJMoHLgFkMW35ZSh0ruJay484P3kmAIxlfidq/wBgKWUNTG01YNBx2i5jOhYBcIONNuyyUz34oIODXsmeSxqtG8fc2GFlYbLNJuCciXaG6LikHIRbi7aPaLcI1xDtjReedshA1o6xJJx++umpLdx7770TXNLigy6+lUYM0I45N6L90ja2VT784MMwMmok74sgOuusDWX84YE/DKbt81FtZADtFy2kdpyF5uKLLk6maKMDKPuee+5ZztTR1gvQQfEAYHcUnZrKWV/aduVqDoBuIrA3JPr4gCnDdmRoA3kaIqLRyhqwbCYFReIKp+HQSFlSJ4nYGAIkX7p8/cQBmb6kLbR+QA7g0bY5Lg+/NXi+iK2ZVgEXcJSHBstCQFg2DYuvPNbOybmAO5DnReGLWvxsugWotsGeNKQpjrBEI698oC9rH+1TB8ojH1pEfoYA0j6S4TT9KP+VNdDNa2CJJZdIH3kGDq8X0enohhsiHQUaAABAAElEQVRuSO2Gj8nOlvyM6yRz+eWXh2EbDUsfvIZfMnMNgKP5A4R8WLUfOtVoX7bYYouw6KKLhuHDhydfQO0gkOQLKB1t4D777JN+X3311WHjYRunNqc952lsVP674I8/4r/iTEA777xzalN/8IMfpLE8tY+GerrrrrvSxzD/TyZp8Cpv5b/t9gbYrXV9e4fowFdK62sg34utj9l1MdyPxo8tzcCtvwY1B8BcBEN6gDcmD4NyGorFlx8gAjsZiNxwGbysadoylAFB0Ccda7DkyxKQGRiY6URvWY0eAAN58gBqfWP4d2I+n0QtYQZAPZAzsAEs6RdveI1l1sppRCzKosz5GIdr+TkG9uyXhvRo+ZwbyFVW20TZaQTtF94ivDpwzH5rAOiL3vl216+xfP3LdVkDTdWAjjpg4KCDD2oM8tijj4UVVlyh8XdnboAlQxV5tvnTdZRc+ttLJ0tahw0L0XFBr+CPP/o46DSTxcDnzKimwCNbbrVlAj8fmnm2i/vuvy988P4HYZb+DZq9w484POhUog0yrRsBXJ98/EkwJVx7RLuV3WRejh1UDO9Dy0erBwBHjRqVTLAA1RR6PqQNeXP33XdFS81CaYgnZmrtcUeY73r17hWa80lsz7mXccsamJpqoEMAEBABGD54Fn4sfOWYIDz0tGi0dEBIAwXEgBahmfOlC7oAFiBi+pCmBk9j4uvTfLnSFJZWz7AKfPPej+l+HOFK/p/F8I7Jk9bQtnQ1YEBTIyacfRkE/VYWZQNx9isjgOO/JE/xnQPtojDCKqu4ys+MDULz+Uk/lx3s0RzK2yJdv8GffIRlyp4hnmcpZQ1MjTWw3PLLpY5G9993f1hr7Yae7D7SukoAgyGLWBfqwW+sCH+0e8y5Gf5yHfH/y/CX92X4y7+dV6W0F/6k56N7bAS/hx58KKy+xuoJAJn0yV577ZUAUFvJXF2UeeaZN5x99tnBnM1n/PKMMNussxUPl9tdXAPeX/k92MVFaVX23seltK0GOgQAFSUDnW2NgS+9pZdeOsEcIOOka6GxA1EEAAE8QGQbLGVQA1h62S633HKpB9uAaGJwzJekNBwHXUCLllBckCkvYAjGwKIFpDnuZnfTW+RnsS1dmkAwRtNHOwdkmaKdl/Rp8ORF66f8wkrTceV3TJ60mtJSFvkJ44YFfvLxW3jQmOtBGfrF38R2d3woU+HLf2UNNFEDeqMaEiUDYBPBqu6mxfJc1FKGRxOqeaRp32otRaBrbdrb77B9a6N0eHhDyjBV0/Zpw7SBQHWjYRuFhx9+OM36Yr92jlbSeKF77rFnmtsbKGpTzThUCbC1Krj7g//5kKFDapVkmU4d14ChkUppWw10GAAWi6OxBjrMwky3NF9gjTkWvNGkaUTAElACbCALQIkLzEASXz9mXz19xQN3wuv0YcYQEAiiaA2lT+PnN9gyPyy/EPCnYZIm2ARseZEXkFMOizKDvxyOmVlZlZsGENgxc2jspKdhs4A/+2xLW7p5ndMHddmPUB7iZOA04DQzcyllDUytNcBdAwRc9tvL0rAw2oaWCFPx7rsPDwPnnqclwVsVZvyE8eHmW+5oVZwpBX7rzdfj0CzHh80232xKQRuPGzZFG8MKkDtZNB6sk42lv710uOfeexIwa0/z4N4XXXzRJKZoxb3mmmtSWw4cDTqvzayFJrK5qtCWllLWQFkDzddApwBgsQhACIRZmDoJWAJAFpA1NpoX/htfEB9FKHRMRxImXC8M5hDhACBIJGBNOGAJHgEgaANWuXcwzR+gEzZr7TRE9oE35cprcKZRsw/k0faBS2WTh7W4woE8gJlFw+OYeMogTXkIJ7zFfkCrTNbSViZ1AlLFLQEw12i5nhprwDPy05Ejw6bReZsD96KLLdqi0xRv1TU3DIf+9LwWhe/qQBf+6qepvWppOQwFs+qqq6ZewKwOG2+ycUujdkm4atrNSlM053zwR2x3NPx1ZEX89z//TX7tPljmna/h/dXe/Aza3Su+b7oa9ikquqP4KOQSVnYCaf3V6zQABD5ZKm80kASEMhTR1iXz6fiGmTKuv+76BHjAiVYPLGVoFA6UgUL7wRnNGpOzdAAjQANVtHY0D7R4fgO8rKXL8JdB0G8C6IS12HYewoDLHCf7MCqD8iibcI5bQKffwlmcB8AUngaTlpIJGADKA/w5h1LKGpiaa8ALjxn4oIMOCr/+9a87zCRYL3VoLuDiECnM339/4e9Bb19WDVMemnbRqAkGzObyMn7c+HD99denAZ2NB7jU0kulIVX09P3973+f4rCKVM4EUi/n3BXl0LYCglrL6GtHp7EPpf3EE0+koYz22nuvdmdz/vnnh0GDBoXddt+t3Wm1N4Hie7q9aXVW/K70H+6sc+yofDoNAJs7gUogdBN6iGecrmG2CaAE1Jh1wR4BUr6QmUrAGc0f7YBBUfkcWieYi7AGsMQDW7SDtIkZ0qQlv7z4nSHQWr4Z9IAbULOQXBbQVjwHccCsXoXSTWbqWDYgmEHSOUnPeQBUeSkbgNXQS6OYZsqw/FfWwFRSA+aZJttut22CnpFRG3jKqadMJWdX/TTM8kHbmYdIMSCzZ925GynBkC+GtjK48gMPPJA+YPklmppxePRR1MHi5ptvTibVxx57LKXFDw9AV84EopPItCp6Pfcf0L/mpw/O1beZbP71z38lcJdJtWn3fnf575IfIouOsS9d33/G4XK08X774KEsMK0m0YnxqCOPSn7y9ej3mQpZ/pvqaqCuW4kMQAALRNH+ASSaPjDINAuwABSgMnyKHsfgT9yx0ZT8tzgMjTXtH+ijuQNb4E06eW3bAhY9mJYi2GUolJ9w/A9zGZTLVwiztDggT3igaO23fJQJ2ObwTMMA0HHmbA0EiB20wKBU1u5+t+XrVzwP+yqX4vHmtqul11z48lj91sDAub8ep+2ss85K48U9/dTT9VvgGpQMPAC7c845Jz3nXFsAwhbf2SKcfMrJ4dDDDm1sw3J2o0ePTlO8GTx6ww03DDfe2DBI9fe+972wyaZx7LPYHtEA5plANt544zRDSI4/La7HfTkuuhD9t+anbpibk08+KWy04UZpbMY877gBr00KQLEA5pkk+T0a9NtUfMDe7C3GmtSJcf/990/tO5cmQ/wQ4zyaf/3EE08Mr736Ws3LPjUnaFzJ0vzbtivcs23ROjcWqLv77rsTZGWAAwNgywKugJZeurRqNG1Ayn6w5TfQImCLdg40grFsss1mWg2qhQYu++5J2z5r6QoL2KQBKqVhXx6vkDYSsMpfeMeVi0knm46ZpmkCxJePsvAFNCht35n7pvOqRS13NjQV81Nnrg/J9WrdlOSw6rko+Vrbl+PndTFcZ253df6dea4dkRetSYZAQ5wYrNhcwaY/M0zI1CiVQ6Ro17QT5PHHHg8GtHVfFZ+hJZZYIoyNH7Arr7JyGkFh2ThHN+EuQoT/X7SCFGcCWWONNYIBt6dV0d4af9bUg7UUoPHMM39NsGZwbmMz0uRxKypOu2cuZ0PgnHTSSWmavHyNt95667D5FpunMSdHxbESDdNDA37csccFx0z3x7RPSzjPvLXv5FTLuqintBZZtPMHb6+n829PWeoWAIuNoN6/5qZl9gBVgCn71gE623z+7M/Ds4AJgKahpP0DYhm0DFnAPOuYsQI/j1o/mj8LTaI0gZk0Mnz4DfIctx8gAjbpaoRp+5RBOJpBaw++8f349CmLcipLNl/L3z7pScd5rrnmmul6djfAyOVVX+rP2j4w5xzVlS9k61yvjgmnPsDwHHPOEUwzJZy4GsgZe8+YwNlx6ahXa8fFLaV71gDz56abbdpYeKYwz/guu+4SLh11aVjwWws2HptaNjIUuId98GlP8owdnplTTz01tUGmyttoo43SaQ+Ppl8m3osuuih9PNoPNvLzJtA3oiuMcHmQeh3fSql9DTDXH/+zn6Whi/gB6qzDDcnHfHHavQsvvDBZc8zXbL5k15tkJQQzP4uR94IByLVtFASkeF3TjvLfFGvg008+ner9h6dYCW0MULcAmM/HS17Dtv322yewYurwwHiYNKDWHiTaN1o5X0/2kwwYgIMAQEDmoQVkGU56x4fPA6hRziDoKxLsWfK2tePS96CCQPHkLU1lYQbWIAgDVJij5SmvDKfKoUwafelLU1hf7rSY9Q42uXy5sbIGsLSteZgc5y+c89Hg3X777clfE/SqN2b0DHMZjsE97SktqWtK1Jl6VzdebLQh6jMP6aPessivsmz5WLmu7xoA+6usuko484wzw6677hpGjhwZjO/1wP0PJLNZtd6mLT2jE48eEQdSnjV8/9DmfQwNA3P37deG9TfumLH3qg2RYsYOHWG0HcxYBsneb7/9Jukpe+ttt04yO4jfWR597NG0WTkTSD7eFWvD2DBds9p4lnfcccd0Xp1VFu2RdqbWQrN3YDTjS9vH/fe///0080qGeO0UTbahzq644oo07iEfdWZfVqfcXn73u99tnHFmu+22S+5EtS5ra9N74vEn0jXz/rr1llsn633ekt7PxtD0Dm5p72j3ifeGd8Z888/X2iI3hjfdYDkVXGN1tGqjbgEwPyz5bJhLfIH5EqZhI+ALTIArDx+QsBYXZFkcs4ANwAUo3HD2AS/hwYpFGL+Fy/uBmv3AwrY0Ndbylh8Y8dsCRgx6ClTEAXf254cfYDIDk2L5pCGMtXwqzz1FqLN/zk/9Ocf3ol/m3557LpXQOToHDzZtH19JE9urc5pXdeb6qUv1RXOatSGujcHBmVo0osK5LuL+8Y9/TIBp6Bwzw/wj+kv2j+CtPi0+EqQjTfVnUY68uN6l1E8NuA+K8vzfng+LL7F4AgXwAIKsTSHpPuIbxXzWWnnlpb+Hh++/Lfam/TLstMePwuxzzN1kEn9/9vFwwVk/7TAAlHHlECn2VQ6IXG2YlJYAcLW0pd9R8vlnnzcO71LMY++9907tMq0uiwdfOdu0u50h6nPFlRo6GbUkvwnjJ7TIb3KNNdcIgPudt99JQ3jljjbVpt3j86d9rHbdjAkJWLRtlbO1/Pay37akyG0KA7hIpb/cJRdfkgb21jkFsNMw33HHHeGMM89I4Vva+/nPf/5zembP/fW5KV5z/+6+6+5k0eP3eNttt4UjjjyiueDlsQ6qgboFwGrny0Tka1JvLBAAIgAgUMhw5esMVFi7mROQxHAfRrjwNaYTia83Dx94sUgngwJw8Nta2oAiL9LK4Ac6/Kb9Ay62QQaQk7a49mUQtC+HEU76GQKtveRAZ72Lcivnq9FMaxJ4Wrv/iz4w78drYKYXmjlfkRmg1fWTTz6ZhmUwLM9LL72UQA4YgznxvSTUl2tmOAz16XqoM3WvfnSQUddDhgxJX5nimed5bNQI0jyKR9NIc6gMwqpn6ZRSfzWw7nrrTlIoQ58AQDL3N+ZOJjUvHj1gPbNeTuac5UfXGrnx2ovCCqsMDR+89064/uoLw97fPTpF/+CDd8JFvzoujI2AOHjFtcMuex0SrrrszJjXu+GcXxweRnzv2HDrmN+GB+++KSy+9Ephi233SvB4ze9+FbVxH4anHn8g7DT8R2Gl1abdWQi8uPVs3mKLLdKQKOb7vfOOO9MHNG1nFr2adWDZaqutJtFs5uNdvdax5vjjj0/vluHDh4c555qz2SKZ37hSKkFOT+Rq8JfjgcdePSafqi8f74i1D/XVo4/5BhtskDSQ/ETN1MJk7TnL5R26ztCw1ZZbxVld/hR90ldN79uW9H7OZQaad0aAfODBB1Odyuf9996fpOezmWT4TvJ5N70qefCBB8Mtt9wS1llnnbDeeuuFe+65J70XaPiMu9hZHxD5PKaFdbcCQPDhhgFZutU/F7VOTL6ADZiBjqwFBA+0UCCARo/JMUOW3xZhirAHQsBGhjfbQEUaYBL0KYNFGTKk2BbWF5/0hCPgTxlApjjSFcc2GLStTGDGtkYjH6+nmy+Xyfqdd98JL734UoI2dW4fE7r6NWSF80pawQiE+bwAHdOA+gF7tgEbuHP9ALz6BW2gkBbwH//4R7qmGdKl7zqoT+llOJSGY88++2zKVx6gUHoGGmeaV85Sul8N6CXpeg4cOFe8nn3Ts22qMfdcSySZdP8wOhw28pwIgO+GC381Muy1/5Hx+Zs+HPnDHeKzPVPYYfcDw4VnjUz37SprbBSefvyhsN6w7SIsnh9uHn1J2COGf/j+28Mh+28RLrnmL+GvT/0pPPXog2HbXb4X5hw4ZUf9jz58Lxx44IHJj8+zoa3woVOphWnJ+bQ3TGy50jOk/fEsWVduyyMfs7ZU7su/aeY946wyTJ6D4lh2rB9Aryg0k7T/LDie72qiHEUp/s7blescvrjftjnntQs+OFkGipLDFvexUjgXYynqoQ1IaC0rP1KKcbpy+4LzL0jvL8+BxTvH4n2jXcxL8T2XLTb2ga+bbropvafWXXfd1Is8w18+L51SHow91gGg3s8jRuyTOmiBs2Lv58MOOyz1dB4ZXTZAG9EDGlT7WDP1n6GL9Hxecskl02QOej6bT9qz4COeexD/dx8TzOznnntuei9q0++7775wzDHHpA9A/vHVOogB2q54nnJdded1twLAXNF6wtH2uKE87F74XhQAEFDZttYI2Oem9wBYsmgING7gwKJxBo/gLUOD8NIgblYLINFYABkiDWGE5fsHGAFJ0lDFxhGsOE4r6WEVTt7j44P6eSyb3+Pjwzsg5jtDz4b5iVPCdfIvN5g0ecYa07sO7Kp7QOsrDrjRvAE3ZgCdYWjlwJo6de6AThzpuTagTzrOHwy6BupNmsIwG9PkqTPpEHWrPl1fa9dWeCIdjtXStU964JIPonQGxZdTNjtKs5SurYG//PkvqWdrLgVf2Urh9uG+Kb6c+ARe+rsbKoNW/f3wvbfEe6phqKiZ+/YLpmV74O4xYcWotXsqgt5l1z8WBi24ePjWQkuGcdH/7723/hfvmxnDoosPDsf+ePew856HhKEbbB1WX3vTsMU684eXX3oh5bPuRtuEXfc+tGqelTv79hsQzjzzzLDNttsEZm4vRy+84bsNT/5inf3iYu4sQkOGh7wvrePz8dVEqHA8H5vwVQSNQnznoacryGKd8bLXRmgTKoUWlxZJu10p0q+U4r68XblWNlLcb1sZtEMsET5K+Y/nznU5bDE/kMHVQDvmnnMea621VjHIZNsvPP9CWGzxBs3VZAcLO5584snUnnHvoeWmXWuvaDe9d7STefGOsTim/bPY1g7a77d31x/+8IfUVgNxw9TodayzSqWoO772pKW9nzMA0uK98uorwfBO2vpbosXONRlV6PlsCkjtfe/YppOrrroqdYhaZ911EswaDcC1yL2jQbl3SjUArNS+pgTLfy2qgW4JgM4McHhIaQmYB5l3vfw1NG46cJDBQfj8gGRgs/ZQgAraon7x4e8XQQUwABJfUW446eSG5ouJIKmjgvQ0fB7AmWIas8YHHOjkr8mct3DS1/DI00MISKVL5Gl/7kQinDTrQZw30Hr5lZejyf2VBNr/F02/yqi8zl+dg11aDaDFNA+OnROoJo4x/f47Qt1ssVFxTBj71ZlrkM/bMfuk5bhr4HoSdSYvPbf1FFa3wqgv8A3QXX/3gjRm9oUZwxtvTf7KrAGZpd8sKT3Xv5SuqQHXqCjLrzD5zA2VvnHF8C3Zvum6S8JcA78Rrrr0zBT8m9+cP1z/+wvD0oNXjz5f8fmd85tpf7/+s8Xn/YsEgDndL+O9NsdcDf6CpumaqU98tl97KR2edY6vxzDM4VuyZuI+5qfHJG3gyJEj0zAil8SXYmdOAZb91iIutKTIzYbRq/kXv/hFmt83T/VmPLzNN988jWm38CILp/i/v+r3qQ01lmFnCFig/QcTr//39dTTlhsK7V7ffg2D+BfLof3QduwQ3Ytaei10VModcIppFbcf+csjQYcP7gtAmQa0FgC4x557FLNp8bbessOjiRv4MddnoXUrdvz4x9//kWaZ4WpFWtr7OadH80qzaGaTa6+5NrkGAf9iz2e9qLX5WYAolwLi4z9rirXjxHuhGD7tnPgv+w8X95XbLauBbv0GBCiADQxm4AMstFWgIa9tAzJhPOy+jMZFjdGEuIAzoKCRt0jLcaBG3HQZTnwVuxEt4rlJaQPBYs8Yh8YpayLlYxugABXpZaCSPq1fr7ieENMXZoE4e4n9Td3kLbuctQulrL5Yx0btKk1lj3jOc0coo7IHuY888kiasUC9Om8w6CsXEII72j6/1QHNG7Pv83/7W1h77bVTvYFo10XDmzW06sn5+xK339o1y4BIy6fuP41QZ58wrjGwo3UEgYDxbzEfIOoaKLtzkY5y/j32Il9y6aXC0kstnY7XS33X7sqVKamBd9/+X3j0T/eEC698ICy0yNKpUp6PnTxG7LxWbAs+iv6Gg8Mfb70qbLn9vuGsUw4J8SkPW+2wX7wXGz7MVl1rw3DHzVeF5VdeJzzxl3vC/974T4yzfLh9zOXtrmAQ8vPTfx5Mcfmd6D9H+1HrMevaXcgWJLDs4GWDpShzRXM9jafesKwp2geapEsuuaQYrEO3ab0oBgh/Uv6IIJSvok4W2oqi+Pio9gFSDFO5rc2/+KKLUzvzwwh478U2j7bRoN4PP/ynMH1se5gy1QGriXaGGbxy1hBtkg4X//rXv8LBBx/cODZmZX61+O2DauSxIydLylSEtJ4AWbvq4+zss88O2dexpb2fJazNBZiGLjJWoraX1ruy5zOfvlNOOSW9b8VjxmWaHrbRsPQRr0yeiyzStVQT7ynQ39na9Gpl6W77ujUAuiE8WNa0TZb85eBCeOkDL41QNsvaLzzoAG+gwk0PHACebcfduNaAMmnxJn6JfDERaGiPaKFomORhLT+mLMc0EIBSQyAvIi3lzeWaEMEI0Gis5otfrPUguXweqhej1oyp2rmAOLCtvpxr7t2r/OrO2rkLA/oWjL5AfAN99WmQNboaQnFp98AfU5E6VueuHQBWV8rgeql3x8XP2lqaG8d9UQJAJkL1Kl1rkuufNlB60gWj0vtPbHBpIo03yJ/UdVb2Ujq3BjTYRbnt1tvCsI2HFXe1a/uWGy4N8y2wcCP8SWzxpZYPCy60eLjuyvPDnt89Kpx/5jHh0gtOjpq+b4aTzrw6zDiTAdjHhx03WyqccvZ14axTDwlbr79Quv8PPuqMMOvsc4X4Gkp/7SrcxMhbbrVlui91bNPjefY5JvVXq0UeXZGGQavvve/ecOIJJ6bxDA1t05nSc4aekwG16dW0GbvsvEu4+uqrp9jRY0rl5e6iLdSmHBC1fPzdmFcB4KPx49j+FVZYIbVdOsDoyGDGFrOGFP3m9II944wzgrEfi++uKeVfy+M+PsbcNCYNRk7rd/QxR0+SfGt6P2e/SekZFia7b1Tr+UyJkN63cfgjcuVVV04Sp1iOyy6/bJIylT9qUwPdGgBVAUBoSoCDhYaNeNkXhaYKNAAAmisPoK9VMAEyPMQZSD6LEJl+R8gDHrZpn6SfYC+ulQUMuantnyWuM+w5Jp60Lbbtoy73MgQppLnzKZa9I7bl7bxfixq+Z6JPzMCoWaO5U0/OC+DRsvEPAc/5y0v9qcd83s79nRhevTvm3GaPmlVpAz9D5QA+6WYVv/p3fP5Bg8KcMax6F9YCKKUpf5AORsV3PcUR1jXw5apRdlydupZgkNDYys/HAHOwsOKAQNdSOqV0Xg0stPBCk2TmutVSdtnr0Nizd3I/vUtHP9aYjR68H3/0QXxJNbgEODD6zn+FcVELONNMM4efnzsm3n/uUZ2/Gj4Sjj3t8sb4tdgw+wPND0f766+/vkXDkdQi385I49prr03anM4GwPHjxqf2qHI+4NXXWD0cffTRYZdddknaqQwnbakLbkL7jNgnAYs2pCi5LQGcPnKXiqMjaBu1Y34XZw0BgMBw9+G7F5Pokm33H/+9IngVC5I1gsV9zfnfVdZvZc/nai4elXGKeTW17VqU0rYa6Naqj9bCEhixiGdhtgQjQMFDO2DWAemLJadrH4CwBhvggVYPfIAG8an4PdwACIgIAwyFBxhebPZJEzyBE2AkTwvfBzCYG422XcbaxNJAMWM8EMeweiuCX4ZSmjTaTsDnXIGyMoMo5+x8nCuYUy+0feoIPBL7mNtzHaoPi3ALRtO3Bzj7QPaNoCYPYdUpUzHY5NOjvj+O+6StPpVXvuAQaMtPWFpCZZSv44CbJtIxoOm8lNvYgtZEfqV0Xg3QDtSDFOFPeXTEAn9Z+vWbNd5rHdtM0o4YLPi4447L2Xb7tU4Snl9A0dnCIqNzYDXhF8h/T6/U9og2xTiIY6OLDNOutsb5Em1lNckf0GYNYRJnJifas3qQMWPGpHPgU9edxAdGaf5t2xXr2JatbWXq8FjgIUOezNw8oOOLz2Ov3Pj1mEHRMQDYMz7cQAGkiZfhztpvDzAIAUIgRVr2iWPtt+Pi82tjJgWOhkwQPqcrv64Q56DR1FOLL4pt4/pxxgWsym6fr1caOfCXFzBlO4FWNNtKSz1YEwBM88bXBaQRDaV6VS/iqUfbAFI4ZaCl07lHGeTJZ0QZdADJYAoALdIXbmxsjPn+GZ/QtsX+V155JQGgRltcsKn+nc+DcayqB+JwB6A9lzkVsvzXoTVgjK+imFZrWhaaKT1XH3v0aw1ld66P888/P32QeeaN71ZPYjw5bdRFv7mozcXSjmyzzTZpiB8waRgTLi477rBjar8krD2xcAOyNud1njVEz2TvghwubXThPx1WtK/aUteulGmjBnpOG6fZ/FnONONM4Zv/75upx5iGIYOdh5bJUQeP3hMhkJYpf7ElzVY8Lg5I8hv0WQOaDIo0fdLi1waWbA+Kpk49sTLMNF/CjjsKPgEZ+ANfGcycj96zzifDHtMvmKK5y+ecNXDCmZRefI0ITZvzt982oHP+wgM6kC1fmkB5qRNx/QZuTM7qmebPS0SaYFk46UqDVi9rI4Gm/cQxWkvp8v3rG68PcS2dL2ikWczDRNDMGiR15Tg2lW1hSuncGpha/N/aWmvMY3zBOMsblNeYoN1ZjNOaLSvGhONH1pmifWlOTjvttDBs2LAwdOjQNs07/fwLz0dXgYYpQfO14tOm/SrO5MLPk9x9z91pXW3WEFrJrhbmem2za+ajuDsJ/2FzZJdawNZftRIAY52BCqbId995N0GFLzMwoREBf+MixAANsGYfkAE2QCEDkKp3jMaMJssxEEizJJ5FGnoZGxh1/vnmbwwn/64Q+Srfo48+miBNGcATmNIQAC9mX74sNGZZ0+YcM7iqB1+OYA5UCcfUCrLEB2I0bwQ0mstZ+uLIH6RlLak6l456M0wA/0j5AFOwBz6VS3z7XCdDUYijd7Iev8Rxi3QMz+P6uWYWDTS4zGnRLLpWb0V4pQnkz5N8DUsITHXZWf9efeXVFs8h2lll6ux8jCtnaCu9R7//g+93dvY1ze/Pf/lzOPSQQxNkdTbgALAhQ4c0ez7CmF7QoMajrxvdbNimDupsUhQAUoS/4rHidnN+c8Vwnbl96mmnpmtl0ObTf3F6Z2bd7ry09aW0rQYmvYPblka3jpW1PTP3mTmZZPnA2QfmrAGIG8w2gAOKNFTGwzO9nHAg8J2ooTI3rTB+E8eYGwGTTgjgBQAKQ0vYleJ8lNO58FlhjgZwgNB+Wj5wppctXz/nwXQNxJhmnRNgA3k0aeDwky8/Cn3niT2g+xt2Jw4a+2afBFMgTXwgqPdw1u5JXxogkZYQNOohbCwx8KeO0hd11JrS5GXtKei0n9kFnILUT2Pc5P8X61xdg0thvojldT7gDyjKxzkTvfTkp0efa6VczHC0AkC2lI6rAdqXohiItyWTyNPQvvDco2HP7SYfN7CYXmu3DXBsCJg8MG1r4zcV3nO21aanNnV4sv16iOoYsEv0U2vpmHSTJVLuaFEN6BQyatSocN3o68JWW086e0mLEigDlTXQzWtgmgfArH0DIl4uQAUg0FYR2imNuHAgwny34ICWKPc6BRa2s+lXeNopcQAGjaAeT7179U5mznq4Z0At4KP9Mw4iuPMbpFlAqvoAfKAQIIEt8AXinBuT7ec9ohm3/5thlqHjYueLOMPJ+DgzSugZZv12j7DIoFXCQt9aONWBugFY4qsTnW/UEThTf+CNT55wQI+pXVgCMtWhcho30X7Xi4BGmj4wSXvpHKSrvMS1EN7i+rlO4tK00P45N+WSr8X5PvXUU2nmgJxGSqj8V9MayGaz1ia66GKLRhPV/a2NNsXwp5x8SuAE/1AHpD3FzAsBaJD22GOPcPrPfx5+dsLPCkfKzZbWAF9uH6lLLrXkFKOccMIJYetttk5jBLb1npxiJmWADq0BVpvS/Nu2Kp7mATBXWwYaUMC8CBZouUAOjZJt+zKMABLjJ+k0Yh9oAiOAEYyIY22Rdr0I+FEe0GVeVaDl3JhkrWk8wZLOE86XZBjsEetCeDODvPHF2DD7stG03SfWz1fxPKczlV3P1AMXOH3Z45Mw/Tc+S3llUJaefAC0csiHADb71BmAo7lzHLwBPiJNg2era8cdA+rKLH4uuzSy1lVYAuymi/Ffj9fVtaVNNFC1PAEf+HTeIFi6tJ569oH8XF8pofJfzWrg2b8+G4fHWKoxPdewK8WgszTBr736Wphn3smnK+vMsgHAIUOGxKGU3mkcjLcz8+/uefmo1I60BAANXL3O0HWSJnCvvffq7qc+TZa/2vA002RFtOGkSwCcWGkZ0mj+FohzEOoUQbME6LycsoYJ5IENoMBsXCn257Qqj9XDb0BD+/fcc88lbRhgotEDQM5dRwtgRivGtAp07RMn+QB+8XSYbsXXw9zj+4S+vfvHqexi3cS4zjmlPRHcekZN4CvjnwuzvjNP0vLxzzO9FijLJnX1Kx64A9riq2d1DFCVw6JO1TnIBpDWIE98nUuY1UGe4WTysDLiZVBU77SD/4svBWkxd7uu8gCl8lMmZfPyEJZDtx579X496+GeaksZwHsRANdae622JFOTODRGPgzIAQccEG4cc2NN0m1rIjRRZlMwl+rIKjM3tDXdMl71GjCTx6abbBJ22223MEOvhvFYq4cs99ZjDZT+w22/KiUAVtQdCAEROglkbRXYAAL28SHjy9eU1DP85TIztTL9Og+zdTinZ599Npl4gRjNGKHtA1vOSV2MnfBM+KRv7On7+cxhjjnniFA2YwIn0+oRdWQhPaY33d348J8Px4aPX28AOaAHysAWLRzgBJ7ypKEz3I4w8rNPWgBVRxydPMQD48zHQI1mkQmXBm+uaFYeEMsNIP0GcRbXExyCV0DLt3HFFVdM+WTfQ+CnLpQN+Fpbloy+iAvGj4FSpu4aMFad+4novfr2W293+awcYIQvqhkiqg2YO3VfkfadnTbF6AEtFb6W5q698sor0/y1LY1XhquPGuA/zD2pNAO3/nqUAFilzkCETgjmlAUQyfwY4QNIAI7uLICO6dd5gJ6+EaiYPv2mZaMVI/zwsjaMtubzWd4LMy32eYS/Pmk8K8NW0OoxgdNYgLYvv2gAvfHTRa1dzwiF08VZOWbpFfr3mCsNBC1dsCkP0AXQ1Kk6tgA+ZaDZs982GAV9n0ctHdB0bRwHpMpIe0eDyZTLZCuO/WARzGUIBHu2jbovTeebAZCJ2/U27I0OMXwUaQgfi5D8/6JWUX6l1LYGNNhFeeD+B8Kaa61Z3NVp2667Z8F9yQWE+bCrh6XRU3TjjTcOl112WRix74hOq4upISNavIUXWbhVp7LvfvuG3XfbvQTAVtVaGbi710AJgBVXMGvwvKAMSEwT5MUAAiwgojsKuGIW1cHBC45pF0TRujGhgiLQAxAtgExdWL//1Zth9uhP3a/H7GGGmRtm4QB+RBhpf/pZNKWOj1Po9RwXBswwV1hu4Jph8bmXjZq8OEtH7F2pl6X8pAcsxbMANfuy+VUZHVcGcMdEC+SEAeIWQivYL56DsgM52j3QOCiOr8hk7Vz8Fj/3UjY9HG1uhkHXEpAuscQSCSyVT5xFFlkk1Y96AgfLLrtso2YzZV7+a3cNLDt42UnScE26Sn5y+E+SydVYYiNHjgxLLLlEVxVlknxHjBgRDBhcAuAk1TLFH19NaBjhoDXmXJYBH5APPfhQ0Du4lO5TA9li1X1KXD8lLQGwiWvBPMkUDAAzeAALQAFaMog0Eb3udisz0y9QAkF8nph4mUpozEAuAHJewMy2ff/5YGyYbdUJYUDvuULfmRt6Rn8efaZAmmX8hKj16xnn6p2+d1h69pXD4HnXDN+Y85spTaYYYdQh2KI1nD5Oq2V/Nv2qKABJQJ5tZQWCyiBujk9rx5QLCAGi60E7yFxMM+jayM9vAEgbaFt8Gh6mX+kDO+cODKXlnIWRr7oAleIZ2Pr5qAUGjtITV92UMvXVAC24e+gPf/hDWKcOBuZVw3PONWfSTJtJo7MHUu7OV9izbDin1l5HU7NdfPHFJQB2s4vfVZaDblZNVYtbAmDVamnYCQCBCFgBCfzRAEZ3hADl1rvVuXjZ6eVL+0VovcCVMOl3hB+w8+an/wm9lv0wzNp7YBzjsGF8Q2ZYvhaOfz7+4/BVr3Fh+f7rhxUWXKNxrmN1NW78uKTBo8Wj3QGT0nfMixZQ5XrNZTCHL40k+AJvRD6uATiz/dnnn4X33n0vwSxzLZB1Ho65PtIFh/LyIgCRtIu0eCAQBAM/sOi4r0fpK5/rCkKVWdn0an4z+hPqHarjSCm1q4Gbb7o5bLrZpo0JmhO7K8Wgvu4d7hH1JHvuuWeaN7YEwI6/KjoiHXHEEdHf+JMWDejc8SUqcyhroGNroATAZuoXhFjABTjwguiuAmrGRl8+/m7gCBjRytnOWjKdKkCUc02wttD7YeZes8bOFQ2zb4C/ZK6NcT/+6v0wYMY5w7CFdg7zfGPeZDLlC5jTNmfvxxGqwJh8QJYhXfQYVpYMW+qWaR2EKoeF/1PPHtbRjBuBMUMjZ3j7mWv01AZz/DQfeuihlN6gaP6dJx7L5QR44DCfo23lcu4gWHjn82WsA4AJ+sAirSDNonyVDywvtNBC3fXSd4tyzzf/fF1eTs+3nuR/+fNfwsqrrNzl5VEAUHLUUUdFzbfOZwPqokxTcyF0BrnuuuviQNy7TM2nOVWdG//hNdZYo+wE0oarOtUAYIY0awIwSOXvtLPwLx+3BgNe+lkyAOS08v7utlZ+0AOYaONmimZO5wbEwM23JsIN+HGchi7WRpiuz/gwoN9sqQ5BFL+/z6MG7pMIf/P2WTR8Z5ndEyhJP/nwfdKgdQNeoM8a2KVBnCNY2haOtk1dZ00fsyv5clw0J8eOJL7AhVNGcAjCzdCQrk3sj9Fj+h7J/Cs+sNQBRK9m6YI55afRBHzOh0lXGWn9Potlct5A10DXfr8RNYIfTgRVpn9hld05S1+9KQ9AdKyU2tdAPQCOzj8AYFScHaJeAFBNb7HFFuGq2EN1/+/uX/uKnwpT1Gasvnrb/Ph22mmncPjhh0+TAJjfhd3tltDGl9K2GqgpAHblyzHnnde5Oip/5/15XTwOUCqleLzyWHf57cHO8AdiwBnNnO3HH388AR7wYQ6lCQNPM8w1PvTuEQeGjj3qPv2EH95nEZyiSXX6j8OCsywRtltpRIIz4aUFmKxBGC3bjFGbwtfQcC+ADIDSrFnn3rpZW5jXoFB6wuR94gBAEJk6qsTGnWlWIy+s/QZ1Zt42+r/r5Vz4CuodLJ3lllsuaT6VkZYTOLrWzMd5cGn7gagBoMGeOgKM0jGsDJ9B5e6ujWS93atrrjlpj9+H4gT0RZNwV5TX8EIgkFb5zf+9mXzwuqIclXnusssuYeeddy4BsLJimvjN17h3j7ZZa8w0o835+KOPw8x9Jx/ntYksp5rdU8P7bqq5GJ1wIl+ruzohszKLzq8BDzQI8lLj06jHq44fYMYChJ588skEOACL6ROwTejd0CPWcaZbcDYudvZYoN/iYZsV90kQJV1QBZIA1Fux4ZTf/NGcZz5f+WlEfaEZQ1G6TKnG/OOHpzOGxhaIZo2kNIUHd0At++i9HQEMsL09EcZAmbyBoM4gfPRAmoGhLSlsTJu5OA/8LG1mPj28nReYM7wM4JX/4osvntYglthnW17SK6V2NdB/QP3Ntaz39wsvvNA4CHPtzrZ9KQ2ce2DyXzV7SilTrgFWhJdefGnKAZsIQXuoM1Ap3aMG+A+XYwC27VqVANi2eus2sYDbBx9+kGDLCy5rsEDXwKihA4TMoUzBhG+cYz0+mylpxwDd9HGJxvQwQ++eYcvBe6SOGsLS1NGSZY3iN2J65kpeYNACCdykM+7LcQkQmVtNnadDxcvRFxFcgTBgZx/Qsg/0KQMQpckDjfaPj/DGHAsYLbSNzkXZaQFBHcADopakiYxwR6sjHLMvTaLx/qQPfsGjsjsP5RNOx5IMivJTRuH0ni6ldjUw9qWxkyTmGne1eBYM+2MWjnvvuze88fobXV2kxvx33HHHNCZg445yo8ka8Nz6CGyrDBs2LNx+++1tjV7G6+QaqAf/4U4+5Zpl1/Wtbs1OpUyoWg2AGS9b2jJaNWBkoWX7IC7MtL6gABctl/AJuN6P0PVVw1y9oOyrHuPCvAMWTOFo0aTFVCrdTyNc0dQNGjQoQRvoBFXyoZUDcpzrmdVI9qtThlniMRDH/KoMTMbKpJOHFzKt3MIRXKVBi0hAp/SVC5yBRDOaADjQqbcv4HMeyqoc9stDnAyINKEAkVYSADoXx2n8vEDAIQ2ic3v55ZfTOacClP/aXQNmninKxptsXPzZJdvuNx9COjMd+IMDw8iRI7ukHNUyNS3hg9FMbjzNUjq2BmgATZVZSveoAf7DpbStBkoAbFu9dZtYgIbmC6zRmgE3v4ETAANSICjPzEC7Js70X/VMYT/55GM9aiIATggLz75siquXLlC0SPerCHwACojJA3wxqzLxgjXwJ6/nn38+wZU4gIzmTq/kPjP3SXEnfBUHnY7hgKiwzNbKS/j33XTTTWHMmDEpT3lYst/hu7HDB20lYMvnJn3npwxAVBrA45lnnkkDYssrgedETaPzBpoAVgcSEJrN5OBTGvIoZeqsgX6z9Gv4UIqdnbbZdpvkN/vww3+qi5Pli7vCCiuUpskWXA1ae24hbRU+hJ779piR25p3Ga/1NcB/2ODfpbS+BmraCaT12ZcxOroGAAsfIsCV4C+CnwYSBAIjpk3gk2EJuIEimrMP/m9ceGO616JDdZ/kB9hzuobbZYaeDfP3KjstG80bLRvNmfwAmN64IEq+8gJeNGq0aTRv8uML2CceUx7ppDLG+YM9zLSEZmLRw1djLg4zmH033xzHkNt006Q5VF7QynTnPORPewcsV1pppXTOf/3rX5PWTzkdB34WsAhaMzBmDaC8wZ/jfBUzzPJ1ZD4upf014PoU5cknngyDlxtc3NUl2/xF3avLLLtMOPXUU8N+++2XoMtHT1eLjiDnnHNOGLbxsK4uSl3n33vG3un6taeQpoy89957wwILLtCeZLpdXO1jKdNODZQawGngWgO2DDr/b6KvHAACXiCN3xvzK9OpBgDoALRvzLhgmPXFJcKXb06Xhn758OP3k4aEBk84aTLfAig9bvXElZ7f2bQrLGh7L+anY8jgwYPDoGgqpmXToYPQ0knPYLxMXECVNoYpmNbu/vvvDyb8BnrMdOSBBx5ImsKsLQSy4JIJz7k5H/n+5S9/SeezzDLLpGm19Kg01AfgvPvuuxPgAVTnoayADwADAWVyPsoKLmkbS6lNDVQObOz+qQdxnzz22GOpKHqEGoLl6KOProeihZVWXim8+NKL4cMPuud0lHVRiS0shF7qf/pTfWh/W1jkaTaY91gpbauBEgDbVm/dKhZtXp8IOEymwIgwZ1po7mgCAR9NG7OrL18gBX6mmxBn7nhtYOj59Dxh+g/6JJjKPXABEpMp7ZzhMzJA5XxAFNMyjRpNH6CTD0C0gCplYEq2bYYPptYGzd8bSXMofWWmzQN/M8Z0dGbRceTOO+8Mt912W9LQgFZxaRmdB4gjoJBfoXzVA9jj82doGABryigaQ2Wj3QN5zNniAUmgKD44LmXqr4FVV101PPLII40neuCBBybt8q233Nq4rys3hm00LFxzzTVdWYS6z9s4ogYHbo8sv/zy6bq3J40ybufUAI142Qu4bXVdmoDbVm/dKha4WmThhdNwL3rBAiRQBtr4utCeHX/88cnvDkDtscceyRxLGwbUgNHAXgPDf15+I/Tv82rSlhV9+GjPQBJYM96gYWXEAVHyBl3ZTDxL/zjMzAy9EmQBO9o/x3TMoM0DdkyxTL9MsI6BLxoifoGG6RCGAFHaOWEsAA/ogU69kYGc8zTQM20jsFSurNEzfqDzNRYi4FVOX5NgULmVze9cRnVRSm1q4N577g1Dhg5pTMyQQfUg5os+5JBDGovixXLhhReGLbfcMn2ADFpgUOOxrthgBv7ud78b9txrz67Ivtvk6blvj/C59IH7RZz3vB7M/+05l5bG1YaWMm3VQAmA08D1psXSm/aJJ55IAAX6wBq4AVkmQAdHwGjgwAbtV9buCZcAMMIi4OJrZ2YNEMlUK5y1uBpdi97FOoDYrwMIbZxtgEfbCLQI0KMtFCfHVx7wRRMH9GyLB0ZpGIWjMRRPOnz1dGIBfoBSPo7TbDIZF6FQnsorX/uB6wLRHE2DyRysbDRAQE/+ygVoaUKdQwmAarA24voUZYklG0z7xX1dsa0HsPv71VdeDfPON28qwpxzzRlOP/309GF04403Bh8xXSXzD5o/Za1nf1fDaFfVQWflm/1Bl1t+uc7Kssvz0T52N+E/bK73UgvY+ivXYQDIj4YavbkbyhdHc8edDk2Qr7HZZ2tdry4+Y4RPD2lrOily/AdCfAlWK0dLziOnw0xpSJHVVlstAVje39y6Nek3lc5ss8+W5ku8/vrrk0ZrQNTOARwgtcEGGyTAAkabbbZ50oC5LoAHKIEwxwggBGLMpoDLyzJryWjpnB/z6mtxGzwJA85oCIUTXp4EgIE4wEbLBroAnEW+IJNpVzhO2czF8qctBGTrr79+8tUTTzrWxDGgaFFW6eWvW3lJG1A6L/vlwy/wrrvuSj2EcxjH5J2HlSkBMFVvh/wzXiQf0HoQz6Z7YfgewxuLY2o4mrfddtstXHvttV1a1m233TaNCXj0MfXhm9hYSXWy4fnO7X57isRn+amnngrTEgC2p766Kq73DgAspfU10CE+gH/84x8T4Bi2oykx0vqxxx7b1OHG/Sbmbo0/By0VADnyyCOT8zaTDrhobTqNBZi4QQMw5sYxlbvTb/AwJQETO+ywQ+qIcN5556Upx5gzpyQc0NVne6XPTH1SL8shQ4Y0mFKjJk/v1ocffjgNr7Lvvvum8QAXW2yxRigHfbRooA5Q6+Shw4g6zho2gOb32Di4M1Oy8KBL2jSP4jCx2jdLhE69PwEVsCLieoDBnTrKHwQg0QIge8UGPfsKgjvxjV2YvvoiqPaMYCkvAhClDTYNTwMMmbql48UgfWGlI03l5evHpE0z6kNBxxHaR/nQAgA/aTJpl1KbGqhssOtp4N0NN9ww+ZdWnum2220b1l577aQJ7Mrx+ABgOVNF5dX5+jct7uxztE5h8HXsr7cWjm4zXENKKWtgaq2BDvnkvuCCC8IPfvCDcO6554bNN988/CuCwZPR/OhhYmYDZ/xqvPh32XXXMHN8Gf/6179O5kij8NMcgUfwsNZaayWfLqBx0UUXJfAAK17Wp512Wkpjm222SdotF+nQQw8NW2+9dcrD7yOOOCLcd999wcPshS4fL5/LLrsswZgGnbby0ksvDRtttFHKe+g666Tyamj1QM1QIr2PPv4onHnGmQl2VlllleRrZpgR57r//vuHm2+5JdwTzYm0B99e+tuiJJGfc8g9yzhyMycBLp0uAKoXz8YbbxzuuOOOBGnMssquHtZbb71J0l58scXDyJEjw09+8pMEaNJYJ5YbvAwfPnxirl+vnMPMfWZO6TCzOi8vXWCnZ6wOETSBwIdmkAAy2jCatAxYth33O2vjgBWIAlODoknVNbZPfNcYPInTP0IYqAR9QOvjqLGzD5xJb6Y+cXzC3g0dRGjzaPr0Hu4Rj30cTYZ88wgNDdNy1uwZTkZ8mjyAKa5y2m/tHLJWUZmZdJVNOa2V1TYIdD0y9IJH95kPCMAJBIUvpf01MM+887Q/kQ5KwRAwY+MHTTWt5I8O+lE47tjj0vAwPuSMGdfZYnpFHaLuufueMHSdoZ2dfd3nN37c+PQMzxXdWdojPv5+//vftyeJMm4n1EC9+A93wqnWPIuat15AAFCddNJJaQgP5s6XIvgxn1CpOzZq1Kikol900UXDN+MLFniBMmEPO+ywFE/8PCQD3zXxOezrwWmqHiJsntor14z0t4+atiwnnnhiAhs+XtK5/PLLEwQyH+rsQFO13XbbJXi65JJLwpVXXhn+GYEray9pyPQUzXLOr85J5uA999wznHzyyQkagMIGEd5A3oURfoHczjvtnEAjx5POd77znfwzgMsf//jH6Vy///3vJ/A788wzw1Uxf+anq6++OqweQcf5DR06dLK0AQtRLxzDdWiYIUIcc2tzoqzq2hrsHXfccQmaABotHcgByjpQ8K+TLi0qUHadnNsaa6yRjgEmUAvmxOVnODhqX0ESoARdygnKQB4QBFMZFmeN+zMcZugUD6SBOeXoFfNI2sMY3355gj8mZRpCeYE/eRGA+VnMY1w8H+cC7oh1BkF5OH/3kzXNnn3uLR8sZl1wb7of3TME7JdSuxp4682GIYBql2JtU/KMGGqomhzz02PSPbjXXnvFKQob7rtq4TpyH1O09qaUyWtAG1M508zkoaa8B1hQRkwroi0tKju6y3nzHy79/9p2tWoOgDRpbiSARAxcSjjXb7LJJsnXigaIZoVGx0sWiJx99tlpqiPDehCQMWLEiEY/LQD305/+tFFbpTOC3p4HHXRQelmnSPFferFHqMvC1+vtd97OP9P6kEMPSb363Oxe8LSDevkBskpxLkUxGLF9tJjZkR1cLBS/Fm+44YYwNmoOgCGw5G+XBegAjiwaKX50v/3tb5PGElz98Ic/DKOjJpDsuNNOaQFPvkSrpa3nLrBk8h4yZEgqA23olIQm1cvjnnvuSfALhMWjWdPhA4y5Rq6L80kQH8tKg6tBpFUDYept0agxA04aS4D2WozDX1InECZW5XednL96EobvnQU4mt7K0DPqywDQ4yLI2VY/YI+pNos07SdgDrQBPuGAr/o1LR1t4fTRBExAIHOwc3K9XTtA6T4BqyBXGL/lmzWNNLHGgPPRIi/m+u7YOKZKqMN/xY8qxaO9rifxEUBD35SMPHZk0hbvFJ9Tw450thhHkYWgnAar42regNLailLquwa+/KJ9Pb7r++w6tnQ1NwEDwJ///Odx/taFw//e+F8yR2rcs2Yqv4TzmjkSCIIRsEYDR7yUswgLIgAD8GBWpCHK2p0czhoIMfMyQ3vZAzYmzqL0n6XBl0u6S3976fDqa68mqMlfjeAkwxr/t6KK+YADDkhmaeZnwJQ1V9IfFM2ftJP77LNP0jQCsyw0jocffngwrphy03ACKuCZXzQGPab1IsbNI7meqqXNhEt7lQdFBtVTEqbqq666Ko2f55pIX13TqDF/avBo7d56+63w/nvvJxPsG7HeASHTKa0bIBJOXAuhhcvbGZpp/YAV+KOhc311pJGG7TxcjHylDz4jVSdgcw2kJz7Qk9+n0bSbzb1mGmEalrZwyqReP4tA6JrwC5SPeDNFiJQ/UASMANa5S/vLePyLGF5cabwYQVdd+0v9BAAAQABJREFU8Bt0rzkH90DxfpxSHZfHW18DpgOsJ+FyQTvO168pM++Pf/LjcPFFF4etttoqPe9zzDlHp56CtuOy+AH5gwN/0Kn51ntm2oPih2N7yqtda+4eaE/a9RY3t9v1Vq4plYc/LOVSqQWcUk1NfrymAAig+F/xwUuydEgalqIpxcNpYWI75phjkklReBNw0+5873vfS1GFKQpzLxOqFziTrd6klWGE/9nPfpa0WUw40mO6o+ECXyTnn7f16t1t191SL1Mw4UXP5Olc3FTyywAoLpi94oorkhM2wKARo0WiQTvhhBOS1tJxkFF01Kbho+0ChUAEuOlNaP2b3/wmwSTA4gtoWJZ8buBInfBFoSHMaYM45krToqnfXaMv5Y9+9KPAjC3davLLX/4ymbaVC/xkyXXi3C3KBMoBkfMAVBn81AdQlQbNpHBgWT0UTbEJ2GJY8QAc4BNXXjSK/Bo1OLRu8mRKzjOS+A3QxAOC6iv56MXf7i9QBpCVTd6pw0dMyzlJX7xPIsTan+AzhvNCcB7uCfH8Fnd83GZmdq7KmkGV9lM69kvTUDPdtYHM17me1q5rUf75j3+mj8bivq7c1iOZCwof3Ob87IzH50MBjLFiLDu483ojDo/t2haxDSgBcNI7hS/xKqvWxmVDW8OSAe5fHvty2pYby0ZXTRP36ScN46R2RP7aulKmnRqYLr7UJrVxduK5AwIvezedF7OXgpd2U+LFLVwRXpoKC0CcWjUtYTGO9IAVOKI5BDe0ZOIqX7UvSRACSixEWOk4F6KjSN+Zq/viCct0zBRalObiyC+Xo7lwxfTytvzIKaecknwL+TZOqU5y3GprkPTH6KOoUw/zqLR01mDOVl/qBGgBJ0BLU6tzCZ/C7PvH/Jd9awZFrSmAdr2yVs5aPPDmmmuAaX/dH8JJW49inYecHzh039gvvOugLMJqwJVJOHm61+wDerR//CbtA6Cuiw8TaTBL09C618w8wh2h2DgWt6vVU2ft4zfqXLhC1FLUwbvvvVvLJJtN6+ab4vzOm23abJjOPnj3XXcnX9zzzj9viln//YW/p3tk3zh38E477TjF8LUKMGKfEakz27rrrVurJGuWzqGHHJosIuusW1/m/dacIOWAjoSLLb5Y2H233VPnEpYKVgFt2pVXNVisWpNme8M+9eRTaZ7qK668or1JTRL/zjvuTO+Ik085eZL99f5D29ESDWC/vv3SR31nng8XL0zBXaseZdLP8E4uYRHkWgIlNEzFOM0Vl/amJSLfJWJHB6ZbX/JeqMQLPkNXZTqV+4XN8CdsU/DnmLCV8DelOMX8mktbOtXEzaf3MW1hS+ulWjqgAGTx8wNUwAx82FZ3es/y0wN6NHuO0aLoSALgLM8991zqQQ3uQB7TPiDrHaGNSZdkczKos521gD0iAIJL8lFMf/pYl+6HpOWLeUlPnq9EDSNTsXOVhjpXJuJ6S8O5ZPgD2PY7N2WUHlM8ELVf55ZSpr0a0PnKMEx8/KZkojZvsI8rnbIeiD3sf/GLX6Re7R1da/LzfNcjAHb0uTeV/uefNXQCWX6F5ZsK0uL9NH3cU7JQFqy3/nrp58ILLRw++vCjMCp2auT3zCKjbbkljgTBUsSNgGvT2OhHrd1jBVp/g/WT3+YVv/td+nA16sXAuQfGzn9XJX9ulisWKx/arDwsJ/zpDUZuwGMuUtqlUr6uAXVdmn+/ro/WbDW8cVsTYyoM+/1oYvWg/i4+lEzLU5N4gekZzc+wrfAH8CwEYGkQadhozWjfHANq/SLI8UNUhxpCUAj+AK84vpqfeeaZBFfMxzqP8LUT3sDUGjbmZz54tsGdMoMwa8AHzADhhJgnWAN2GsvPozZPnsrXN5YDzBGgp4zyoMmjDQTrygQ6c5wcTmcPC3M0iHVeABBE5jpICZf/2lUDjz362CTxaVPqTbxU9HrXI78lYoaQy393efro8bJ/6MGHWhKtXWGYnN3Df3vub+1KZ2qKrA3IH3ztPS9tD0tCFvNE33jDjeGoI49K7Vvffn3DyJEj04esNpGrEX/v888/P3UC5Pajwx04FO65Z58LP47uTKwNXIu4M/Fp98EwfPjw5M6j/eHy5GNaRzs9voGmXudGY6BR6ggxbqp2rrvJlD7Outv5dGZ5SwDszNru5Lz0ajZ/7ujRoxvN1W0pgkYhL4BIowi+mH5pAZlWx8avXJpBoAcMad5o5By7N/pR/T36/PmaJY5p3IAY7R+NG9ij6ew3S7+0LwFazKeoBQR1QA5kMsNomDX0Gl6dPqzBoM4i4gNJYKe8yglA/abxY56mRRS+d4RL4ZWH7x9I1UGFRhM0ypN0x8YxFbwO/7l/irLSyisVf9bNNg1Na8eC22///ZIvro5eBx90cIf3EtaxTMe7UmpfAz4YiwCoPQWBNHUsKsSH7v7f3T9ZWfQeZ/LeL7oC5KHETACw9pC1w5AhQ8JDDz2UxmA1Xu02226T2qYPP/gw+VLrYKhTZMPUlHcljSATot7e98ZxXg0Jtsmmm6S0a3+m3TfFf/z9H9238F1c8roDQC9pnRp8xbVGvNANIaNzgWFfDBNTfHCLadVakwMoABBpSdpefpVD06TINfynQ4i6pL2gMauFACCgxjQGpKTv69UC6MAfzRnYYtqVr3p5Is4EMksErAR4cQ2saNc0ruBMmnkxELTtrK10HwjnNwB0DDASHTMcsz9r6gZFn0INJZhTz7R/7gPH5Qn4fOkCS1pEa6JDCO2jTje0UTSNzNdmeSnBL1XRNPnP3Lu00fyuWiMLfmvBBAA0OLSI/Ak7Sph/fWjxQywlpLZCvddCKgHQB8EJJ56Q4M3HKtGGEYPFaxMJ/2HmY8I8THR+8/EK8vLHsGPeGdtvv30wOQDYA33zzDNv6lR0w403BGDIWpLTyeuUaA3/aQ+7o6QOhXEIsVJaXwO1IYPW5ztZDA+BIVs8JFTj/CB8YXkht0T0wqUV8uLWi9eXFt+YyqFR9F7lD0cdXyvRYcA4fWYJ2GfvfVJP3ubS1tPXV2NxYOjmwrf2GL8gJgY9hmstgEnnDw3WqOj7kjuoMEPRwIE81y8DFxhzPVxfDSIAUzaAlrWKM0aoY95NIAfMIqAJZ22fPHMjCzDtlwY49LX8zdigii9/IGr2kBkifM4cX9w0g8YW/DweA5EWaSlfgsd4LA0dE/MhwDVrJpnxmKhLqX0NVL6g/3jnHxt9q2qfW/tSNPOQDmLnX3B+qxJiQqYNNKakTjqeF9NfdkTvTdp+abemY4Ce102NGNCqE20iML83H2BmJ+oI8fzyyaucQ9rveeebtyZZantaqozQ2c1EA8M2GpYsE4ZE47Onvfc+0v7xNdemMetqr4w1ysrA5OtaAMMhUVOoXXPf+YjmgqITimHHhqw9JL3jfAh3hJQfux1Rq/WbZs0BEAjcG9XVvnJMV9RS4SfBdNjSqdI8GDR+Hg5an2ef/Wscf29EeqjkufzyyydtEc0g/wpaIFO1FaegM3gz0bgDA3PWGnLF3Lt69R5yyCHJVFg5BZ2OIsDSdGoeXKZOUHT1769O/nYgU89Ww7lYe9h9tTEJ+FrJ09sJVzwPPh60Vnoke0EquzK0Rvbee+8U3FckaYlGMgVswb+clkbRQN0gzGDXgMkCqjRMIBCkuRdcBz1rzROsAWTy9ZUrjHNNw6vEsL1ivNzQGpeP0NRJQ0MvvLV7RBrSomkEii9HLWOGQlq88bGBFVd5v4plmhAhjxYH+Fk0csKTL+J1NmuIsoNH+TEHu680wqV0TA3oNFEU17FehdO/j0mzl7RlrL/55p8vXDv62qCXpedz8ODBqWfpbLPPVrNTNlSN0Qvuv+/+sNbaa7UoXX7Pfx/7fFh97doMmVKZ6Zbzb1q5q6a/R513eRwsf8f0rikmbNw+H6b889or3hv54/PS315aNblHH3s07Z+h1wypV/DHH30cPz4brBQOaMMNE5Q1hltutWUCvzSiRRyyhtx0802xbXsv+UL7cDC7xaabbtrwUT1xjMxfnvHLFnVISglOQ//Kj/S2X+yaA6BBUWnuvFBpoGiKWiLVpkoTj8OrqdIMvAzkPojanaejjxZIM+OG4Tn46PSNXbx9Tek5RXTo8LUlLtW8zgj8MnxFgQFT0GUBnxpl2h/HjaV3xhlnpDEENaq+0ACZ9J566qn0QPO5oW0EgBp1nSzMf8zvTH4cgY1z6OvXfhpKPkEGl9Upg+8aM0HxPPRmovmkMWBONa5gawDw9NNPTyCrzB0h+esQiFl88WrE7rzzzvSlDwyBNBgEghYv9hlnmjEBGwgEzs6PyRWggUjQxayroS3Cny/lcePjjB8TwU26WTTM4uTexvKVnnoFcODSPmkrA7gE28LYZ3DoDJh6DPeO50NzKU33rnPNS86zXNeuBvTUNNNCdxEfcb/61a/CyGNHtrnIeoDqGerjjK8YKPBRWoSFNiceI5r2ktbIXOKVWrGm0l1i6cXC5ttt0tThut5/87W3Vy2f552fXi2Gn8kWjqoZNbGzeD19/HIpyfCXoxhc3HiFRZl11gaTcd4HBCs7OFT+zmFrsdY2dkdZcaUVu2Ox66LMNfUB9GIFA4SGhU9DS8WLFxRkARbNTpUWzcUaU2AnL/Bgu1JM9QbEDJRMYwhADF5Mo5TFix4obhdh1QOrYV5hhRWS1qraFHRMzRyvQR2NVBZaT+dBy+eh18MLxIE8UpzeLsdh9s7nQQPFd5GDMJMOTVdrBGh2FPxVKweQzlOmgT8aS/59zLT8Amno7o3aYOM0cZ62H4hZXF9hsz+gewdUGgoma+++HPdlHKvP8kV8oTX4ASqHvNwr4mboFB8UupbWrq9joA84WltAJQ0hzR/wUxb5Mcdo7GlqXQMdXKRVSsfUQG4ncuorrVSfnUBy+QCgMnPYb494qe8+fPfUJri/fEQdc/Qx4Y3X32hPsimu2Zf4rPpYLqU2NaBd0Ka3VbbfYftmBxJva7odFa9s8zqqZusz3ZoCoBe4DgJZto7awJYKjRl/CWBAaMvM/WvmjLHRxEdoA2ndSIYj2prmvlyYGL3UvdxN0eYGrxaetoofWVb3y0NYWkHaJAJqmHszPAKMYlo5bRrA7OQLYvOXXlGDlRKM/4rnYR91dgYo/jOtEfXfmeL8aTw3GrZR8n8EuOrANQFaANC5MDUBaT5BTz/9dDK1G+pAffL5dJ75XPM5iP/F518kuAf4wNAa3JnvN2kL43a+X1wHdamxVi7lAKjAUHnsEwcEGk8QAOotLB8g6JqCQRpEcZiYpVFK59TAXAPn6pyM2pgL8962226bhvdoYxKTRNMmHHzIwekDieaZpWS/ffcLLzz/wiThWvvDh6MPzicef6K1UcvwVWogmZJjO9IaMae5aVDLeZpbU2ttD8t/WJ2X0voaqLkJeMyYMcnpldmUWbWl0pqp0jjXZvGSLi7259+2Dz744KAbPvEVT8OXp6BjciXF8GnHxH/2M/FWTkGXw1TGo/UzjIip3fhvmIaOlsr0dET4ohR/57RoDGkO+bJVA8Zi/K7ezuXvM1OfsNiii4X55p0vjVNF26c3HADMWl3wBtbAVdYCgjH1Q3MI3EA4SANkwoEz8QjAsyRtYIwHFC0AVDhp+1pn9mUC8qEgXWEy1DMX522m5p4xvQyVGnoCIqWXPzTSzvJfh9fA6/99Pcz9jbk7PJ/2ZOADksaOK0kt/MuUBVgO32N4Wm679bbU3rj/WBcAZ6XpcErlZ/o977zz0uDBY6LPcaVZcUrxp4bjzKRFRUR7zokrTmt8zE468aSw6qqrJvcelqaNN9m4Pdl3atyiMqNTM25nZtr7UtpWA106FVy1IrsJ+YXx4ypKa6dAK8b1kgcU+eUPFMBVBphi2GrbGV4AypQkmyGBh3zkSQPVUmH+ZcoFRjqF6JjSHumsh1o+6jMDFSADXBpQGlQLIKPpcwwEEvXDdD5o0KBknvfbCxCQZSgDY9I21IV03BvqVzq5vtWx3sTMuzR8tLkaBuEstqUHOuXht7hZuytNWkBr94q5qWl/m6q/lt477bl2LYnbXaeCo93t1btX4yk2NRUckysN/iKLLtIYtnLD1z/T6r/++a+GoYEiVHWUnH3W2em+PvKoIzsqi/Div19MHch0EtO5bMf4AbtetJDwG2upjLlxTOrcZgzQpvzGLjj/gvDeF2+F3ffbuaXJ1lW4Edt9P5z7q19P1gmkloVcc80107Bk0jQXsI59PmzBuc42ht6hkMijOnDpoWTYZZdd0kc8a5COcnzHKSKWWnqpcPFFFyc/cb7rlAurr7H6ZDOBuJ87W2695dY09uDPTmhQWHR2/m3Nr5wKrq01F0LNNYBtL0pDTC/WSvhzpC1ToOWygAMv/SwtAbkc1lr8lsahgcrS0jg5vDUNA0dueXamP1+xDG3ZzkCUQGxiJxBaTHCnR+34CYZb+awRAMEY0ANY1kyvzOYgTFoADeABdcct9oM5a/vlJb56tgZ0TL29YhiwmX3+Po4fFIaCEV6a0gai/PxcL/cGWJeGxSCvBn+2XUrH1EAR/prLQWcsL9hHY8epprRZfHaNl6aThpkYTK3VUeLZpF36bhybranytDdvYwh6Cet5fF8cRJ0v9cg4xAsfZx3RuMtMSTO4+Rabp49IpmVDk/Qf0D+ZyboCLNpbH62N7+NCh7PFl1i8tVGbDe/eMuesD1I+4I8++miCupEjR6bRK7gw+Wj08WgsW0NgGVSe7+jwOMuHD3odJF1PHQGl5WN/zE1jUgdHmtuzzz47aRBrXfZmT6ybH1x55ZXTB2A3P40uKX7LPym7pHjTXqYa91tvvTU1FG7s7ioZnjIQztxn5gRVhlYxqOnSSy+dBloGW/w8vdyEpe2h6QNnNIhgj+YjwyKoy1q/3IOYxi6Dt21aSKBoW9jxE39nmAR7QDGbncFn0krGcHp7G74op9dd67/ey13p65b9aovlptkzdBJz6KVxDL0sd/3xrnDIwYeE0deODqaUMw5n1qq4xnyvzvnVOeHUU05t7FxB23XD9TfEabh+HGeseS0n1eo1cDXywM8inHW0gLUhQ4eEc849J40jt0ecE5ZFgNZoow03CiN/OjLcftvt4f33Gua5rizPHnvukUYVMA2ZeWS33nrrcOEFF1YGa/b3MQf9LKy22Doxjw8aw/3mrFFhpYXWih1iWuejvP7ymwa9v0f9+vLw4j/HNqZX6w1thXakvWIO6N69vlYcgDVgd84556QPRp3FmIe3+M4W4eRTTg6HHnZociFZIA79lYUGVgdDQwkZENxoEcRwY2b10L4NnGvgZDOB5Pjleso1YJ7kUtpWA3UDgJWmThocw6RUiofOi70WMjZ2LjFkQi0kA09zaekEMS2LOtLgJaiLsAfmLGCLCQUMMnl9a6FvJd8+x/jkzdBzhkZtHB9AUMe3MJuRafRoD0GcewM4fj5Ry5f9EB3LWj7bQIGmWVq2+evMGbV+QFR5lLGUjqsBY0EWZZ04fVal6DjkY4HWLQ/vBGT48PKxpRl0H9AA08oZSBfMV861Kt2jjjoq3SM69xgwuT3Cl5hmpxJi25PmlOKCwdVWWzXNQnHX3XelYa58RN11110N5sg11wq777Z7gt6bxtyUTJPjvhwXttp6q2RJ4MusA5ahs9Zbd70WQ7Dnw7h2t49pGMlAOe+4+a60L5fZc/2f/2voKGcfyLO88d//hf+9/mYOFs4adXp0hI5j3l17yyT7334rjucZrQNZwOY7b78bn+OP8q4uWRvNQSfCLDR4FsP4aHuAnraGPP7Y4+Hcc85N7UbxXeBj0nuG6PDGZ5lkK5d2xscuTW1xJpAUqJP/FcvdyVm3K7v//qf9sN+uAnTjyHVjAvZg+bKiPicjo1rdkC16tRVF48unAjC0RzzA8jK1D7Nre+Too49OgzvT3jUlHi5f7h01kXdT+XaX/bR/YE/DCND4fhluR4PJXKz+cgPlpWT4Hb18SYZB4Oa68p+kBfTbAhCLmkPpyE+P7mw+pg2k/bPO+XSXuptay2l8Ti/HU089Na1Np6aDkeeMZsxCXOM8u4ZrZ4B25jSa4wsuuCD5BrqXRuw7Ijz37HOpbUkR2/gPjBmh4MgjjwyjrxvdxlTaF232OWYPW2+zdVqkNH7c+FQ35rA2Bh5g1sve86B+3P/cHjwXPkQNu6Oj3sbbTLntW3Od1cIdN90Ztt9tqzD23y+njitMyuRP9z8SjjvsxDDLgH7R77ZH+PkFJ4bbb7gzXH3Z6DS+Ibjb94d7hZ323C6M2OGAcMwph4fX//O/cPbJ54YVVvtNOHTE4eHf/3wpDtY+IWy27SYx7J5h8zW3jf68vcO8g+YJv7m69WOaOleuJ+0VbbUe2ll06jM6hTrNvsrGczTzhw9P96m2xjtLp0bC9GsWGJMJaFvs10mw+IGp86DrVZwJJOfZ2etiuTo777bmR3m0ydxRm9oFfpNtLXO9xKs5AHoQ7r239TOBeFB80YMyjRTTDw2AXrH8OTx8TC9Z+McZ2w8wnHLKKemho/Y3q4eHH9jR7GTxNVecmeP8889PL3r+aUUBoV4ynHmVxbmYyof63ph3aZDV2MDkWUiYV0wDJ33lFpcJk79IcQYRGqZSmq8BjY/FPaQhBX8AzTbR8JIZo8+eeSvtNzyMBp9JFxhaa1A10CAPHHoB8tvRISUP6yOtrBF0D4nja1/8Ujq+BnzcFeXPf/pzWGXVVRp3MeMaw5NflXsCrHieDLpuHxl1yaikhWmMFDeE9fzTCOtVrE1wH2UTs3uiFoC/xpprpPIwK39ny+8Ui9Al2z16xikaYwcDS6XwidOe8kXLw1j52KLFbImsuNoK4dI46wbN3Jhrbg0bbrZeOO+Xv0lRf336heFHR30vbLDpeuGUY34RRl9+QwK/WWcfEK667bfhlutuD9dfNSYBoAhrrrt6+H/zfTMcceKh4fE/PRleGftqGHP/NcmcvOnqW4Xd990pPf9nXfrzsMxyS7ekeJOFYaavnGlmskAt2KFN91GY5aKLL4oTEXwQZun/9fishx9xeJqOzrsGgCy3/HKpl3ix482tt92aNKZ5gGi/s+RZRCpnAsnHy3VZAx1ZAzU3AZsJhEaNeUIvp5aKGTA0UF7M4GqZZZZJX0Ua8D2j7wvTxb8iCGbJ5h+/Te9GfF0xI1K1M3lkAWbKxdfMQ82Xw3RsOino5ZXF7B7874Q1Qv8zf30m+W8AP70tr4ovHmPa5S88cErb9P/buxN43abyD+Cb65qHzJHLVWSKzEPCzRCVIZkyS8lUJDPhkikzkSlDREihEiHzGH9SCeVf908pIpln/Z/vOndd+773nHvOe+4Z3vee9ZzPPnu/e69pP3vvtX7rmRZjXyoo6pgrrrgiza6txwt8UGEx3C7Ucw4AbHmGXR+sE0CMAZy3rzQA34uhgsn2gez+kOftnCXeDPyes3JcF6aH5JBESDrOHoDf0sssPU4t0/OWlpS95cByyy83XlbgvE6+Nd/UEh9bIi2LRQ1spm9tcJKs9T+3flKZCdju+e34pR0T+FMG+yqagtU+uVpaHai+5Fp6hwIk9gWZeAq6/MrLE1dVPvl/TyYbPOprm9/N0uuvvV799S9/rYTLaTa+HECkP+VgcNTRR1U8mL++x9fTGt09aQev+pVWW7G6/pobq1tvuL363CYd0i15//zon6rlVl42FbPMiktVD/7mt+n4Yx/vWAZ0tjlmS9LJdLLh30P3P1wtFiuRoJlmnqGabY5Zq98/1GEms+jiH21I3dxPEsVJJeZGjcuZ1sFfLl9Mx7r0qQ7+cpoM/vLvzvaciurldJamnJuQAySrhXrHgT6VAJLcAHHI4MqmoadLwRmkV1hhheT8wMZCh086p5OlamHw/59Q+3VFJG8Gd50cEFk3Ama4S8Ijvh6JnXKJ683aRo4cOa5IHnfAofiAZsdUuwynAUv3Q4II0NVX72BzxK7oI7GuMJvFLbfaKuXZPbwELUdH4nDaaael1SXGVVQOJsqBrJ71PPEW7w3czmcC4PJqLQA/W5wsAdQhAHuAYpboAYTAIOBIcjh9pDEokhaRiiB1FGoNDuy6267jNcSg+tjjj6Vzl1x6yXhroupnPPu8tJy1dy0LyZQgB2HPkpZFF1u0+vGVPx6v7N7+ELx6h9BcUAefeFLYt3VBJoriYmYtgIDpX/7Kl7tI3flpYESfJcQIteS2223becIuzurXqMXxpjf0uY3Xq4751vHV3PPOXc0eoC7TsistW9118z1pObl7Qx08/4Id5QONXdGUU1iB573qU59evdp314M67HZffDnUy2OqjyzSoXJtJuRNYz2cN+69995JXgpOEP9GANhYV/k9+BywDnah3nGg66+0F+UZdM3ar7/++pS7mZVAZKDiJWkDpKhc2VeQ1JllW6MXwMxE7cdRhIrwlVdeTgO5DpaEjvonq4mk72pljlxW3vvYgQmkw1xuueVSeX5PbBUSwCFLqqaP9vidVY1sFfMKIsopNHEO4KNni3/sv8Tpy3Z5mcfAHPBOjQjAAftWFiEZkkY+K5B4H0wsAD7vCbXXR2MANdOebtrpEkjUmgL8Jv5M+uMq71UryGRqdqCtS1lITTL4y+UBEBn85XP9saeS5pByx+13VKut/r42obEuE9q6qpiH843hgHbHnXemCeXiSyweK9O8nrQe+i9aD96NJIb6smzvqlwmMQfsf0DSXvAk7S4+HfvqTLfdelv19zBR2WqrLfOpie59G4HXqlVGrRT97KvV9hu9b+fs/I5fC8eTw06szj7lvBTX8XuXnFr98icd/b+CO/u2FlrsI9UeO+xd/eTmH1XLr7xM9YU1t6xeeenVaue9dqpmm70j5udEGzUAF0lZ9TuTAkQHoJl9WoW+s7Pn1aeVlMJaigN9CgDdWW9XApHXmrg6yq233trPJIm79NJLKwFRDeJs6zLpdMX/IjWceeZZ0uBOWsduz8yfGigT+6/GlTlSx9Yg8dHp6tDFzSLRI+mj0gU+gU22gFTPmXIZ1FLqoyrOH1BnK4jkazl/2U/IgcxTne/IkSOr3//+9wkQkgKSAAKHjpOK9913qhmnnTGp4IFB6vhXw2GEp3DyBI73INv/AYPUyrb8HDKgnLAV5Ux/c8Dzq5PYd+1IwKf4g9ttv10KydKVqu/CCy9MJiLukUaDo4qQIMCZPk98OJ7KJjTsHamwSTZdFw8we0HLT6PBxtjG/IRjwsTi05H8ITbV+q96WenCRP4d893Dx1297Xe/Gnd892M3p+PlVlq6uvz6i5PH7swzdzhlffnr249Lt/JqK1Q2dMcjHZ7ER558aAKTM844Q3XocQclD2A2jNmE465Hfz0u/2Ad/E/E6etsbfnBas9A1/vv5/89Thhi8swW0jPqKf3r2Y611I2bTDSseNNIOYB74/n6b2YPhCiNE7x6mrvvvqdaJXwEivq8zpWeHfc5APQR91Tt21kTzW4z7bXXXqlzVGbuHIA8pPMDurI7vXM6Sp1odgpwLhMbQkb/2TnAeUbmdaJe0bnyOs1G49dee21VX4VEZ5uJ8wcSr4+nV87jHB6IFp/UUPEBIfaHhXrGASCNfR4gKJSLPQLogAcqP7ZXAoQDclS90s8VILEO8DJwBB4dF9DXM/4PdCpe390FNx6oNgl74p0bMf+IHlXJA1kIlgMOOKD67unf7TQPJzZLhCGSaP3Kk089mcxD2ApfG7bHN9/865h4LpTUl8Lk3BoOaAAeKR9TCA5qyIoS4spZ85eqk7YCwGQyoY+rx6cTow4xzRE+5xvf+Ea/BMrO4C9V1oN/wF+maad731kvn5uUPe3ApMZQveuuu5Lj4aS0o53z8ki+4IILks2tyTQThhviHaI96QkR3BiHac6M1Y3B2Xn0C4a93/7v2+p3Vq5vynvLFrgr+ndM/Av1jgN9DgB714yuc9VBVWOqOvjL1wC8rshMpifUWGdPViFpzKMeoKOndfakXUMtDVBnANRR6EwAOwDQWsGAnNklyZ7zNunrAM+5ut1g/Xio8bLV7jeDodwu9rfrb7B+/jmoe6BKAN/vndnzECRf2ekr1Rabb1H99Cc/TbH3Gm+AlmCNUWuMO+29XmuttZLk8MofX5mc5uabb0SyYV5g5ALVKSefkuyNsy1z3iuAiQMyKJtoWnYMAGQbCGgu2BCf7r777kvpaTM4p9Gc5LA56cJk9o/atitJbE9v9Z577qnYcQ9lEm7piG8fkViw2aabhZnD7emd8y6ypR8ZGhogUR9MW0ZKd83V1yTpNtDIIZP5FUAuWLkIHSbuHD5p2Wj0CEmY7pBKjxo1Kk1sOPCQquflQ4fyM+jve295ANjfDCjltyYHADmAjbMHoE+yQQoICNpIhJ2rUx381c+X49bjgDh23VFed1c6S6+9GIBfGCbSsT2/sWd1T6h+GtdY9Q6QOggDZTkt6+oabAAuYMl7c/LJJ6fBh43xmmutWd15x53jrdDQXbu6un5WhJbaIExTRBsYueDIcclMRBpJ+2gNmJWQTFP30mhQB3u/OapxWGF+MmqNUSmMkcmkskQbAJjZyS6z7DIJ9HUXn47EkSqNNAYIvO766xqbNNn8FgAbuOitwwsJMKAyx5xzTDY86c2NsMUXVJwzjNV2OC8xT6Bp4zgHvDF18g2OHj262iBA4UknnZScJ0ntAECSRKZdJHlU6t7rffbZJ0XKyEIT7zxHKaHZ8P0Pf/hDkmIDmSSJ3ZFyi/q3Oy51fr0AwM75Us4OMgcMdAZCs0c2JDoFhvA2KjQ2oTYdBslfke4N8gNrsnrLsc03Yr6J5rJihygAJF57heqSXZy1gYVh4kTC4WuH8MJlJ5fXWCWVAOxIxUi+5DHgMPc46KCDkuc4u1LLcxl0SCLFcjv+uOOTSvWII44IB4mtJtquri5Sj2kvZzbtyesdn3V2hw1ePd9CCy+U1oAFNrK0aoMNN0i2yiY22cnl5FNOHs/jOZdhpY1sF9WT+HTX/vLalBUo2mzzzXIxk+Ven2CS0FsASPXOAXCoUeMEmgSOJFT/e8ONN4SDzmxpEsFD/0+P/ymBbEGtRd2QNtvaM0+wTnKdfHOk1L4J79/FF12cJH9ME0gAfdfP//v5ZBrBadJEZaWVV0qxNuvldHY8OUuzO7vfvjxXAGBfcrOU1eccAALZj7Cf1EEBgGafQAFbTdITaQq1FwdIDeoAkANVI5FYCZfCO5ZqE5hj27X9DttXG26wYXKmMEhkhwr52bgJAnziiScm6Rq7UN63YnEqg1pPpAEhnsT75Cm8y867pOXS+sJbf9VPrpoAKIB59jlnN97SBL8z+MsXSDIy+MvnGn87n8FfTtNVfLp8vav9A/c+GN/Qf7u63NLnxUTsDyItJd0ailSXVpM+ZxVw5kU2seJ0J7Ta1ddcXT33r+fSt0a6npd0BQhN1DPlqBi+R05QALb+nLmCb9q3cv9v7q9eCNvbK0IaPmbMmAQAs7lDLqezfSvZD3fWvlY+V0bOVn46pW2JA2wwdRwvhAqQpI/Ez5Y9gaeZomu7z8LC9uBAZ+E22BEBfwYDThAoD0DCxuRBQugm6iYExFFTPfPMM0m6JwYnkobK6dmYOACHzAp4/LNfYm8k1IrYn3Uv/5SxF/8EWf7qTl+tzjj9jGr3r7WuHRnQ3c6S81133q2a54PzTPCE9A35fZngYjcn2J+ZnHgnCnXNAQ5beRk8Eteddtop/WZn+tnPfDZpZ3yHGVAyO8greYnHy6uYtHyNNdZIE/mNNtworePNY51pBDtBdoHK7o6YQ/CCL2rg7jg14fUCACfkSTnTYhxIUsC5506diqaR+ulYOISkUAJx3Ki+aLFbKM1p4ECjA9fvf/f7asmlxl/6y0AuCDtVP3UwygPKDqH6bVxj1YpAbI3YyvGU5cVrVaL11l0vhQiiAp4nAJ+8pMgmFatFnFErALmmHt6/9XrSj178E5BeMOqFI3D8p9dbtxcl9H8WEljOK5MbkY5akq03dGfEZbSKVWcTkt6U1655rJvdGeWA6q4xndh77707JuRjQ8SwLRWIO0ut8wSIOh5IM2nPphHWrGbiY03vuimEsjliAX+Nkm7XCvUdBwoA7DtelpL6iQOkFFQIZvXZLlDHYY3XBAJDlVCovThQ94jVchK6RgDo+XL6AASnGt7RVXHaQBwkGtdYdZ4zBWCXVauHHnZokiKm8E/hHYpuu/228dZ0vf2O28f7Lc1aa69l12sycF188cXJI3jOUJVx1ijU+hzgtMBLulDPOJDBXD11Bn/1c46B6qmHTT3udD1Qe/5e80XSvAL+Mjf6b9/RI/Zf+aXkwoE+4QDAZ2BnaOyYBImHcI4P2SeVlEJaigNs9gwCGfx11rj6wLHiiismG9H6OXkMNI0SnUabucbfndXV7DkreZx/3vnJu3fMX8c0m72k7yUHmA3cHR7izRLHGjZspMaF2ocDRf3b+2dVAGDveVdydsIBqtieqmO7StuYv/67fqz6rBLspCn9dmow6uy3mxmkgoVeqdOIERMGXe4qqHI9X/348CMOj3Vquw8vU8/T38cLf3ThFHbG2r3sEwv1Pwf0EW80hIjqSa05ZEnjZKEneYdimmf++UxlybzBpmL71/snUABg73nXFjmBlYHcqGttPamzq7SN+Rt/96Ts/kzTFg++xRspiHedPr70x+s/J6vjFVdasTry20dWW225VWWJrEKtyQEx59iHFuoZB773ve9V1103+PEk2Q+zBS/UPAcKAGyeZ0M+R6MUri8YUi+zftwXZZcyWp8Dk3sHzubRMpU8IPsrfEnrP+WBaSF7T44czdCD//Ng8hIvMeU6uHbySSfHmupvpx/fP/f7lbWBL/nhJdWee+xZHX3U0cmuNvOXmYNlOdFpp3Z43ZMOHnvMsdWFF1xYUa33J7EfLtQ7DhQnkN7xrWVyDRZYyvXak7Yh+3y+zqB8PV/Lv3OafF5AUde6KienH4h9YxsHos6hVEfjAP2zn/0shXJJcR7HqnH/b8z7Hbu4YwzOxfzKnrpsQfMao/94+h/jQkZkJxC2YM8++2xiKylyXtuXFE4MScSxaJYPzFK9+8671d/+9rd0zj9OR8PCs5GK66UXX0znrUSTV4d46smnkje6C0LJsFXkyfjcc8+ltJyT5pm3I0QJwGdNcGEx9t133xQI16ApDfKu5aDFYqoJjIvYuQq+KzSJdX4zfehDH0p2kS+9+FK074V0mufzXHPPlY4F2fYtIXayjPJ5ZuaYamwqlYGefebZcSvqsK9lC2ngt5JGJquoULMBAdYtRvXn9OT/PTnuu+/NcwIQxI1DffGchPthf9kMiQ0pdmOhDg6IuyqY+ahPfSoFYxZmiYOVFT6OPfbYFDYp8+ryyy+vhBSacaYZk+PTHnvuMcEqIccce0xOXvYtxIECAFvoYbRyUzIgAta48mfQ5rxOW2iWV155JcVyevvtt9N1aVy3ZccNg4+B67Ww0RkW+Xj1mrEbUDh0KEs++0KTLwesd1sncf2ohXn8ZqqriQWdRYBUPg+QZQAoZqAwLmjmWWapZog9EJTT1oOFA1gvjgV13stZ4s/7m9MqIwOkN6PM+vkMAOXPIAvgnCb+6m0DyOaJPwQ0ZcAp6K1VR6garVBi/d76u24VkFxfBoi+h3xOeUAWcr/5vPZnUl+OnwbUId9sTqvcfH++2Qzq8tJcjbxgnxlfcfX6G++3TZtnjz+UQajj3jwn/UVuW/054Vk+3+xz0pae0l//8tcEQFdfY/WeZpns020bQddPj1BGJlDrx/KG1vTllGXJQUvD+d66os5WCTmm6j8AaKWSQr3jwBTRuRTlee941xK5BuLxAXAGBQOOD1+nrHM2AAJtOn2DiOXaXNeJu5aBojQGRJ24MgwYzk0f596L10+6uSPOn3UiAYA3YpCfJaLIk85Il2kg7jXX5Z7bgUgu8FpMvL4kz/uF/3RIl/qy3FwWyZql04Yq/fGRP6Z1f0ePHj3JIWeGKg/76r6/8uWvVJ///Oer9TdYv6+KbMtyrPv7wAMPVJyp0GqrrVZNNWyqFBz95z//eVpO8bjjjksSQFJvff0iiy4ay7pdlJZymyv68E/E0ori+6277rrV3ffcPW6VkK7iCg4ko2aacaZxUveBqvei4I21ya2f3IpUJICt+FRaoE0AQAZxpAnUR2aDZutAHEkFEAi8AWoA4PPPP59i800FxEUa10kbgDjSEcDPGp3OLxYSHyquV0KS8o9//KP63//936Q+o3pTNxDp+kwBBGcIlQ4JIUkhgAicZUkhVgGG7QLYWuDRtkQT7oqAu0N5wF18icUrXqfWLP7LX/5S7fTVnVriuQy1Rjz824dT/zOU38WunrnlFi2zyDyB5JqTzNe+9rU0Fiy77LJpUj9l9MXA3vbbb59MOCz/1tkqIV3V0RfnmUgUz+3ecbIAwN7xbbLNlaV9QBq7HDZN1F1PPtlh5zNy5MiK6i1JBAMEAnoW+vabXRebI0Dx9TifVGMB2gBJIG14gDrnLNM1XUgDqafko5IbM2ZMWoKJGkoAYGnUnySCUZZzpIT2s4SKL6uM5S8AcLJ9HSfrG6O+vuaaa5LtmfhzpLkl+O3APnIS2MMOO2xgK22T2vbdb9/KhpZfYfkEBvX3jXE2XbesIhvATJ2tEpKv9fX+l7/8ZVkKrpdMLQCwl4ybXLOR8DGyz+DPB0+yBwhmaR/pXLL3CxXA2yEBBBBdy2CORM9vQJHkz2/lzhgSPapgkjznlCOdDQgk1ZOOxFG+DEYZ5xOjs1sCQIE/5QCTAKHyCrUXB4rEtuN5cdA47/zz0rrBAtoKrfHRRT7aXg+zTVt7+WWXpz5EmJ5C3XOAU1Rn4E/OOvjLJXW2Ski+VvatwYECAFvjOQxaKwzEJGjAG+BHFcsDEKgCrtjtkeABgtztSfuoaZH0SbIXKl52gaSECy644DgVMXUAcCc/VfB/x0rrqITlJd0j8VM2wEflqzxg0KZtgJ70QCYg6jqgmIzQYz1XUkE2iCSPgGG+n0FjaKm4Rxz43Pqf61G6oZLImqlWMiFJ2S4M8Ptzjd5rrrq6uiNUe5MbLfGxj1Vf+vKOPbotHs2nnXZaxbatFen2W2+rfhbS4YGkp0Pjol/eZ6++tSfu7h6WXmaZapsIlF5o4DlQAODA87ylaiRxI80j8RsTathHH300AS2eVbMHwALO2PcBayRuJHdCBACIgB2AlsBdADPAUR7gjAqZzR+ABwhKR7KnPIAuAzuAjT1h9lrMe4BPvfIDp8AhMOqc9KSHzmuDeqyyoH1CYcw4w4zpunYUKhxoFw6ssOIKKbDufvvtV23yhU2qE088sRq54Mg+b/41P/1ptVrY4C44b0comD6vYBAKfPPtt6oTLrmkxwBwjz32qPbaa68UZmcQmtttlTfGGthzRR+34seai2fYbcEtluClV1+pzv3RjyYJAK6xxhopTFGL3VpbNKcAwLZ4TH3fSMALcGKAzsEDkLJx6HD+8ccfT0Au2/QBioCc3yR9QN9CCy2U9kAdSR8QSV1LKqcMIA5QAxalAdgASeCPehhY9BsABdbULw1poE0+nmYke0JfkDyq58/hSPLnAKFApvQApfa5J8dCa4hbpb0khoVajwMPPfhQtcyyy7Rewwa5RVRsZ3zvjOqWm29JkkDeqcDKxNZD7k2TVwxp2VILL9ybrC2Z57WIJXhCOCn0hE495dRkf7zpZpv2JPmgpVkyns9ak7l6+l+hOTp3EqWwnE4K9Y4DRUTSO761dS6gCegj7SM5A6QALsBs3nnnTbZ20lD5UgkAb2wASd6AKhvwJkAswAjMyQcUAn5AGGkcUAYsjgnJIqcOYI4ET10kfdS8joFAefIGtClT+dmOUN3ysjnkZYyyowrgCRiqX5m33HJLdUPMoLXFfRRqPQ6UdXEn/kw+teanqhtvvDG9z45/+pOfTjxDudojDgDW1157bZKu9ihDSdTyHBDHsVDvOFAAYO/41pa5SMhsQBIJHxAINAFXPHepd0ni2NQBdiR4gB9gBswBWaRyVLF+s/sD5FwHCoE1YBFlez5SPWVKpw7XSfNGhopZOUCc9kjHK1g+UkNgNJN634nr6nsu2gwgjgxnECsrUFWTDGpzrsd9/epXv0r2PewGCxUOtCMHeAQfcugh1RWXX5EmNOt+et3q2l9c24630hJtvu/e+6pDDzs0xbUrDgot8Uj6pBGPPPJIWQu4l5wsALCXjGvHbKRhQJhAnZw5gDGgCZgDlER4JzUD5IRaAbyAwCyhA8yAPSCNKjhL8YBKBJjJA1C+EqAOuCTFs5EQciph0ycA9PC4lkFkBp5pGak4r4wMOtWR7P0CAJIgAnekhtoAjKozSyhdA1iRPPfff3+yS5SmSAITW1rmH2ehQj3jgCXlzjr7rOqMM86oLJm31pprVRf94KJ+X2O1Z61rj1TA395771398OIfjluirz1aXlpZONB/HCgAsP942zIlZ4BGVWq1DnsgjdMGgDdNgC5A0LFrpHEJqAVYI6UjjQOosurWORsCrpQFfAGPwJt07wSoBACVC3xpgzKV/VTYCQoIzeNYeBd2g65lpxPpgU4AUVmAnzRUydTS8gGreXOeSlE67VEOgEpl/Nvf/ra6+eabU35tK9QaHFjiY0u0RkPaqBULLbxQdfY5ZycJFtvdNddcs9p3n32rB+5/oE/v4oX4bkass061UCwBZlv8C1+ovn3OOU3XQWq/+MYbp3xLbrJJ9XpM5jqj0y+7rPpTmIr0JVlf+JBvHZLWUQaW999//+qScBJpXIKwL+scjLIODE/mD8c6vPlZ2R/1/e/3uCkPhSbosxHcuRn6W5jzHHfhhc1k6de0zI0K9Y4DxQmkd3xrq1yAFLDHe5fDBckZwMUuD5iiPvUbWAPkLPPjtw9LWuDNNYBqhnDIeC86dmpbYAugI4FTljoAL79dA7jkIc0D6JRho8qVXjoOHiNDnWsPgJLsSQP4KQ/wJI1E6tIWamOgU37XtHOqqEOYGaReQBYgfeyxx8ZJODmGkDxpT6HB5cA7b4ctZ6wLXah5Dsw3Yr5q9OGjq29961vVL37xi+q7sWar79harZ/61KeqUaNGdRmvrSe15QnbE1E2euKpp6q1IzzNJmuvU80XXvZTTjmseim+63nnmjNd//uz/6o+NPY4nYh/f9UXzDpbWtbRuR/GGrLTjP3uXow+iNPGPHPMXr0V3+pl119fLbnQwtVHQ1OAAIx5mXTEtw5Evhbf+X+ivnniOxdMvjv6w+//kBxo2C8LsE2zgE+dxarrrqyBuD7mr2NSn2Z1mGbpzejbvxIA/aB4PnV65fU3qqnj+5p6LL+ej7519ugr2VA/8dTfqlnYbcczezd+62vfjb7zlehXZ4l+GJkEzBp9MXr5tderMU//vZo/xgXX7wvt0d2/fbh6NeqYYbpp03KeT4dmab5w/kOAvtU5nn3h3+FpPm8615//Vl5l5f4sfrIuu/uvabK+/cn75oAloImEDPgDmIAj4Il0jp0flSkVrGPgCzh7Kjp8v7ME763oZOQF+rLaFVjTcQBjQJ5jwEq63/3ud0k9bCAB5pTTKEUEOsU9A97eirykgtTT2ictaZ78lhwCRtWh3cg9SQccshtUh3qBW3v34J7RyACXvJK1l0oYGF44vOu0qdDgceD6GPTL8luTxn8A+vMbfz5tr8cgzfnp1ltvTQ4OJmDe88Uj3As7WZtvLk3gxk6Uelr7vHPOlSZYAMWXDj20+pNvK/qW0/bbvxp91pkJlJngXXDEt6s5Yn3njcJr+T/xLfperfWNNom1qn935U+qMy6/rDr/qququUNKv/D8C1RfWHutCng46vvnVovEt7rpPnun8oC+w3fbrZorvu8tDzgglbFtSLe+tdNO6bizf+752GOOTary3FfoX84ZK718952OCWRjXv1kpimmfP84n+vv/UMPPVR94xvfSH3hFltsUe2www5NVQkEAtWZZoj+85jzvp/6z2PiWdwT/fHeEVLoewcdVG178MHVghFQ//HQoHxtq62qVWL1JvRQOATuf8op1a/PPTeB7mWjHX+NFTYuiFiEJ//whwn8PRZ5Ljn22OoHAablv+LGG1IooW+ecHw1S4wdw4KP5x1+eHXlTTdV58Yyh+jMkMJ+aoXl03H513ocKACw9Z5Jn7VIh0gKRl0E+AB4JGNZ0mZmLA2pH0BEmgZASQPYAXQ6R50poAhYZWAGbMkrj4FG6BVA7d9R3z9i9q8camIDg2N1mpEDbaRwiyyySOrwgDyATjmAZgaY6jdgSauunN99TBf1kAQ41i7t0EbpbDyPpf/4xz9efeQjH0lSCCBRmQ8++GCqY2QMNtpSqHBgcuDAdNNPV332c59Nm/uhAjURY+v78MMPp/iCvj/fwLMhYeuOXo3vaaMAJSZaBv6VAigsNGJEyrbdhhtW+8bar9sFmNhho42qDUPieMIPflBd9qvrqwVCSvRGfJf3XHRRdUuopr8cTheZ3opYfSeG6vChH19ZzTXbrAE4Tq0+ucyy1QIhJfpOxOQ796c/qVaMek4KW73r7767Oi3Cuhy5++5J4/C7iF04XTeTNoGMfxhgRT+kP9N29s5rr712aoJ+ojOqnx/vuOo8fWdlTMq5V17uAG/MW04++eTq/PPPr1ZYfvnqE9FH9YR+GIDs6jBzyXSG5xLP6AsBuo/6+terSwPIbf7pT4dE7oXqyFD3rrPyKsHbS6pbgjcZAOa8jXvg8tIAfaSvux55ZHVH9J+7bLppdcHVV1dfijo+G8/nsF12qTaKd+CgkERfHG2xzOdiMR5cFfcyEMSze1TUPxjgfSDurz/raJkR8I9//GOSRK266qrj7MvqN87TZ4kl3rcbSh1ZzBwN5D7a+iyuni9Lvz4dH0Cz1FW5JGa8yGafbfbxigQ6HnjggSTZArZ6Ql3V0ZO8E0ujXFI5KlD2c4AUyRpbOSAJeMrqU+3WWZotDwtQNCY6fCAKeENAH+kcngN1PH5J3jh2AH6kC8pSJlAFnM0SaeaJ60CkdiiD2heIpO7VPmUCgOpGM8V55asnqXvHSvaU6bx0Okm/dfD5mUvLWQTQ5MxCWvixiHO2TKh80b/jnDa4H/duUNRe6upChQOTIwd4EAssbWukHbfdrvHUBL8N4vt96UsVedg88Z3UVXmLxzePHog++6n4pi8Pj3u0XEgbfc+LjQUuQGP+Rl2n2p0j+g2qX3TCN/dK+/zvwZBCbb7uuunnJ2LytmOouBF1cHfgT7oPxYT2xpt/7bCt6KqfXlXtueee1QorrFDtEmDKkoCHN7E+8ZfDzrJRBYwBQNtN991X/Tq2Q6PcJ6JPH33mmdXRYSP4gRifpp1mmk75RB2cScitbUNyOLMID9HHLlcbg6X5Y9hyrxLPCnne54Tkb82VVqoWjjFhoIhmqlDvODBl77L1XS5A4Athw7DBBhukmQ+VhQXSG2mjmGnWCWD8frzIwn0cHmLnzggwAChvDbVIs3TIIYdUN4UouzMSof9n1/xsvEuWFaLSvChmvvY/iBlxdzSxOrrL29V1/LS59z8/8ecU6++1mM0DZ8hHTxoGiHHEIEEjdeM4QeI2W3TQSZIX0gJxAseEugdwWjI+biD6M5/5TLXWWmtVq6yySpLiAYKkb8AdYAx8IUBSnUAbsKZsgaOt56t+H60N2JNfe7UbkAPW5HsmZvQcPVzXxgwEAbcRIY0AQEkxeRkvtthiCeRqK7BIKgmAKhcoJOVUpusAsU1d6iw08Bxgq1aodTnA/m7VGNgBsTr402LfL1o++urtot++PtYv3mK99aoPRzgm4BCQY7t3b0gg69/Xh+cbUU0Z39+T8V27vvqOO1ZP/+u5ZOvHrhhwuDMkTAhoGRHfL5JncqZPfvKT1WAdsN8AADV5SURBVMPBq+uuv67a6PMb9Zlt7BfjmRwYat0lI1zWnGHSc0Y422wcjkP3hZR0jeWWS2A981UfzU6Qyh6wz3RCSGzPDbX/bSGVnCuiOHhO+tAMEleOSbZnhW4N4cdHxkqJh419R3I5Zd+aHBh0CeAFF1yQBnlGzIhX6KgQ5342PJvODXsEEhuSKQO5hdKpMw886MAEWEh5pCHV2mbbbdPLSXxO2mU9zbPPPjt1QMDB8ccfn9JtGuJrYKSe7vZYFxO4uO666xKQ2DBE21eHiJvd3DrhDSftXXfdlcDGwSFebyTA54QTTkgqF7ZzQIt024eaBPj8aagv1o2ZrXsSoBiwAr5uu+22cXXwVgUa1Sede80g6+ijj64OilnYsSGKP+KIIxqrn+C3Thcg+98n/jeBsLcD6OAbsDRtSAGBPfwE/nTmpGHuHyCTDz9dx19SV3H2gEIE1AFOwJQNgMtAD3BzDZEEkMgBbkj56tIx6EDU5bq86nJNHfkayaF2kRIq0zW/AU42fa6PkxTGYKXuXJ77nDWeg7K9PwCka9Joh9/4LZ13oS6lSI0t//qdA10tKt/vFQ9wBf83piOYumr1DQt+eMGmWiDIrYkOu1yS9uFTD58g/3/fCw1IN7ZruRySwUmhKSJz/l72CBsyar/zwqZPn3NJOHrMH9/Uj6OPW+6LX6wWiolZIxDYJ/rEzffdV/iAau1wWpl3zjmSunCrAw+srj75lOq2sNNdaZttwvHgter0Aw5UWZJCNtvmduL7nA0ONM3e65mXX16dH+NVptVDfXz+6NEhTV2vOiIkfqN33TVd+nyAv6NivLzp3ntTv8z2MhPgPmv0rytsuWWy55s6+le0UUzUdo/nOl30484B78D+w+E9fEiEJdpz663TO3BijF2iSVxx/AnV5Tf8atw7ksvvz/1yAWa7e//7s/52LnvQASBgRfqXieRm5MiRSZUKEC211FLVSjEzpPoDOAzgO2y/QxKZkxSy86JSnDsGcoDp0Jit3BczEssn7RovPhC42mqrJVBIcgf8kDjW0zlH2gdgffWrX01SQ1IlUop77rkn2ZUcEx/BYSGWvzBmRI10xx13JA88HTwCQC8N+xVg9uthgwF8nnTSSdVLMcN6KIDHnXfeWX09bDEARXXwdt1q660qSxSdEjM2gAcfdghjYJI3x4BULr+x/vpvnTNwBWQCptS1QJVjalj3ioeAlE4bQHIeAW3aJL+PitdsDu4MbEkPrEkHsPG6BaZI2JThvC1L7LQXcAPWSARJFeTTRm3SDpvZp3wAm+ukhPKxX2S3pHxliSNIupdB3YtRJ3CrDHXit+vaPlvcp3MknfbKU0duK4mgAdUyQjNMP0OdheV4ADjw5z/9uVr4owsPQE2DW4V+xjtHas2swoTjR5f9qMeNOiAcIJRhontggKS5P9jhaZkLOOboY1K/N+pTo/KpTve5nJ6E3+Et+mSAuM7oyuhDMy0fk8Mbzjqrein6CyrCTBfEJJXn6Exhl5gpexRvF44cW8cE940330oepK6fHveV0yufQ0P2RnX95rj3Zqkd+d7sPUrPXtLWGc0YHrpjxqrnXd80bCHZa775VtiD154Nxw90S+yzt3A6Ef++E3agni/NUfYodu2xsVo65j7y1Z/ZNwPADySJk1modxwYdABoYAYq6gSskBAAA/vss09SNQIFQN0rsXj04ou97y5PigOwMO7XuW6++eYVCR6p33HHHZcAAUBJivXNMIoldWtMx/Nqy5j5MBYm8WITB3BwIOCFSkSvQyG1AygaCQDVhjpZaePiiy+uNon4V+vFjAn4IElkM7dlzJxtv4glidTx4x//uHr1lVcrkj6DxVUxowZ+tUUYA+UATdrfHQFpfx3z1+qxqP/NkHqRngJYpF+AGJ46Vl62UyQJJGEAwABNbaRi9Vy0R5nKAMCzIbl0bAptBrdclrLxCIgldZNHXRk8An7yKA9wA9iAUeflRa5rp2veD2DNOwG8ArTOSe855diD6pIGYJ433hX1vRoDifa7b/cjLbCtbnWS8LrX6ebvqK873pbrfccB38dQAIA4xsNz7XXWTsxbeKGFK0b/F8ZE0vuqrzLJuizUc6NicJZOCI3TTz89OWPl/sZE2Pfw+GOPp76BVNA6wb8MA3/aEwBQ+JPuyum7J/h+SXXwl8/WAUY+l/ekgsKH1Kmevg7+6mmaPZ7c+d4sP6QH4upArrEM4L+ROnu+jeF4+uqZNdbdk9/PPvNsNVeEJyrUPAcGHQCS/pGS2cSfA36AhiU/1uGebrBHAJZBnlqTnWCmDC50kNSFiBSLV1ydsiqyq3SABQI8gIdcrhhbpGm8y0gAta2RSB5JGwEKy5ORCJIkfvvb307xp6QnnQI6kJUwUK6DbRxbRVLDu8P77fmQehkcOJQYHKimqYV7QtS3BgngD8AS52lGDhkBlN2bkCskYsAWUKoNeOs3MGQz0ABYzrsOMDkGFKUjiQPIqWKBNfTOu++ENK7D5g+PlJ15CUg6Z+Ppq00AIqmiZ0rtnPOoV502wBrPtBeQ83y1Rb3O4432AHU8lwFRUj3lvx5lvxwAUJsBfgDVsXpIaKV7NoCl5wJYZgDbEx6XNIUDzXCAJ6rvRxgiwE08utGjR6f+QV+z8847V0cddVTSVvguBGsHkIFDfQK6MozrRwVA/GKoVuWlmfjRj36UJrb6jn/+4589KqeZdrd72sL3dn+CPWu/58xxpqiBe8aveqpBB4AcC4AlQUwBD6DFrDaDAHs0ddi+SAsM6CwzCSdCOsfGbv1QLygHWDgyXNZzGdLmcgCHxnTswTLlPIsuumj1tVDTnhk2FOwUdwh1LADCwQPoyeXJp0yqW6plQBPgOStUI4ChvJ/4xCeSVIwtIClgzpvrMDBQ8ejgzfhFrN82bBpFr1cGkLzMMsuke6MK74qoRoFfPGIvhw9A0KwB2P4b7TK4ML4GzAA06UjX5BsZUtLlw3YkAy7SNQ4dQBrQRIoGeAF+ABXADGRPOUXHUnLKeG2KCB0Tz2mqYR1LxmWJo0EO2eeNtNEGAGqHAVIZ7l+77W3AJn7hqzTuwW9le1+clx8wZA4gPUlfVh8DlwAeoCivfNLgj/sbE04uQDswqdz8bLricTnfNxzwDg0VMoH07vqGfdMIENx1t12rc84+J13Tfzz/7+era0MrYBJH3bvSyitV55133jg2seP1DXIUsKGdv7pzmtBYIk4dPSlnXIGT+UHh+2T+gMvtTTIHBh0AugNrNNoMyHVJDGlYpn/+85lxNmKkRCjHd6KaBQYsjQQMAAVADqIaRiQ9mdj61dNRAWfi/IHYHVK5kkCKp/X6G69XM87QESU9p63vNw5XfBtbuCxNdF2HTm2d81JLZxLJP9eh3nq6ugdydpCZGPhTJjBnU38GU4ARXgBxQB1wCuRkCR+Ax8ZQCAJqb7+lQY6VQzIrjUELQMRfpMxX3+jw5M1gEcBTtjRC5QCDGVg5nzdAzHnpgdEsJXRsIHMfBjxSO0Awq6c9D8fq8wwBO3vA1OaaPJ6DLauTlalsBAi6N5MNYJP6G0gEAgsNDAdWXGnFgamoBWrhDJZVwLk5+RsijdbXWOLt/t/cX70Q0v8rwiRkTExMAEDfQSZmDN5p9D8P/E+ydc7fUDPlTBH9wbkxGZ0zJkKTC1nhokNU8P4dtRrf329Z90eeq4DKD4YkeHKm10MAMKlk7C/UOw60BADMTa+Dv3yuvgcaOqOshnStftxZ2nyuJ+my+hloyQAu5+9qXwd/Oc3E8uY6pJ1YulxWV3tAioQSyANmACEgBzjKAIv9HsDkg8kgj20kZw8SmQyqgCXACEAiVRsZ0kFSswSmhnWsupFBVAaJ9nVwqd4M7vAPEFWeY8/Rb3vOIWJNOY8XBkadHyccAx7gTt3lfvx2Xl70RtyLAVFdys4gz29gLqu9DQ7uO0s+AUrX8UW9fwsASBpL5VyocGAgOWDSKnTURhtulL5dmgOTwi9FDD72fL4z5Jvw/dEGfGa9z6TvwWSSBJ1U0YSxJ+Uoa59IL4zW5EbrN+F8MBh8b4bfO8bSbuy/hwJ9IcIBTQo1Tq4mpayhlneKGKRLILQ2fuoen8EBQLo5osFTJwM3wBiJIZCVDch5IZIoyAP42Ej2qNFJ8wBE4Ig9HZDICWVkgD/H0kqTloULgAVsAYzqAdrUKcSEkBQGJRsC1gA7e/Ua0LTVPgMwA1velGUD6IA2bXFPv/71r5OEUptIIZXP9k9QZ+nYUY4IcMgzOTuMAIxAX1KFR1vdn3Y7TwWsPX5LI84kcOkY4Wk70KmnnpqeQU8chJq5H8/mhf+80EyWptLedONNE0jFmipgMkvMCaweGsd35BvpLGyLZd98k9nm6bVXX6umn2H6xJFmypnMWNir22mGX4XvvWJxy2SaacaZxgkPBqpRJmWEGPwBWpFaSgLYGwYxmDbgZ/s1ZWRQ1Fl5E7vWWfpmzz0RHnnzhSqSWlocvc5IG9imsZdrXE2ks/Q9OQfIUH3aA2VZcgD0sIWhIrKEGqAG5AFQ7Imod4EeeYEtG0mYtnMIAdyUl6WJyncMDCrrA7N+oJp5po5QM1kaKA+JIRAH7GUJZAZ98mYQaE9qqSz12uQHAoFOZWg7aR5VbQ5To/3aSgIIwJJkkiQ+G5JL5cvnmrZLm9XIgCJACjRqr/P23iEq5AwAe8Lzkqb3HPBMCr3PgTr4cxa46wz8udbo4JbBn2vNlCP9UKdm+FX43ppvC9MJ43+eELVmK1uzVR3ijtZsW7et4jm8QzhnMJQW+038v4mtDMLIWliW/iTx/XjwdRYwWr159Q8OIXfcfsckNyVLqgAYqk9giYcrj9js/QoosSMUxZ2KGgACdAAtgAvQ4jUMCJGuUQkrA4gCpoA+QJKKmdSP9IG0LK/s4TdpEcClfCpooA+wsxnstVNZGXhpq3OAnrYoFwhVh7qyI4g0pHXqkp9Uk22glTxIAEkOXQM4EXCtfuYEwJ96Mmgl+ZMO6FQWcs/qwj9tK1Q4UDhQOFA40D4cIEwp1DsOtIQEcEwYPLNJGTVqVAInPb0VgaAFVQZGLo9o6MrIXnRWBmHbdcUVV6Ti9o3o89dff30KrQIkUovy8CX1YSwMxGRiWwO4IHEIeZT+/Oc/T2FeOG544eqrdgA7gj0DJMAL4r2LtEkwahIqziZ5hZGvhI0HsAWkCOfA3kM7gC/tshf/T5411lgjldXZP4CHZE2bACmgT/y7DKyAPaDKPTjWDukBIyBI2+WztA/wBvjZ5HcNKALO8EO6eT80bzXXnLE2ZwAv6mXtf+GFcNJ46+0EOgE2YEpePAWw1OcY0HRdO/x2rP0ZkAGK8skjDf4AqNIAb+oD1rQbONWm7MErHwJ85ZEXILVxZAEIbZ6Pe1K+vbIB4aejzeqVt1D/c4A3fZ28P7zxPQ/vPgeivqBH//hotdjii/VFUYNaxsRW+5jYtUFtdItVPjE+Texai91GaU7hQJ9xYNAlgDx9qRvF8REuxQDQUxIYWqBmeanySAM5LVAJzh6SHtcFeObdylDawEICZC84sz2J0n777TdeldLyeAVYADU6fCuBKBtwsmqHuHxnxFI4AJ3l2QA4AaMfe+yxVJZ1igEbbXOe/d2FEfwVWLX6B3s9HsqklwJBWwJOEGtATsxBINA5xuDdESDEtg8YA45eDSADtAE/QBMJGQAFiEmbgZf0+A2MUcECjwAxoCSNkDFAGQkagJWvS4uUpx7SQ1I3oFBa961uYEsdwKR2qEfZngH+UjEDcPZUvPLxgnwzylUOkidvud3Am3Jt2iJfBpwAXJL6BegTBJuKW2Bo9+VebcoWaoPEkXSRKvy54J+QOYUGhgP1wK0GXyGerJYjjIm1pl9+qWNN6UltjSUh251MsPRtndHErnWWfqieu/nXN6dJemf3P7FrnaUv51qLA8b7ov7t3TMZdAkgKV4e7B9++OEEtoCC7siAr1MURFWgZICJtM1KEMojARIJ3qACfJEMAQEAA2DCnkyQZyCCxKpO0u2+++4JSHi5xCkE4uwZ3Teu2qEsIFAaEfwzaQ8Astlmm6XN+a1j7USrf+SQLmL+iWsoL0cHISDQPvvuUy215FJJAplOdPEPKEoSvLgPwAcYQ0AXPpB+AW5AFLWpNHgnj2PAEU9cB3gBKLZHb8VSTfIDeQBWlsgNm7JjxQ7ngEOA0jX58IG0EchShzYoG/ibMryHEX4rk0RSujmjbTMHKFTWQw89lMoQ6NtKLtI5r52Apt+ApmdLEqjcDOgsGP9ygE5ptUm9PHvd1xwBOBGvYW11XX7P2fPRljEhhf5XtH2BAOiki4X6lwMCF39wng+mSvDee2riM2yqYZXlzZgs+PZ4wnqndgxPQWum3nnHnZU+A4nT6flbX5vNrVBSbIL1ByTwm2y6SZoQXXrpj6rfRygnE8J2WDbqH0//ozrttNPSvZmAWqucdBRQIa2u378+I19zz3V++U5OPvnkpJngPbzmWmsmvg2Ff7+57zcpiLbJnffEu0VDoy8mdBA82LW99tprvGv6B7Fb9QuEB/rEocrDdnlPhsqKQv3xPAZdAih4MjCCDPw9AX/SAgTs/qjxSM4OOuig5OyQpUTAJFWu9X8FVQU88rU88N9yyy0pwr4Ook7KBiQMQtm2DJBApGki78srZMOm0aEAlzlWn8EqEw9bYAPdGwtwa0tuQ05DFZ3zcnDIYGWWmTuW5JF+YmQAzOpNx2J8AV4kWySfQBzgB5A5l+t3rHNjT0dqqZ3SILH7XJM210+yaJCWDm/wU9k2gxKgxtZQGuCLhE8HC7CRxM05x5yxXvPc6bxrJKE62+dDCqc80sMl4vnjB0Au9qLnAKACa1ZZAQA9BzxWv/fFPerYHwwJrDyAAH5yfHFee6i3XxsLDDNwNThSdavXO5TtD91nof7ngFVuMi344QWTFmCppZasdt9t9wTell5m6SSZJxH3HZHkmZQceNCByY7X+2vS5f0lNeQdblIlKLxA70w0xMoj6WX76ps4/PDDc5UtvXdfJm0M27/3ve+lb8J7rm9svH/fi2smvjQZdX4xi+Elv1UsOwlQWmJuqJA+3djie6el8X7ou/WFNC7MbQBn5jf5mv4KQKSRkm706NHJtGio8rBd3hVe8IV6x4FBF3UIgvp4DO53hS0fINdTMgDsueeeSQWsswQWctR8g8CoUaNSp2/WD5wY4KUjpWKTxxkEkDP4NwJAoMdsmk3YCSeckJqUgRDVceOqHQd/6+Bq0002TXG4lJcJwFEP1baOiHQQ2FGfGTnaZZddkhSTOhmQ2yjW9zwjOv1cX97nMjvbk1gBRoAYvmhDDveiXsAMKGPjl3lBeiYtUEXFDYQbaF2XHxgUo08694G/BlhlfDDUtR+IvPk8CZp82kFyB/ApF3DTfu2yNwjbK197qX0N4KQ2no9y5FXWmJAKAXI6ZfcC0ClfGup+g550pKxAm7Kyit/9csQBCEeOHJk6ePVRS6tHes4yypBWOci+AMDO3rD+PffmG28mgAKss9MFZCy7ePPNvw5p+UJp8gTY/+u5f1W77LxLAkWAnckF0odsv8P21Rmnn5HMJqyLa0Pei2223aZ67NHH0iQxnWzxf1Y10oeRYNM6kEb51uYbMd8E95+vkY428su7b3LH8SxNtMdK4Vv89vukefppToJWhgKAxRI1WfWuOMekx4Rbn2BcyBNlk0bmOyaY+oYvf/nLSeszFHnYJw9iAAphTlWWgusdowcdAGr2QqEStTVLYp8R4QMagEMmg4UB/zOf+UySWAE6mYAKIASw4dABVJB21UlZJHbOS4d0ysi5xlU7nAc4MrDxWxuQ+D+kk9qjXh1QXv0jJYh/HFnqq4D4nQk4646AN5Ise+3VRkCTqvu9kKaN+PvT1YwB6GaPuqcIQAXYvhjnpwhg9d8YRMX2M/gqg2ROO21AoHYDcAYg4IsE0PGss34gLcCdgZUOlFRNZwok+g00AlUkk57Bu++9W730YodtoBA4s806Nrh0tHu2aIdNKBfpdcTUNHXVMlCpYwaU1QHcIu0hqZ0rJLHKcG3auJc/hPTDc/GMgUNtAyaVSWorP8CX80tXaGA4gOeZqDFNqn7yk59UX9rxS2mS5rnNN9+IZKaxwMgFqlNOPiWtd2sSRWoD3JPyIRMLRCLsGrrwggsTyPfuIu9zu5Bvh9OZSY9J7g033pCa/sgfHkmTyPr9122fGvnl/aZ18L1QJTMzWXyJxduFDZPUTn0R1bmJtcmEsUC/4j3Tp9LeWBFKf+LdcM1kQR9x9TVXh03wc5VIDdYLH6o8nKQHUDK3BQfafsTz8dbBH64DMpnq4M+5PCA4zgOH4zqtttpqCfjUzzUeN67aoR3AUGdUb4/r9cEvp28sL5/vyV7dcwWwGx6zfXZsjkm3Fgx7qY/fdGf1r+q9avjDj1Yz/eDyCpxdLTq7t2IDn6Z+N9TGw2JwDOnA69NPW71x3a+qp78VgDUkhvhDcqgzBbAAKwCKFA2IJIGRBk8BT52pQUdn6p5JJ4BiIMu1Z2I5P6oVZQCpOttchzSkOjpnIF0a54BQZdoDuHisXvZhVPnOvRRA86UApn+L/BxIADlAkopXu4FJM33ADzCWz6DoPpD2Kn/quJf6gJouln/9woG6PRoHEHZtPIO9Y94nHvAk0mx8PU+SZQDPe2ZCZWJhgoO8/4i3POnN+p9bPz3THAEgXWyjf74da4H79vCG+YRvg61j4/3na6d/9/SkWajzS3DzHXbYYZwZBtvjoULMRL74xS+mie2uu+1WfSQczb7zne8kQE0qSgujj+FECBi7ZnWQvNKKyeZOO+1UzRN92FDl4VB5V4byfZaVQNr86QMvCLC59dZbE4AS6mWBSy6tPnDbvdVfpgtgFuPjO++8V70TIEd6A2bON2UEnB02xZQBmCIuYFyb4813qnc+PH/11EH7p8EYgJ4lwOQ0MSgbdHWstjeiPkusAVXAJlKmAdw5wA5wk0dn6tjmGGgDuLTZXj7SRYDMQAcAOnYNSOTBrFwb4Cg9IOi633Xg7RhwVI/7NJhqAwcTZVP9sq0iATQAcBByP6QujL4NBsrIoCLdWAv/a9eVQDpjKRs/E4aZZp5p3GUewt6TerBjUuSZZ5l5XJrGg/rKGI3X2uU3XniHZ5xpxtRkYXK8k1MNjwDnDfdfv9YbfrULT5ptJ09y3zJtA8oreeg39An1IND5mgkg3utXOCRlauR5Pl/2g88B739+xhNrTVkJZELutL0EsFVWAqHCff6555PUaUI2d34GkGG03RcrggBcJCRAjhnuTAHKpg7JHvCHpppqymqKd4G02OIvfIfTeQDQwGJ7O7a/Tzu8+shfnqxm/sFF1ZMbbZikf9S+QJs9O0ASGdIJNjT2i4Z0hk0gyQ3pprYAYcg5naoOtRFUkWaQJAJfpLjs/eyBAOpj90N1qwwbfpEkTh35kDA16nEeKV/nrn3yO0aAI9AHgHIwoVoD+pRlAzLZFWq7+yzU/xy49557q5VXWXm8isT+a4z/592pgz8ZJgb+XG9M71y7USMv6gNc4/3Xr/WGX+3Gm562tz6RkCev5CGSQR381a85bnwHnWvkuXOFWoMD9fe/NVrUPq1o69GulVYCsaoHQ+GeUn+sCMK7lvMKUHZXSFFmCqnfeyFBsb0bHoBjcVKAvw5UGHhp3LW3Aki9QUIX+8enmqJa8NZ7qmninthXksZR3VLPctrInsBm0YDT4wE4ASuArkNiOEsCXaRvb78TS73958WUDrBDgBrg5jdgqL3ovWigY2VQ01IJsstRTpbK2c8c1y1rlwEnlbA8fisPiJOOXaO2ay9QqkznSAN59gF/pKXyk1oqwz0U6n8OeC6FCgcKBwoHJpUDf3zkj2kN+kktZyjmbwkJ4Jjw+OTNOSo8dzuzj+vqwbAb6o+VQICZ+iohV4Ux8MdDEkUiJcYYlSfwkm2MrDKSyVrAD0WAZ+EEGCEDO8ssu0x16imnJtUmD7SNN964RyuCUO8BQMrhGclBoytSD/DCbooDhLAo/7ruhmrO516onh7+vioDCHzvv+OHg8jAMJdNovbwlP+tVr3iF9WZc8+V7OVI00jNXAO0qH+BLNI7UkHnFl1s0QS0qFMAR5t8wJdNGjEGp52mw1aSXR7VrzTAmFaS1rFVAtYAM/W5N+TdcN1v6jEkxEcm9y8N9TQgmFXMuZ0kgNTJWd0MbJIWKgt4Zi+Y68plln3hQOFA4UDhQOtygFCCjXCh5jkw6BLAu1twJZDGVUJeD0kXMIZ4DnOKaFxlJLP+zxHShgcfcm+8iYWnACoFs+V5xvasJyuCWIZOPvU1rlaS62vcA1kLjhyZjMdn+ckV1Rwf+mA1fzh6IEAvASoK4LD7GxaSsuEBlKYJEDRt2BZNHyq4GaYNNW7sp4jf70zdAaKEQwD+ACkf2rwBSqcMEAY8kQICbyRoHFmco9aVPtluBSBzLqtjh081PKUFttjhyeca4OUYgAP8OHAgksJsMwjUIUDOeb+BXaQO5P6mCiCorUC634Ce8qmXOfh4vuKnAaCkgYCqWGD4XGhgOGAyxV5NCJi8+Y3eeTukw2PPs+/JlGwEx57PMe3efefdcWldzyRfLkMaJE8+Z5+pXp/jTPW0uW31+rprW72+7trWyIvchp60rTNedNW2znjRVdsyLxrblnlRb1tX9XXWtq7q66xtzT6nzurrrm2T8pw640Xmm2dYf4eaaVtnvOiKb7m+yfU5dceL/K2UffMcGHQJICkeKRJqhZVA2Ic1rhLCQwxw0z4ARXyuxlVGOmM98IE4Fyjj4IMPTipIAIkUsbsVQQAkYSDU21MAqD6AiTqTp+vrt91cTb/VNtV8D/2heiuA1osBhF4L8PRy2AG+HPZV70Ra4GhYHP83Bsg4TL9niqa/Mvds1cgAk9nOjoTN9lx4XwrgTLUKjAFWVvTAG+paaYAz1/4vpLuvxPOdMUDYh0LdCoyRuGXQB6hJD0Q6T7LoGKBzHojUPvfiPcFT122ukyw6l8Ge+38n6lV/DvSsTjzRXvXi69zh3Wf5NzaTngdbTGVoT6H+58CHP/LhZGxPup1p9dVXTxJiGgH2pcizEhQamVB5pxDvzdnnmD1Npqjzkfdv1U+umo4F+WWegHyvI+Yfkd4fE7JM63x6nXQo5AxPccQkwNrBBut628TyZDfGFEJQcmQSs9zyy6Xj++67L02G/LBkpKXuTCy0A3lPV19j9XSsva4hwYkFwvae33XXXemcf5aL5PDBIYqjEqIN+NiSH0vHd9xxR3rv/WAqMcsHZkmTRf0XIilfaeWV0rElJ9nEIkGOrYbyYkx+Hrj//nTOt5K9smliTN6Qb98qC3he50V/PSee/fMvMH+Xzwnffa+omedkYrf8CsunfEJL4TXKz4k3uYkg6tVzmrLr50RDlSe/zTwn4XpoQbp6Tuy8TcyRfu6ji3w09dPdPSd9NY0U6ux7YpohxBLq6nvq6jmtvfbayd67J8+JqRIHp/r31NVzMlmf+4NzJ6///JwIOtYYtUZqp3eB7Wuh5jkw6F7AOk6dq4+EVOCRRx7p0V0YzL0Y1uD1Ut94441prcctttgiddCCfzr+5S9/mdbcFfz5/PPPT+cEm6WKzZ2duFqAFiIV6uzaDjvskNILs8ChoLFssf2UI3yD6P1XXXVVteuuu6Z1bn2UOk3Ly7lX6mXxqaxuYEURnqkGBeWKUC9o62abblodEsFgxRPk6KJ8YSAaKYPMxvN+52sAFBD3RoCc12IAfPN/HqzefeDBavgTf6mGvRxOGPHxvBSA6pUAhcNCCjN1gL+ZQ2r40JILVb8ZO4goz0ChTJvylAuECffiWQC0BiI2fzoo90TaSb1Kquc5GcR8vMqyGVx0OmzzSBPzAC8NMJkBoN/qTPcR6UggEWmfa8Cj9gCGytGR+53bCtwZBO1JGgELg6R8VAiegTAigDOStx1ocvICbgd+lzYWDhQOtCcHihfwhM9t0CWArbYSCFDQ2SohYkKJEQVYIgCjvsqIc0DDCiuskACbyOTAy4cj/pT4Updeemn1q1/9KoET0gZSie5WBAEAc7m9AST1PCRqM8aMcsZYmSRuMAFuYOutAETDY8Y3fTh8vPvgQ9U7EeD55ZBO/vY/L1SPxcx54Wg/qRi7OSBNmcA6YAU81YEXyQFpGskLCQ71NTAGtAF7YvXZk8hlxw6SOQCOA4gyMw2Pc1kCKL9rzs0QfM/npZXXOsCeh3ap332RGCLPgKpbvbnNZvyAqTzOAf3Ad5H+JZaVf4UDhQOFA4UDQ4ADgy4BnFQeG8CpU0iXMhn0DebACklhluq4ngELEEEaBBgBB400sWs5bWPZ+bw2aQMReibARJ22TM7V0zhfXxEkp5vYXl19TcCb1RnwinidVI2onprUMb4CZRlskdwCvgAVnvAWJrUEBAExINgzqIM/v4n8ATi8Ah6zKQBQSrJHTS5PsjMMcIeod9UD5OXnjIeApPdAm0j45NN+5z1j4BXwo1YB8qnVqMuUIwwMyW22O1RPHTz73apUJICt+mRKuwoHCgdaiQNFAjjh0xh0CeCETWrujIG6Dv7kJl3KVAd/zgEcmQCJrmhi13KexrLzeW1qBHaNv6Xt7NykrAiS6+/tHpjUdkAJeAOegD7n8SOvy5tDqwBV1L8WqWdT9/cAidSp2cYJEHMdwAK6Mu+VC6Dl+IDOA8aAWmpDXAfeAELSQnUDno7lI1kE0B3Lqzxp5fFbGXXwByhKIz+AqizviDa5B8sQulaocKBwoHCgcKBwYKhwoO0B4FB5UP19n0BTAl8BAIEpalGgyTmgCgizZ/iepadAFuke+zlEiseuEkBk62cDGgFAYBe4tMkPgGWvYXUon6QPqBsWQPDVsRI7dWTVLICoDcoCADNprzTqeS6kgELDUAuzEwT+AD5EasmI3H1pA4mh9iwY9wAM5vvP5ZZ94UDhQOFA4UDhwOTKgQIAJ9cn2+R9ZXAmG3AEeGWnCcDLdQAKmAK+6qpW6l7nxQOUR3rXbSRrJIFZKgt8AWtAnD3QldXt6gbwqIbfCNUxVbTy2PZJT13rmNROOhJY7QQelUGtq53KzPEB34o8WfqnfLaM7P+UZePwQy2svEKFA4UDhQOFA4UDQ4UDBQAOlSfdw/sEoKh0hae4NdYWJgkECIEo14AmEjegi+qdhA0ABNoAPZI056iRef7KC+jVAaC8zgGKABySDpEAAo3AJgkilW0GfmInykc97TxJo3TOkRoCnNqoLOX8N8CidtuAxuGRhqey9KR/bAzXWmut5BGcKi//xnEAH2f9QImLOI4h5aBwoHCgrTmgTys0PgcKAByfH0P+F+kZNe8666yTpGUPPPBAkqgBVRmIUesCfMCbbYlwApk/YlG5nqWFJHLAYAZk0wToQkAZkhZ4s0fWcySFeykkfs7JD2iS8nFEkZ9KF3AjwUOkgkibqY8BPesESwsAanOWMAKl1g4GWrVJaBohecQCA0gLjc8BPCod5vg8Kb8KBwoHCgcmJw4UADg5Pc0+uBeAiToXQBL2BsDj1cubF7gD0kjz7KljSemWXmaZBKLYAAKPgJ1jIEw5ANxUcYyss5Bt8oR+4dULaEw9vMO2j8r33civPnVLy+lDGlK8JB2Mc1nFq03SZImi3+p1DiAEJJUDPP4npJlJEhjAkN1ilgamhpV/hQOFA4UDhQOFA0OIAwUADqGH3ZNbBbSAKEQVvOFGG1bXXH1NCq4NWNmAP9I3e+kBQepfal+0TABCoWGoZAEx+xzyxfW3Iz3wB8RloKZOkjjgEgglBVSHvNmuEKCj+iVZZMsnnfa8HQDPCiIIQNSeBFDjOgCIhJUhueS0QjIojfK0v1DhQOFA4UDhQOHAUONAAYBD7Yk3cb/A0SIfXSStTHLdddelVVdI0xDgRUpH9Uq9OnLkyBRU2rJv8pECJmlegDxgzQohsw6fNYFL4Mt14C+rgAHALL1z3TW2fkBhljYCc8CbNjinDHkAuWhIhJWZMgE7eaWdLquIo7w3xkoatZUUkMRwySWXbIIbJWnhQOFA4UDhQOHA5MOBAgAnn2fZ53cCyAFcJIGWTrOOqADRvHNdA6YALVI5a5ZKiwAzwA5QAxI5W7C9E/YlOWwEeJTGdemASaRM4A2ozKDPMamg9PY26eQjdSQhRJxAlAMM2gSTfj2uye+8fCSF1taUh4PK1NMUz9/EvPKvcKBwoHCgcGDIcaAAwCH3yJu7YWCLlA1gGjVqVFLtWuybXSDbPNI9QI46NgM64AxgQ8AWxw3exNSzylJmlvJJ63cmv21UtoBcXg2ENFH5JILUvVn6KA2wKI80adm3qEOavLxcBpvaCICqj0p6+FTvr8qS6y/7woHCgcKBwoHCgaHAgQIAh8JT7oN7zEBrxIgRaXWPlVdZOSRsrycAyCsXGBSWBdAD+gAyIC+Du7wsHLBGIpdBmX1W6+Y8gBr7QBI+nsDKUT/wR+KoTJI9x3XpIXDJy1h50nAwyQBVXgCU/aDrJJrOFSocKBzonAN77rln9eCDD4530UTw6quvHu9cdz+OPPLIamSYiGyzzTbdJR3Q6/qVyy+7rNpy7PruA1p5qaxwoAU4UABgCzyEdmlCBnMAFCA3w/QzJMmgzp3qloQOMAMAqYcdZ0mf4wzm5AX8ADjX/ZbXRpU7ZQC3DBSVOxxoDADoOiLFY8cnrzY5VhaQ6BxJoN+Aqd/Uv8rRLvuFF144BX92H4UKBwoHOufAb3/72xQPdP311x+XwLfXLC2xxBITLNfZbBn9kf7++++vDjr44EkCgCaYF154YbXBhhumJSX7o52lzMKB/uJAAYD9xdnJvFxSOgSAAVI2QIuEzbV8HQBDAOFTTz2VNiphQMw1UjllJKlf/BauBbkGxAF9rlH5vutcAEngkbQPqHQ9/Q6pIqAI5DmPsr0gQJgliIJJc/4QriYD2pS4jf/985//rH73+9+18R2Upg8EB0bMNyKZPjRTF7vfTTbZZIIsu+22W7IJJg1kTnH88ccn2+Cf//zn1QknnJDSX3XVVclUhDOWb+2mm26qbr/99uo3v/lNijNKInjOOedUd911V6pj2223TZO7zsr23ebzyjWJ23HHHatvf/vbyUxk9OjRKbTT32I98jPOOKN6/PHHq5133rlad91100Tw8MMPTyD01ghuv/TSS1ff+c53qhNPPDFpCPbbb7/quOOOm+Aeuzqhz9GGU045Jdk+69tIRi1fWahwoM4B72Mr0xQxuHaM5K3cytK2LjnQTo8PoDNjpiYGysQKJFEQniXb8LnuGgmgewMEgTfXgUOevlnSB+gpEwAE9oBQwPLl6IhniEFHXmXpoAE+ZX7yk59MAwUAOTFqF3Bo8DzppJMmdivlWuFA4sAuu+ySgFdP2bHGGmukb2355Zcfl2WFFVaoNt988/QNCdJ+2GGHVaeffnoCQICXMEvWA2cqItD6dtttl0Dfoosumswudt999+qQQw6plo9yzj/vvPTtAnIA5LLLLpvKEqOzsewrrrgi1Wm97/3337/65je/mfoEQM419al/ZGgjttxyy2qpmOQd/K1vVWeeeWa1yCKLpLybbbZZtfXWW1d77LFHdcABB6Q+48ADD6yuvfbaVPe4m+zm4KKLLqqOOuqoysRL/8JOGajUxxQqHGjkwFe+8pVqvfXWazzdEr8nPgq2RBNLIyYXDrC504HbzIwAM9IDUkCexABfBn3UuuIAAnWkeoCeY8AMSPQbiFOmGXmWCOKVQNKINBIwBB7lJUVQd7YbTIna/N+qq65a2QoVDvQXB0yqMvmWMgFSG2+8cfoeL7jgggTwRoWj2IWhEiXde+yxx6pttt0mAcCcR4xQ0jjfv9BSTzzxRAoUDzzJ893vfjclbSw75wfYPv/5z1dXXnll6h/kMQE8L8Dk3XffnUJHiTjwdNgkkxJeFjZ+QKp+g8QPUJSXNmKjjTZKE1DAsxkCam2PPvpodeqppyZpIDtHgLdQ4UA7caAAwHZ6WpNBW+vSO53ytAHQsr1fBoBWDclSv7ziB6CXBx/SgWlCmsdTGIgEBs3COZro/IFHgwIJoTKBQEBzgViuLquFJwNWllsoHOh3DrD/23vvvTutZ7HFFkvnfZuk7Yg079BDD03fJPWr0E918n0i36eJWP5tRaFnnnkm5XO9s7Kdpy1AJnTyoCzNF5lAW5iYoOWWWy6BS8cmg8Afqrc3nejlP20866yz0pb7pl4WVbIVDgwKByKCbqHCgYHlAHCnEwYAs7Su3gK2fFTDwJu1gQE8A4wBQx7EHpCX7/CQAgKEziuTWlm+OcLLV3qexAaKpZZaKnkvGzgKFQ4UDvSMA4AaCXt9m1hOUjUrApHIUX11RSNDVUtCd/HFF6ck559/frXQwgul776rPN2dJ43UV2yxxRbV0UcfnfqCv//9711mM/F0X31BpV/pCy6WMgaaAwUADjTHS30JoAFmABqp3WshxaNmAgwBOQBu6gBzZvCM0EnteBAbWGykftIDigzMgUVl2VMnA4sCQZP4UTmxYRL2RSedAWR5DIUDhQMT54Bvha2ciVV9M8lyrf4t5WPfMFs73+xaa601XgU5TT7Jjo6NHrOMyy+/vPrBhT9Il7oqu/F8LifvSflGjx6d6rf+OC/mr3/96+PKzOnslcVeUT8i0H2hwoGhyIHiBNLmTx1YajcC0HS8T4YdztMxQ89qWbZ+7PteC7A3c0j1ADfSPSCRekecQRIJKl5qHh0+FVJWJwGB7PyAPWWyIaQesjUOPt3xrNn03ZVXrhcOFA50zoHn//18Nftss3d+sZdn2RTrO7ojqlubvqJQ4cBQ40CxARxqT7wF7peUAFibO2b+/wnAp7MG2IBZUjqxAAFEQJGahoSADZ90wB8JoD0bP+WQ+rENsldOlvS1IzhugcdTmlA4MKAc6Gvwp/E9AX/S6StshQoHhiIHCgAcik+9Be4ZOAPYeP9R61LxAnMkb7lDBvLE18pSPCCQs4c08uctA0q3lSV3Bfy1wEMuTSgcKBwoHCgcaFkOFADYso9maDQMAAQEqXezLR+pHyAnxhb1bpboAYgF2A2N96LcZeFA4UDhQOFA/3KgOIH0L39L6RPhADDH9oYd35QB7oA90jwG58AgFa9zmQr4y5wo+8KBwoHCgcKBwoFJ40ABgJPGv5J7EjgA7JH2UfPOFF7BWdpH1escwCesQx0ETkJ1JWvhQOFA4UDhQOFA4cBYDhQAWF6FQecAb16gjxSQmneWsPNjxM0JxAYoFiocKBwoHCgcKBwoHOg7DpSRte94WUrqBQdI+UgBAUCre6T4fmNDtwB/JcJ+L5hashQOFA4UDhQOFA50w4ECALthULk8MBzIUkAev4BfBoZF+jcw/C+1FA4UDhQOFA4MLQ6UQNBt/rwnF8cIdn7CvpD4cQIZNtWw6pWXX0lOIlYNyeFdBupxDXR9A3VfpZ7CgcKBwoHCgcIBHCgAsM3fg8kFAObH4H4y+Mr3ln/nNAOxH4w6B+K+Sh2FA4UDhQOFA4UDOFBUwG3+Hgw0UAHKqGh7QjltBnJd5XE9p6nfj+P6767yl/OFA4UDhQOFA4UDhQPNcaBIAJvjV0ldOFA4UDhQOFA4UDhQOND2HCgSwLZ/hOUGCgcKBwoHCgcKBwoHCgea40ABgM3xq6QuHCgcKBwoHCgcKBwoHGh7DhQA2PaPsNxA4UDhQOFA4UDhQOFA4UBzHCgAsDl+ldSFA4UDhQOFA4UDhQOFA23PgQIA2/4RlhsoHCgcKBwoHCgcKBwoHGiOAwUANsevkrpwoHCgcKBwoHCgcKBwoO05UABg2z/CcgOFA4UDhQOFA4UDhQOFA81xoADA5vhVUhcOFA4UDhQOFA4UDhQOtD0HCgBs+0dYbqBwoHCgcKBwoHCgcKBwoDkOFADYHL9K6sKBwoHCgcKBwoHCgcKBtudAAYBt/wjLDRQOFA4UDhQOFA4UDhQONMeBAgCb41dJXThQOFA4UDhQOFA4UDjQ9hwoALDtH2G5gcKBwoHCgcKBwoHCgcKB5jhQAGBz/CqpCwcKBwoHCgcKBwoHCgfangMFALb9Iyw3UDhQOFA4UDhQOFA4UDjQHAcKAGyOXyV14UDhQOFA4UDhQOFA4UDbc6AAwLZ/hOUGCgcKBwoHCgcKBwoHCgea40ABgM3xq6QuHCgcKBwoHCgcKBwoHGh7DhQA2PaPsNxA4UDhQOFA4UDhQOFA4UBzHCgAsDl+ldSFA4UDhQOFA4UDhQOFA23Pgf8H2iOcU6kIwoAAAAAASUVORK5CYII=;" vertex="1" parent="1">
          <mxGeometry x="955" y="650" width="640" height="305" as="geometry" />
        </mxCell>
        <mxCell id="ZF0MTzcJXiSA46bS5pOD-17" value="https://arxiv.org/pdf/2310.00194.pdf" style="text;html=1;strokeColor=none;fillColor=none;align=center;verticalAlign=middle;whiteSpace=wrap;rounded=0;" vertex="1" parent="1">
          <mxGeometry x="1140" y="970" width="300" height="30" as="geometry" />
        </mxCell>
      </root>
    </mxGraphModel>
  </diagram>
</mxfile>
